%TF.GenerationSoftware,KiCad,Pcbnew,7.0.1-0*%
%TF.CreationDate,2023-04-17T16:38:54-05:00*%
%TF.ProjectId,PIC32,50494333-322e-46b6-9963-61645f706362,rev?*%
%TF.SameCoordinates,Original*%
%TF.FileFunction,Soldermask,Top*%
%TF.FilePolarity,Negative*%
%FSLAX46Y46*%
G04 Gerber Fmt 4.6, Leading zero omitted, Abs format (unit mm)*
G04 Created by KiCad (PCBNEW 7.0.1-0) date 2023-04-17 16:38:54*
%MOMM*%
%LPD*%
G01*
G04 APERTURE LIST*
%ADD10R,1.700000X1.700000*%
%ADD11O,1.700000X1.700000*%
%ADD12C,1.524000*%
%ADD13C,1.600000*%
%ADD14C,1.700000*%
%ADD15C,2.000000*%
%ADD16O,1.600000X1.600000*%
%ADD17R,1.800000X1.800000*%
%ADD18C,1.800000*%
%ADD19O,1.050000X1.500000*%
%ADD20R,1.050000X1.500000*%
%ADD21R,1.600000X1.600000*%
G04 APERTURE END LIST*
D10*
%TO.C,J4*%
X108780000Y-122140000D03*
D11*
X111320000Y-122140000D03*
X113860000Y-122140000D03*
X116400000Y-122140000D03*
X118940000Y-122140000D03*
X121480000Y-122140000D03*
D12*
X108780000Y-101820000D03*
X121480000Y-101820000D03*
%TD*%
D13*
%TO.C,C6*%
X122260000Y-146290000D03*
X119760000Y-146290000D03*
%TD*%
%TO.C,C2*%
X137590000Y-119470000D03*
X140090000Y-119470000D03*
%TD*%
D14*
%TO.C,SW1*%
X102960000Y-109240000D03*
X102960000Y-106740000D03*
X102960000Y-104240000D03*
%TD*%
D15*
%TO.C,SW3*%
X128220000Y-104980000D03*
X133470000Y-104980000D03*
%TD*%
%TO.C,SW2*%
X139680000Y-104850000D03*
X144930000Y-104850000D03*
%TD*%
D10*
%TO.C,J2*%
X102960000Y-117920000D03*
D11*
X102960000Y-120460000D03*
X102960000Y-123000000D03*
X102960000Y-125540000D03*
X102960000Y-128080000D03*
X102960000Y-130620000D03*
X102960000Y-133160000D03*
X102960000Y-135700000D03*
X102960000Y-138240000D03*
X102960000Y-140780000D03*
X102960000Y-143320000D03*
X102960000Y-145860000D03*
%TD*%
D16*
%TO.C,R2*%
X109370000Y-143500000D03*
D13*
X109370000Y-135880000D03*
%TD*%
D10*
%TO.C,J3*%
X145280000Y-117820000D03*
D11*
X145280000Y-120360000D03*
X145280000Y-122900000D03*
X145280000Y-125440000D03*
X145280000Y-127980000D03*
X145280000Y-130520000D03*
X145280000Y-133060000D03*
X145280000Y-135600000D03*
X145280000Y-138140000D03*
X145280000Y-140680000D03*
X145280000Y-143220000D03*
X145280000Y-145760000D03*
%TD*%
D13*
%TO.C,R3*%
X113780000Y-135880000D03*
D16*
X113780000Y-143500000D03*
%TD*%
D13*
%TO.C,R5*%
X137340000Y-140150000D03*
D16*
X137340000Y-147770000D03*
%TD*%
D13*
%TO.C,330*%
X118260000Y-135900000D03*
D16*
X118260000Y-143520000D03*
%TD*%
D13*
%TO.C,C3*%
X140060000Y-123850000D03*
X137560000Y-123850000D03*
%TD*%
D10*
%TO.C,J1*%
X147740000Y-110920000D03*
D11*
X147740000Y-113460000D03*
%TD*%
D17*
%TO.C,D1*%
X119650000Y-128385000D03*
D18*
X119650000Y-130925000D03*
%TD*%
D17*
%TO.C,D3*%
X114620000Y-128490000D03*
D18*
X114620000Y-131030000D03*
%TD*%
D13*
%TO.C,C4*%
X140170000Y-128040000D03*
X137670000Y-128040000D03*
%TD*%
D19*
%TO.C,U2*%
X137890000Y-111610000D03*
X139160000Y-111610000D03*
D20*
X140430000Y-111610000D03*
%TD*%
D13*
%TO.C,R4*%
X141270000Y-140110000D03*
D16*
X141270000Y-147730000D03*
%TD*%
D13*
%TO.C,C1*%
X133900000Y-111430000D03*
X131400000Y-111430000D03*
%TD*%
D17*
%TO.C,D2*%
X109690000Y-128540000D03*
D18*
X109690000Y-131080000D03*
%TD*%
D13*
%TO.C,C5*%
X137460000Y-135190000D03*
X139960000Y-135190000D03*
%TD*%
D16*
%TO.C,PIC32MX170f256b*%
X133400000Y-114775000D03*
X133400000Y-117315000D03*
X133400000Y-119855000D03*
X133400000Y-122395000D03*
X133400000Y-124935000D03*
X133400000Y-127475000D03*
X133400000Y-130015000D03*
X133400000Y-132555000D03*
X133400000Y-135095000D03*
X133400000Y-137635000D03*
X133400000Y-140175000D03*
X133400000Y-142715000D03*
X133400000Y-145255000D03*
X133400000Y-147795000D03*
X125780000Y-147795000D03*
X125780000Y-145255000D03*
X125780000Y-142715000D03*
X125780000Y-140175000D03*
X125780000Y-137635000D03*
X125780000Y-135095000D03*
X125780000Y-132555000D03*
X125780000Y-130015000D03*
X125780000Y-127475000D03*
X125780000Y-124935000D03*
X125780000Y-122395000D03*
X125780000Y-119855000D03*
X125780000Y-117315000D03*
D21*
X125780000Y-114775000D03*
%TD*%
M02*
