%TF.GenerationSoftware,KiCad,Pcbnew,7.0.1-0*%
%TF.CreationDate,2023-04-17T16:38:54-05:00*%
%TF.ProjectId,PIC32,50494333-322e-46b6-9963-61645f706362,rev?*%
%TF.SameCoordinates,Original*%
%TF.FileFunction,Copper,L2,Bot*%
%TF.FilePolarity,Positive*%
%FSLAX46Y46*%
G04 Gerber Fmt 4.6, Leading zero omitted, Abs format (unit mm)*
G04 Created by KiCad (PCBNEW 7.0.1-0) date 2023-04-17 16:38:54*
%MOMM*%
%LPD*%
G01*
G04 APERTURE LIST*
%TA.AperFunction,ComponentPad*%
%ADD10R,1.700000X1.700000*%
%TD*%
%TA.AperFunction,ComponentPad*%
%ADD11O,1.700000X1.700000*%
%TD*%
%TA.AperFunction,ComponentPad*%
%ADD12C,1.524000*%
%TD*%
%TA.AperFunction,ComponentPad*%
%ADD13C,1.600000*%
%TD*%
%TA.AperFunction,ComponentPad*%
%ADD14C,1.700000*%
%TD*%
%TA.AperFunction,ComponentPad*%
%ADD15C,2.000000*%
%TD*%
%TA.AperFunction,ComponentPad*%
%ADD16O,1.600000X1.600000*%
%TD*%
%TA.AperFunction,ComponentPad*%
%ADD17R,1.800000X1.800000*%
%TD*%
%TA.AperFunction,ComponentPad*%
%ADD18C,1.800000*%
%TD*%
%TA.AperFunction,ComponentPad*%
%ADD19O,1.050000X1.500000*%
%TD*%
%TA.AperFunction,ComponentPad*%
%ADD20R,1.050000X1.500000*%
%TD*%
%TA.AperFunction,ComponentPad*%
%ADD21R,1.600000X1.600000*%
%TD*%
%TA.AperFunction,ViaPad*%
%ADD22C,0.800000*%
%TD*%
%TA.AperFunction,Conductor*%
%ADD23C,0.250000*%
%TD*%
G04 APERTURE END LIST*
D10*
%TO.P,J4,1,Pin_1*%
%TO.N,unconnected-(J4-Pin_1-Pad1)*%
X108780000Y-122140000D03*
D11*
%TO.P,J4,2,Pin_2*%
%TO.N,/U1TX*%
X111320000Y-122140000D03*
%TO.P,J4,3,Pin_3*%
%TO.N,/U1RX*%
X113860000Y-122140000D03*
%TO.P,J4,4,Pin_4*%
%TO.N,Net-(J4-Pin_4)*%
X116400000Y-122140000D03*
%TO.P,J4,5,Pin_5*%
%TO.N,unconnected-(J4-Pin_5-Pad5)*%
X118940000Y-122140000D03*
%TO.P,J4,6,Pin_6*%
%TO.N,GND*%
X121480000Y-122140000D03*
D12*
%TO.P,J4,7*%
%TO.N,N/C*%
X108780000Y-101820000D03*
%TO.P,J4,8*%
X121480000Y-101820000D03*
%TD*%
D13*
%TO.P,C6,1*%
%TO.N,+3.3V*%
X122260000Y-146290000D03*
%TO.P,C6,2*%
%TO.N,GND*%
X119760000Y-146290000D03*
%TD*%
%TO.P,C2,2*%
%TO.N,GND*%
X137590000Y-119470000D03*
%TO.P,C2,1*%
%TO.N,+3.3V*%
X140090000Y-119470000D03*
%TD*%
D14*
%TO.P,SW1,1,A*%
%TO.N,Net-(J4-Pin_4)*%
X102960000Y-109240000D03*
%TO.P,SW1,2,B*%
%TO.N,/Vin*%
X102960000Y-106740000D03*
%TO.P,SW1,3,C*%
%TO.N,Net-(J1-Pin_1)*%
X102960000Y-104240000D03*
%TD*%
D15*
%TO.P,SW3,1,1*%
%TO.N,/USER*%
X128220000Y-104980000D03*
%TO.P,SW3,2,2*%
%TO.N,GND*%
X133470000Y-104980000D03*
%TD*%
%TO.P,SW2,1,1*%
%TO.N,/MCLR*%
X139680000Y-104850000D03*
%TO.P,SW2,2,2*%
%TO.N,GND*%
X144930000Y-104850000D03*
%TD*%
D10*
%TO.P,J2,1,Pin_1*%
%TO.N,/A0*%
X102960000Y-117920000D03*
D11*
%TO.P,J2,2,Pin_2*%
%TO.N,/A1*%
X102960000Y-120460000D03*
%TO.P,J2,3,Pin_3*%
%TO.N,/B0*%
X102960000Y-123000000D03*
%TO.P,J2,4,Pin_4*%
%TO.N,/B1*%
X102960000Y-125540000D03*
%TO.P,J2,5,Pin_5*%
%TO.N,/B2*%
X102960000Y-128080000D03*
%TO.P,J2,6,Pin_6*%
%TO.N,/A3*%
X102960000Y-130620000D03*
%TO.P,J2,7,Pin_7*%
%TO.N,/GREEN*%
X102960000Y-133160000D03*
%TO.P,J2,8,Pin_8*%
%TO.N,/YELLOW*%
X102960000Y-135700000D03*
%TO.P,J2,9,Pin_9*%
%TO.N,/B6*%
X102960000Y-138240000D03*
%TO.P,J2,10,Pin_10*%
%TO.N,/Vin*%
X102960000Y-140780000D03*
%TO.P,J2,11,Pin_11*%
%TO.N,+3.3V*%
X102960000Y-143320000D03*
%TO.P,J2,12,Pin_12*%
%TO.N,GND*%
X102960000Y-145860000D03*
%TD*%
D16*
%TO.P,R2,2*%
%TO.N,+3.3V*%
X109370000Y-143500000D03*
D13*
%TO.P,R2,1*%
%TO.N,Net-(D2-A)*%
X109370000Y-135880000D03*
%TD*%
D10*
%TO.P,J3,1,Pin_1*%
%TO.N,/B15*%
X145280000Y-117820000D03*
D11*
%TO.P,J3,2,Pin_2*%
%TO.N,/B14*%
X145280000Y-120360000D03*
%TO.P,J3,3,Pin_3*%
%TO.N,/B13*%
X145280000Y-122900000D03*
%TO.P,J3,4,Pin_4*%
%TO.N,/B12*%
X145280000Y-125440000D03*
%TO.P,J3,5,Pin_5*%
%TO.N,/B11*%
X145280000Y-127980000D03*
%TO.P,J3,6,Pin_6*%
%TO.N,/B10*%
X145280000Y-130520000D03*
%TO.P,J3,7,Pin_7*%
%TO.N,/B9*%
X145280000Y-133060000D03*
%TO.P,J3,8,Pin_8*%
%TO.N,/B8*%
X145280000Y-135600000D03*
%TO.P,J3,9,Pin_9*%
%TO.N,/B7*%
X145280000Y-138140000D03*
%TO.P,J3,10,Pin_10*%
%TO.N,/Vin*%
X145280000Y-140680000D03*
%TO.P,J3,11,Pin_11*%
%TO.N,+3.3V*%
X145280000Y-143220000D03*
%TO.P,J3,12,Pin_12*%
%TO.N,GND*%
X145280000Y-145760000D03*
%TD*%
D13*
%TO.P,R3,1*%
%TO.N,Net-(D3-A)*%
X113780000Y-135880000D03*
D16*
%TO.P,R3,2*%
%TO.N,+3.3V*%
X113780000Y-143500000D03*
%TD*%
D13*
%TO.P,R5,1*%
%TO.N,+3.3V*%
X137340000Y-140150000D03*
D16*
%TO.P,R5,2*%
%TO.N,/USER*%
X137340000Y-147770000D03*
%TD*%
D13*
%TO.P,330,1*%
%TO.N,Net-(D1-A)*%
X118260000Y-135900000D03*
D16*
%TO.P,330,2*%
%TO.N,+3.3V*%
X118260000Y-143520000D03*
%TD*%
D13*
%TO.P,C3,1*%
%TO.N,+3.3V*%
X140060000Y-123850000D03*
%TO.P,C3,2*%
%TO.N,GND*%
X137560000Y-123850000D03*
%TD*%
D10*
%TO.P,J1,1,Pin_1*%
%TO.N,Net-(J1-Pin_1)*%
X147740000Y-110920000D03*
D11*
%TO.P,J1,2,Pin_2*%
%TO.N,GND*%
X147740000Y-113460000D03*
%TD*%
D17*
%TO.P,D1,1,K*%
%TO.N,/GREEN*%
X119650000Y-128385000D03*
D18*
%TO.P,D1,2,A*%
%TO.N,Net-(D1-A)*%
X119650000Y-130925000D03*
%TD*%
D17*
%TO.P,D3,1,K*%
%TO.N,/YELLOW*%
X114620000Y-128490000D03*
D18*
%TO.P,D3,2,A*%
%TO.N,Net-(D3-A)*%
X114620000Y-131030000D03*
%TD*%
D13*
%TO.P,C4,1*%
%TO.N,+3.3V*%
X140170000Y-128040000D03*
%TO.P,C4,2*%
%TO.N,GND*%
X137670000Y-128040000D03*
%TD*%
D19*
%TO.P,U2,3,Vin*%
%TO.N,/Vin*%
X137890000Y-111610000D03*
%TO.P,U2,2,GND*%
%TO.N,GND*%
X139160000Y-111610000D03*
D20*
%TO.P,U2,1,Vout*%
%TO.N,+3.3V*%
X140430000Y-111610000D03*
%TD*%
D13*
%TO.P,R4,1*%
%TO.N,+3.3V*%
X141270000Y-140110000D03*
D16*
%TO.P,R4,2*%
%TO.N,/MCLR*%
X141270000Y-147730000D03*
%TD*%
D13*
%TO.P,C1,1*%
%TO.N,/Vin*%
X133900000Y-111430000D03*
%TO.P,C1,2*%
%TO.N,GND*%
X131400000Y-111430000D03*
%TD*%
D17*
%TO.P,D2,1,K*%
%TO.N,GND*%
X109690000Y-128540000D03*
D18*
%TO.P,D2,2,A*%
%TO.N,Net-(D2-A)*%
X109690000Y-131080000D03*
%TD*%
D13*
%TO.P,C5,1*%
%TO.N,Net-(U1-Vcap)*%
X137460000Y-135190000D03*
%TO.P,C5,2*%
%TO.N,GND*%
X139960000Y-135190000D03*
%TD*%
D16*
%TO.P,PIC32MX170f256b,28,AVdd*%
%TO.N,+3.3V*%
X133400000Y-114775000D03*
%TO.P,PIC32MX170f256b,27,AVss*%
%TO.N,GND*%
X133400000Y-117315000D03*
%TO.P,PIC32MX170f256b,26,B15*%
%TO.N,/B15*%
X133400000Y-119855000D03*
%TO.P,PIC32MX170f256b,25,B14*%
%TO.N,/B14*%
X133400000Y-122395000D03*
%TO.P,PIC32MX170f256b,24,B13*%
%TO.N,/B13*%
X133400000Y-124935000D03*
%TO.P,PIC32MX170f256b,23,B12*%
%TO.N,/B12*%
X133400000Y-127475000D03*
%TO.P,PIC32MX170f256b,22,B11*%
%TO.N,/B11*%
X133400000Y-130015000D03*
%TO.P,PIC32MX170f256b,21,B10*%
%TO.N,/B10*%
X133400000Y-132555000D03*
%TO.P,PIC32MX170f256b,20,Vcap*%
%TO.N,Net-(U1-Vcap)*%
X133400000Y-135095000D03*
%TO.P,PIC32MX170f256b,19,Vss*%
%TO.N,GND*%
X133400000Y-137635000D03*
%TO.P,PIC32MX170f256b,18,B9*%
%TO.N,/B9*%
X133400000Y-140175000D03*
%TO.P,PIC32MX170f256b,17,B8*%
%TO.N,/B8*%
X133400000Y-142715000D03*
%TO.P,PIC32MX170f256b,16,B7*%
%TO.N,/B7*%
X133400000Y-145255000D03*
%TO.P,PIC32MX170f256b,15,B6*%
%TO.N,/B6*%
X133400000Y-147795000D03*
%TO.P,PIC32MX170f256b,14,B5*%
%TO.N,/YELLOW*%
X125780000Y-147795000D03*
%TO.P,PIC32MX170f256b,13,Vdd*%
%TO.N,+3.3V*%
X125780000Y-145255000D03*
%TO.P,PIC32MX170f256b,12,A4*%
%TO.N,/USER*%
X125780000Y-142715000D03*
%TO.P,PIC32MX170f256b,11,B4*%
%TO.N,/GREEN*%
X125780000Y-140175000D03*
%TO.P,PIC32MX170f256b,10,A3*%
%TO.N,/A3*%
X125780000Y-137635000D03*
%TO.P,PIC32MX170f256b,9,A2*%
%TO.N,/U1RX*%
X125780000Y-135095000D03*
%TO.P,PIC32MX170f256b,8,Vss*%
%TO.N,GND*%
X125780000Y-132555000D03*
%TO.P,PIC32MX170f256b,7,B3*%
%TO.N,/U1TX*%
X125780000Y-130015000D03*
%TO.P,PIC32MX170f256b,6,B2*%
%TO.N,/B2*%
X125780000Y-127475000D03*
%TO.P,PIC32MX170f256b,5,B1*%
%TO.N,/B1*%
X125780000Y-124935000D03*
%TO.P,PIC32MX170f256b,4,B0*%
%TO.N,/B0*%
X125780000Y-122395000D03*
%TO.P,PIC32MX170f256b,3,A1*%
%TO.N,/A1*%
X125780000Y-119855000D03*
%TO.P,PIC32MX170f256b,2,A0*%
%TO.N,/A0*%
X125780000Y-117315000D03*
D21*
%TO.P,PIC32MX170f256b,1,~{MCLR}*%
%TO.N,/MCLR*%
X125780000Y-114775000D03*
%TD*%
D22*
%TO.N,/Vin*%
X148080000Y-115720000D03*
%TO.N,/B6*%
X128060000Y-147430000D03*
X122890000Y-142490000D03*
%TO.N,/YELLOW*%
X105900000Y-127480000D03*
%TO.N,/GREEN*%
X122310000Y-140175000D03*
%TO.N,/U1TX*%
X111340000Y-126530000D03*
%TO.N,/U1RX*%
X112280000Y-133590000D03*
%TO.N,/MCLR*%
X129500000Y-114850000D03*
X129540000Y-149270000D03*
X125580000Y-103610000D03*
%TO.N,+3.3V*%
X140430000Y-114520000D03*
%TO.N,/Vin*%
X137480000Y-106710000D03*
%TO.N,Net-(J4-Pin_4)*%
X116400000Y-109170000D03*
%TD*%
D23*
%TO.N,/Vin*%
X145280000Y-140680000D02*
X147290000Y-140680000D01*
X147290000Y-140680000D02*
X148080000Y-139890000D01*
X148080000Y-139890000D02*
X148080000Y-115720000D01*
X102960000Y-140780000D02*
X101785000Y-139605000D01*
X101785000Y-107915000D02*
X102960000Y-106740000D01*
X101785000Y-139605000D02*
X101785000Y-107915000D01*
%TO.N,/B6*%
X128060000Y-145900000D02*
X128060000Y-147430000D01*
X124240000Y-143840000D02*
X126000000Y-143840000D01*
X122890000Y-142490000D02*
X124240000Y-143840000D01*
X126000000Y-143840000D02*
X128060000Y-145900000D01*
%TO.N,/YELLOW*%
X105900000Y-127480000D02*
X105900000Y-132760000D01*
X105900000Y-132760000D02*
X102960000Y-135700000D01*
%TO.N,/GREEN*%
X122310000Y-140175000D02*
X122310000Y-131045000D01*
X122310000Y-131045000D02*
X119650000Y-128385000D01*
%TO.N,Net-(D2-A)*%
X109370000Y-135880000D02*
X109370000Y-131400000D01*
X109370000Y-131400000D02*
X109690000Y-131080000D01*
%TO.N,Net-(D3-A)*%
X113780000Y-135880000D02*
X113780000Y-131870000D01*
X113780000Y-131870000D02*
X114620000Y-131030000D01*
%TO.N,Net-(D1-A)*%
X118260000Y-135900000D02*
X118260000Y-132315000D01*
X118260000Y-132315000D02*
X119650000Y-130925000D01*
%TO.N,/U1TX*%
X111320000Y-126510000D02*
X111340000Y-126530000D01*
X111320000Y-122140000D02*
X111320000Y-126510000D01*
%TO.N,/U1RX*%
X112280000Y-123720000D02*
X112280000Y-133590000D01*
X113860000Y-122140000D02*
X112280000Y-123720000D01*
%TO.N,/MCLR*%
X129540000Y-114890000D02*
X129500000Y-114850000D01*
X129540000Y-149270000D02*
X129540000Y-114890000D01*
%TO.N,/USER*%
X128220000Y-104980000D02*
X128220000Y-140275000D01*
X128220000Y-140275000D02*
X125780000Y-142715000D01*
%TO.N,/MCLR*%
X125580000Y-103610000D02*
X125780000Y-103810000D01*
X125780000Y-103810000D02*
X125780000Y-114775000D01*
%TO.N,+3.3V*%
X141270000Y-140110000D02*
X137380000Y-140110000D01*
X137380000Y-140110000D02*
X137340000Y-140150000D01*
X143180000Y-140010000D02*
X143180000Y-143060000D01*
X143180000Y-130081701D02*
X143180000Y-140010000D01*
X143080000Y-140110000D02*
X141270000Y-140110000D01*
X143180000Y-140010000D02*
X143080000Y-140110000D01*
X142880000Y-129781701D02*
X143180000Y-130081701D01*
X142880000Y-127980000D02*
X142880000Y-129781701D01*
X142820000Y-128040000D02*
X142880000Y-127980000D01*
X140170000Y-128040000D02*
X142820000Y-128040000D01*
X143180000Y-143060000D02*
X143340000Y-143220000D01*
X143340000Y-143220000D02*
X145280000Y-143220000D01*
X140060000Y-123850000D02*
X140060000Y-127930000D01*
X140060000Y-127930000D02*
X140170000Y-128040000D01*
X140090000Y-119470000D02*
X140090000Y-123820000D01*
X140090000Y-123820000D02*
X140060000Y-123850000D01*
X140430000Y-111610000D02*
X140430000Y-119130000D01*
X140430000Y-119130000D02*
X140090000Y-119470000D01*
%TO.N,/Vin*%
X137480000Y-106710000D02*
X137890000Y-107120000D01*
X137890000Y-107120000D02*
X137890000Y-111610000D01*
%TO.N,Net-(J4-Pin_4)*%
X116400000Y-122140000D02*
X116400000Y-109170000D01*
%TD*%
%TA.AperFunction,Conductor*%
%TO.N,GND*%
G36*
X149937500Y-100017113D02*
G01*
X149982887Y-100062500D01*
X149999500Y-100124500D01*
X149999500Y-149875500D01*
X149982887Y-149937500D01*
X149937500Y-149982887D01*
X149875500Y-149999500D01*
X130373406Y-149999500D01*
X130311406Y-149982887D01*
X130266019Y-149937500D01*
X130249406Y-149875500D01*
X130266019Y-149813500D01*
X130367179Y-149638284D01*
X130367179Y-149638283D01*
X130425674Y-149458256D01*
X130445460Y-149270000D01*
X130425674Y-149081744D01*
X130367179Y-148901716D01*
X130367179Y-148901715D01*
X130272535Y-148737786D01*
X130259427Y-148723229D01*
X130197347Y-148654282D01*
X130173736Y-148615751D01*
X130165500Y-148571313D01*
X130165500Y-147795000D01*
X132094531Y-147795000D01*
X132114364Y-148021689D01*
X132173261Y-148241497D01*
X132269432Y-148447735D01*
X132399953Y-148634140D01*
X132560859Y-148795046D01*
X132747264Y-148925567D01*
X132747265Y-148925567D01*
X132747266Y-148925568D01*
X132953504Y-149021739D01*
X133173308Y-149080635D01*
X133400000Y-149100468D01*
X133626692Y-149080635D01*
X133846496Y-149021739D01*
X134052734Y-148925568D01*
X134239139Y-148795047D01*
X134400047Y-148634139D01*
X134530568Y-148447734D01*
X134626739Y-148241496D01*
X134685635Y-148021692D01*
X134705468Y-147795000D01*
X134703281Y-147769999D01*
X136034531Y-147769999D01*
X136054364Y-147996689D01*
X136113261Y-148216497D01*
X136209432Y-148422735D01*
X136339953Y-148609140D01*
X136500859Y-148770046D01*
X136687264Y-148900567D01*
X136687265Y-148900567D01*
X136687266Y-148900568D01*
X136893504Y-148996739D01*
X137113308Y-149055635D01*
X137340000Y-149075468D01*
X137566692Y-149055635D01*
X137786496Y-148996739D01*
X137992734Y-148900568D01*
X138179139Y-148770047D01*
X138340047Y-148609139D01*
X138470568Y-148422734D01*
X138566739Y-148216496D01*
X138625635Y-147996692D01*
X138645468Y-147770000D01*
X138641968Y-147729999D01*
X139964531Y-147729999D01*
X139984364Y-147956689D01*
X140043261Y-148176497D01*
X140139432Y-148382735D01*
X140269953Y-148569140D01*
X140430859Y-148730046D01*
X140617264Y-148860567D01*
X140617265Y-148860567D01*
X140617266Y-148860568D01*
X140823504Y-148956739D01*
X141043308Y-149015635D01*
X141270000Y-149035468D01*
X141496692Y-149015635D01*
X141716496Y-148956739D01*
X141922734Y-148860568D01*
X142109139Y-148730047D01*
X142270047Y-148569139D01*
X142400568Y-148382734D01*
X142496739Y-148176496D01*
X142555635Y-147956692D01*
X142575468Y-147730000D01*
X142555635Y-147503308D01*
X142496739Y-147283504D01*
X142400568Y-147077266D01*
X142389679Y-147061715D01*
X142270046Y-146890859D01*
X142109140Y-146729953D01*
X141922735Y-146599432D01*
X141716497Y-146503261D01*
X141496689Y-146444364D01*
X141270000Y-146424531D01*
X141043310Y-146444364D01*
X140823502Y-146503261D01*
X140617264Y-146599432D01*
X140430859Y-146729953D01*
X140269953Y-146890859D01*
X140139432Y-147077264D01*
X140043261Y-147283502D01*
X139984364Y-147503310D01*
X139964531Y-147729999D01*
X138641968Y-147729999D01*
X138625635Y-147543308D01*
X138566739Y-147323504D01*
X138470568Y-147117266D01*
X138431671Y-147061715D01*
X138340046Y-146930859D01*
X138179140Y-146769953D01*
X137992735Y-146639432D01*
X137786497Y-146543261D01*
X137566689Y-146484364D01*
X137340000Y-146464531D01*
X137113310Y-146484364D01*
X136893502Y-146543261D01*
X136687264Y-146639432D01*
X136500859Y-146769953D01*
X136339953Y-146930859D01*
X136209432Y-147117264D01*
X136113261Y-147323502D01*
X136054364Y-147543310D01*
X136034531Y-147769999D01*
X134703281Y-147769999D01*
X134685635Y-147568308D01*
X134626739Y-147348504D01*
X134530568Y-147142266D01*
X134521377Y-147129140D01*
X134400046Y-146955859D01*
X134239140Y-146794953D01*
X134052733Y-146664431D01*
X134007959Y-146643553D01*
X133994724Y-146637381D01*
X133942549Y-146591625D01*
X133923129Y-146525000D01*
X133942549Y-146458375D01*
X133994725Y-146412618D01*
X134052734Y-146385568D01*
X134239139Y-146255047D01*
X134400047Y-146094139D01*
X134458961Y-146010000D01*
X143949364Y-146010000D01*
X144006569Y-146223492D01*
X144106399Y-146437576D01*
X144241893Y-146631081D01*
X144408918Y-146798106D01*
X144602423Y-146933600D01*
X144816507Y-147033430D01*
X145029999Y-147090635D01*
X145030000Y-147090636D01*
X145030000Y-146010000D01*
X145530000Y-146010000D01*
X145530000Y-147090635D01*
X145743492Y-147033430D01*
X145957576Y-146933600D01*
X146151081Y-146798106D01*
X146318106Y-146631081D01*
X146453600Y-146437576D01*
X146553430Y-146223492D01*
X146610636Y-146010000D01*
X145530000Y-146010000D01*
X145030000Y-146010000D01*
X143949364Y-146010000D01*
X134458961Y-146010000D01*
X134530568Y-145907734D01*
X134626739Y-145701496D01*
X134685635Y-145481692D01*
X134705468Y-145255000D01*
X134685635Y-145028308D01*
X134626739Y-144808504D01*
X134530568Y-144602266D01*
X134524712Y-144593903D01*
X134400046Y-144415859D01*
X134239140Y-144254953D01*
X134052733Y-144124431D01*
X133994725Y-144097382D01*
X133942549Y-144051625D01*
X133923129Y-143985000D01*
X133942549Y-143918375D01*
X133994725Y-143872618D01*
X134052734Y-143845568D01*
X134239139Y-143715047D01*
X134400047Y-143554139D01*
X134530568Y-143367734D01*
X134626739Y-143161496D01*
X134685635Y-142941692D01*
X134705468Y-142715000D01*
X134685635Y-142488308D01*
X134626739Y-142268504D01*
X134530568Y-142062266D01*
X134523082Y-142051575D01*
X134400046Y-141875859D01*
X134239140Y-141714953D01*
X134052733Y-141584431D01*
X133994725Y-141557382D01*
X133942549Y-141511625D01*
X133923129Y-141445000D01*
X133942549Y-141378375D01*
X133994725Y-141332618D01*
X134022833Y-141319511D01*
X134052734Y-141305568D01*
X134239139Y-141175047D01*
X134400047Y-141014139D01*
X134530568Y-140827734D01*
X134626739Y-140621496D01*
X134685635Y-140401692D01*
X134705468Y-140175000D01*
X134703281Y-140149999D01*
X136034531Y-140149999D01*
X136054364Y-140376689D01*
X136113261Y-140596497D01*
X136209432Y-140802735D01*
X136339953Y-140989140D01*
X136500859Y-141150046D01*
X136687264Y-141280567D01*
X136687265Y-141280567D01*
X136687266Y-141280568D01*
X136893504Y-141376739D01*
X137113308Y-141435635D01*
X137340000Y-141455468D01*
X137566692Y-141435635D01*
X137786496Y-141376739D01*
X137992734Y-141280568D01*
X138179139Y-141150047D01*
X138340047Y-140989139D01*
X138470568Y-140802734D01*
X138470568Y-140802733D01*
X138476790Y-140793848D01*
X138478873Y-140795306D01*
X138514290Y-140754920D01*
X138580916Y-140735500D01*
X140055812Y-140735500D01*
X140113069Y-140749511D01*
X140157387Y-140788377D01*
X140269953Y-140949140D01*
X140430859Y-141110046D01*
X140617264Y-141240567D01*
X140617265Y-141240567D01*
X140617266Y-141240568D01*
X140823504Y-141336739D01*
X141043308Y-141395635D01*
X141270000Y-141415468D01*
X141496692Y-141395635D01*
X141716496Y-141336739D01*
X141922734Y-141240568D01*
X142109139Y-141110047D01*
X142270047Y-140949139D01*
X142306546Y-140897012D01*
X142328925Y-140865052D01*
X142376141Y-140824725D01*
X142436989Y-140812345D01*
X142496210Y-140831017D01*
X142538953Y-140876058D01*
X142554500Y-140936175D01*
X142554500Y-142977256D01*
X142552235Y-142997762D01*
X142554439Y-143067873D01*
X142554500Y-143071768D01*
X142554500Y-143099349D01*
X142555003Y-143103334D01*
X142555918Y-143114967D01*
X142557290Y-143158626D01*
X142562879Y-143177860D01*
X142566825Y-143196916D01*
X142569335Y-143216792D01*
X142585414Y-143257404D01*
X142589197Y-143268451D01*
X142601382Y-143310391D01*
X142611580Y-143327635D01*
X142620136Y-143345100D01*
X142627514Y-143363732D01*
X142638066Y-143378256D01*
X142653180Y-143399059D01*
X142659593Y-143408822D01*
X142681826Y-143446416D01*
X142681829Y-143446419D01*
X142681830Y-143446420D01*
X142695995Y-143460585D01*
X142708627Y-143475375D01*
X142720405Y-143491586D01*
X142754051Y-143519420D01*
X142762693Y-143527283D01*
X142839200Y-143603791D01*
X142852096Y-143619888D01*
X142903225Y-143667902D01*
X142906020Y-143670611D01*
X142925529Y-143690120D01*
X142928711Y-143692588D01*
X142937571Y-143700155D01*
X142953429Y-143715047D01*
X142969418Y-143730062D01*
X142986970Y-143739711D01*
X143003238Y-143750397D01*
X143019064Y-143762673D01*
X143059146Y-143780017D01*
X143069633Y-143785155D01*
X143107907Y-143806197D01*
X143116410Y-143808379D01*
X143127308Y-143811178D01*
X143145713Y-143817478D01*
X143164104Y-143825437D01*
X143207250Y-143832270D01*
X143218668Y-143834635D01*
X143260981Y-143845500D01*
X143281016Y-143845500D01*
X143300415Y-143847027D01*
X143320196Y-143850160D01*
X143363674Y-143846050D01*
X143375344Y-143845500D01*
X144004773Y-143845500D01*
X144062030Y-143859511D01*
X144106346Y-143898374D01*
X144241505Y-144091401D01*
X144408599Y-144258495D01*
X144594597Y-144388732D01*
X144633460Y-144433048D01*
X144647471Y-144490305D01*
X144633461Y-144547561D01*
X144594595Y-144591880D01*
X144408919Y-144721892D01*
X144241890Y-144888921D01*
X144106400Y-145082421D01*
X144006569Y-145296507D01*
X143949364Y-145509999D01*
X143949364Y-145510000D01*
X146610636Y-145510000D01*
X146610635Y-145509999D01*
X146553430Y-145296507D01*
X146453599Y-145082421D01*
X146318109Y-144888921D01*
X146151081Y-144721893D01*
X145965404Y-144591880D01*
X145926539Y-144547562D01*
X145912528Y-144490305D01*
X145926539Y-144433048D01*
X145965402Y-144388732D01*
X146151401Y-144258495D01*
X146318495Y-144091401D01*
X146454035Y-143897830D01*
X146553903Y-143683663D01*
X146615063Y-143455408D01*
X146635659Y-143220000D01*
X146630540Y-143161496D01*
X146615063Y-142984592D01*
X146581219Y-142858284D01*
X146553903Y-142756337D01*
X146454035Y-142542171D01*
X146318495Y-142348599D01*
X146151401Y-142181505D01*
X145965839Y-142051573D01*
X145926975Y-142007257D01*
X145912964Y-141950000D01*
X145926975Y-141892743D01*
X145965839Y-141848426D01*
X146151401Y-141718495D01*
X146318495Y-141551401D01*
X146453653Y-141358374D01*
X146497970Y-141319511D01*
X146555227Y-141305500D01*
X147207256Y-141305500D01*
X147227762Y-141307764D01*
X147230665Y-141307672D01*
X147230667Y-141307673D01*
X147297872Y-141305561D01*
X147301768Y-141305500D01*
X147329349Y-141305500D01*
X147329350Y-141305500D01*
X147333319Y-141304998D01*
X147344965Y-141304080D01*
X147388627Y-141302709D01*
X147407859Y-141297120D01*
X147426918Y-141293174D01*
X147433196Y-141292381D01*
X147446792Y-141290664D01*
X147487407Y-141274582D01*
X147498444Y-141270803D01*
X147540390Y-141258618D01*
X147557629Y-141248422D01*
X147575102Y-141239862D01*
X147593732Y-141232486D01*
X147629064Y-141206814D01*
X147638830Y-141200400D01*
X147676418Y-141178171D01*
X147676417Y-141178171D01*
X147676420Y-141178170D01*
X147690585Y-141164004D01*
X147705373Y-141151373D01*
X147721587Y-141139594D01*
X147749438Y-141105926D01*
X147757279Y-141097309D01*
X148463786Y-140390802D01*
X148479887Y-140377904D01*
X148481874Y-140375787D01*
X148481877Y-140375786D01*
X148527932Y-140326741D01*
X148530613Y-140323976D01*
X148538253Y-140316336D01*
X148550120Y-140304470D01*
X148552581Y-140301295D01*
X148560152Y-140292431D01*
X148590062Y-140260582D01*
X148599713Y-140243026D01*
X148610393Y-140226767D01*
X148622674Y-140210936D01*
X148640018Y-140170851D01*
X148645160Y-140160356D01*
X148650273Y-140151056D01*
X148666197Y-140122092D01*
X148671178Y-140102688D01*
X148677480Y-140084283D01*
X148685438Y-140065895D01*
X148692270Y-140022748D01*
X148694639Y-140011316D01*
X148705500Y-139969020D01*
X148705500Y-139948984D01*
X148707027Y-139929585D01*
X148708021Y-139923308D01*
X148710160Y-139909804D01*
X148706050Y-139866325D01*
X148705500Y-139854656D01*
X148705500Y-116418687D01*
X148713736Y-116374249D01*
X148737347Y-116335717D01*
X148812533Y-116252216D01*
X148851418Y-116184866D01*
X148907179Y-116088284D01*
X148913415Y-116069091D01*
X148965674Y-115908256D01*
X148985460Y-115720000D01*
X148965674Y-115531744D01*
X148907179Y-115351716D01*
X148907179Y-115351715D01*
X148812533Y-115187783D01*
X148685870Y-115047110D01*
X148532732Y-114935849D01*
X148390811Y-114872662D01*
X148345979Y-114838755D01*
X148320723Y-114788539D01*
X148320233Y-114732331D01*
X148344609Y-114681682D01*
X148388842Y-114646999D01*
X148417579Y-114633598D01*
X148611081Y-114498106D01*
X148778106Y-114331081D01*
X148913600Y-114137576D01*
X149013430Y-113923492D01*
X149070636Y-113710000D01*
X146409364Y-113710000D01*
X146466569Y-113923492D01*
X146566399Y-114137576D01*
X146701893Y-114331081D01*
X146868918Y-114498106D01*
X147062423Y-114633600D01*
X147276508Y-114733430D01*
X147485187Y-114789346D01*
X147544150Y-114824949D01*
X147575017Y-114886523D01*
X147568267Y-114955069D01*
X147525981Y-115009438D01*
X147474129Y-115047111D01*
X147347466Y-115187783D01*
X147252820Y-115351715D01*
X147194326Y-115531742D01*
X147174540Y-115719999D01*
X147194326Y-115908257D01*
X147252820Y-116088284D01*
X147347464Y-116252213D01*
X147348068Y-116252884D01*
X147422652Y-116335717D01*
X147446264Y-116374249D01*
X147454500Y-116418687D01*
X147454500Y-139579548D01*
X147445061Y-139627001D01*
X147418181Y-139667229D01*
X147067228Y-140018181D01*
X147027000Y-140045061D01*
X146979547Y-140054500D01*
X146555226Y-140054500D01*
X146497969Y-140040489D01*
X146453651Y-140001623D01*
X146443233Y-139986744D01*
X146318495Y-139808599D01*
X146151401Y-139641505D01*
X145965839Y-139511573D01*
X145926975Y-139467257D01*
X145912964Y-139410000D01*
X145926975Y-139352743D01*
X145965839Y-139308426D01*
X146151401Y-139178495D01*
X146318495Y-139011401D01*
X146454035Y-138817830D01*
X146553903Y-138603663D01*
X146615063Y-138375408D01*
X146635659Y-138140000D01*
X146615063Y-137904592D01*
X146553903Y-137676337D01*
X146454035Y-137462171D01*
X146318495Y-137268599D01*
X146151401Y-137101505D01*
X145965839Y-136971573D01*
X145926975Y-136927257D01*
X145912964Y-136870000D01*
X145926975Y-136812743D01*
X145965839Y-136768426D01*
X146151401Y-136638495D01*
X146318495Y-136471401D01*
X146454035Y-136277830D01*
X146553903Y-136063663D01*
X146615063Y-135835408D01*
X146635659Y-135600000D01*
X146630540Y-135541496D01*
X146615063Y-135364592D01*
X146578267Y-135227266D01*
X146553903Y-135136337D01*
X146454035Y-134922171D01*
X146318495Y-134728599D01*
X146151401Y-134561505D01*
X145965839Y-134431573D01*
X145926976Y-134387257D01*
X145912965Y-134330000D01*
X145926976Y-134272743D01*
X145965839Y-134228426D01*
X146151401Y-134098495D01*
X146318495Y-133931401D01*
X146454035Y-133737830D01*
X146553903Y-133523663D01*
X146615063Y-133295408D01*
X146635659Y-133060000D01*
X146615063Y-132824592D01*
X146553903Y-132596337D01*
X146454035Y-132382171D01*
X146318495Y-132188599D01*
X146151401Y-132021505D01*
X145965839Y-131891573D01*
X145926975Y-131847257D01*
X145912964Y-131790000D01*
X145926975Y-131732743D01*
X145965839Y-131688426D01*
X146151401Y-131558495D01*
X146318495Y-131391401D01*
X146454035Y-131197830D01*
X146553903Y-130983663D01*
X146615063Y-130755408D01*
X146635659Y-130520000D01*
X146630540Y-130461496D01*
X146615063Y-130284592D01*
X146583514Y-130166848D01*
X146553903Y-130056337D01*
X146454035Y-129842171D01*
X146318495Y-129648599D01*
X146151401Y-129481505D01*
X145965839Y-129351573D01*
X145926975Y-129307257D01*
X145912964Y-129250000D01*
X145926975Y-129192743D01*
X145965839Y-129148426D01*
X146151401Y-129018495D01*
X146318495Y-128851401D01*
X146454035Y-128657830D01*
X146553903Y-128443663D01*
X146615063Y-128215408D01*
X146635659Y-127980000D01*
X146615063Y-127744592D01*
X146553903Y-127516337D01*
X146454035Y-127302171D01*
X146318495Y-127108599D01*
X146151401Y-126941505D01*
X145965839Y-126811573D01*
X145926974Y-126767255D01*
X145912964Y-126709999D01*
X145926975Y-126652742D01*
X145965837Y-126608428D01*
X146151401Y-126478495D01*
X146318495Y-126311401D01*
X146454035Y-126117830D01*
X146553903Y-125903663D01*
X146615063Y-125675408D01*
X146635659Y-125440000D01*
X146630540Y-125381496D01*
X146615063Y-125204592D01*
X146596454Y-125135141D01*
X146553903Y-124976337D01*
X146454035Y-124762171D01*
X146318495Y-124568599D01*
X146151401Y-124401505D01*
X145965839Y-124271573D01*
X145926974Y-124227255D01*
X145912964Y-124169999D01*
X145926975Y-124112742D01*
X145965837Y-124068428D01*
X146151401Y-123938495D01*
X146318495Y-123771401D01*
X146454035Y-123577830D01*
X146553903Y-123363663D01*
X146615063Y-123135408D01*
X146635659Y-122900000D01*
X146615063Y-122664592D01*
X146553903Y-122436337D01*
X146454035Y-122222171D01*
X146318495Y-122028599D01*
X146151401Y-121861505D01*
X145965839Y-121731573D01*
X145926975Y-121687257D01*
X145912964Y-121630000D01*
X145926975Y-121572743D01*
X145965839Y-121528426D01*
X146151401Y-121398495D01*
X146318495Y-121231401D01*
X146454035Y-121037830D01*
X146553903Y-120823663D01*
X146615063Y-120595408D01*
X146635659Y-120360000D01*
X146615063Y-120124592D01*
X146553903Y-119896337D01*
X146454035Y-119682171D01*
X146318495Y-119488599D01*
X146196569Y-119366673D01*
X146165273Y-119313927D01*
X146163084Y-119252634D01*
X146190537Y-119197789D01*
X146240916Y-119162810D01*
X146372331Y-119113796D01*
X146487546Y-119027546D01*
X146573796Y-118912331D01*
X146624091Y-118777483D01*
X146630500Y-118717873D01*
X146630499Y-116922128D01*
X146624091Y-116862517D01*
X146573796Y-116727669D01*
X146487546Y-116612454D01*
X146372331Y-116526204D01*
X146237483Y-116475909D01*
X146177873Y-116469500D01*
X146177869Y-116469500D01*
X144382130Y-116469500D01*
X144322515Y-116475909D01*
X144187669Y-116526204D01*
X144072454Y-116612454D01*
X143986204Y-116727668D01*
X143935909Y-116862516D01*
X143929500Y-116922130D01*
X143929500Y-118717869D01*
X143930206Y-118724432D01*
X143935909Y-118777483D01*
X143986204Y-118912331D01*
X144072454Y-119027546D01*
X144187669Y-119113796D01*
X144299907Y-119155658D01*
X144319082Y-119162810D01*
X144369462Y-119197789D01*
X144396915Y-119252634D01*
X144394726Y-119313926D01*
X144363431Y-119366673D01*
X144241503Y-119488601D01*
X144105965Y-119682170D01*
X144006097Y-119896336D01*
X143944936Y-120124592D01*
X143924340Y-120360000D01*
X143944936Y-120595407D01*
X143971961Y-120696266D01*
X144006097Y-120823663D01*
X144105965Y-121037830D01*
X144241505Y-121231401D01*
X144408599Y-121398495D01*
X144594160Y-121528426D01*
X144633024Y-121572743D01*
X144647035Y-121630000D01*
X144633024Y-121687257D01*
X144594159Y-121731575D01*
X144578891Y-121742266D01*
X144514640Y-121787255D01*
X144408595Y-121861508D01*
X144241505Y-122028598D01*
X144105965Y-122222170D01*
X144006097Y-122436336D01*
X143944936Y-122664592D01*
X143924340Y-122900000D01*
X143944936Y-123135407D01*
X143979701Y-123265150D01*
X144006097Y-123363663D01*
X144105965Y-123577830D01*
X144241505Y-123771401D01*
X144408599Y-123938495D01*
X144594160Y-124068426D01*
X144633024Y-124112743D01*
X144647035Y-124170000D01*
X144633024Y-124227257D01*
X144594159Y-124271575D01*
X144578891Y-124282266D01*
X144514640Y-124327255D01*
X144408595Y-124401508D01*
X144241505Y-124568598D01*
X144105965Y-124762170D01*
X144006097Y-124976336D01*
X143944936Y-125204592D01*
X143924340Y-125440000D01*
X143944936Y-125675407D01*
X143989709Y-125842501D01*
X144006097Y-125903663D01*
X144105965Y-126117830D01*
X144241505Y-126311401D01*
X144408599Y-126478495D01*
X144594160Y-126608426D01*
X144633024Y-126652743D01*
X144647035Y-126710000D01*
X144633024Y-126767257D01*
X144594159Y-126811575D01*
X144578891Y-126822266D01*
X144453785Y-126909866D01*
X144408595Y-126941508D01*
X144241505Y-127108598D01*
X144105965Y-127302170D01*
X144006097Y-127516336D01*
X143944936Y-127744592D01*
X143924340Y-127979999D01*
X143944936Y-128215407D01*
X143989709Y-128382502D01*
X144006097Y-128443663D01*
X144105965Y-128657830D01*
X144241505Y-128851401D01*
X144408599Y-129018495D01*
X144594160Y-129148426D01*
X144633024Y-129192743D01*
X144647035Y-129250000D01*
X144633024Y-129307257D01*
X144594159Y-129351575D01*
X144408595Y-129481508D01*
X144241505Y-129648598D01*
X144105965Y-129842170D01*
X144033318Y-129997961D01*
X143995976Y-130044273D01*
X143941361Y-130067862D01*
X143882045Y-130063299D01*
X143831681Y-130031634D01*
X143801861Y-129980156D01*
X143797122Y-129963847D01*
X143793174Y-129944783D01*
X143790664Y-129924907D01*
X143774588Y-129884305D01*
X143770804Y-129873254D01*
X143760174Y-129836668D01*
X143758618Y-129831311D01*
X143748414Y-129814056D01*
X143739861Y-129796596D01*
X143738623Y-129793469D01*
X143732486Y-129777969D01*
X143706808Y-129742626D01*
X143700401Y-129732872D01*
X143678170Y-129695281D01*
X143664006Y-129681117D01*
X143651374Y-129666328D01*
X143639594Y-129650114D01*
X143639591Y-129650112D01*
X143639591Y-129650111D01*
X143605941Y-129622274D01*
X143597300Y-129614411D01*
X143541819Y-129558930D01*
X143514939Y-129518702D01*
X143505500Y-129471249D01*
X143505500Y-128038984D01*
X143507027Y-128019585D01*
X143508194Y-128012216D01*
X143510160Y-127999804D01*
X143506050Y-127956325D01*
X143505500Y-127944656D01*
X143505500Y-127940652D01*
X143502041Y-127913277D01*
X143501613Y-127909400D01*
X143495287Y-127842467D01*
X143495285Y-127842463D01*
X143495013Y-127839577D01*
X143491732Y-127825906D01*
X143490664Y-127823208D01*
X143465883Y-127760621D01*
X143464547Y-127757085D01*
X143441754Y-127693772D01*
X143441751Y-127693767D01*
X143440768Y-127691037D01*
X143434192Y-127678616D01*
X143392956Y-127621859D01*
X143390715Y-127618671D01*
X143389128Y-127616336D01*
X143352924Y-127563062D01*
X143352923Y-127563061D01*
X143351292Y-127560661D01*
X143341831Y-127550264D01*
X143331996Y-127542128D01*
X143287790Y-127505558D01*
X143284839Y-127503037D01*
X143232206Y-127456635D01*
X143220448Y-127448911D01*
X143156973Y-127419041D01*
X143153479Y-127417329D01*
X143136473Y-127408664D01*
X143093565Y-127386802D01*
X143093561Y-127386801D01*
X143090980Y-127385486D01*
X143077671Y-127380928D01*
X143008784Y-127367787D01*
X143004972Y-127366998D01*
X142936512Y-127351696D01*
X142922473Y-127350591D01*
X142852491Y-127354993D01*
X142848604Y-127355177D01*
X142778479Y-127357381D01*
X142764613Y-127359801D01*
X142697904Y-127381477D01*
X142694209Y-127382613D01*
X142642579Y-127397614D01*
X142614571Y-127405751D01*
X142613902Y-127403451D01*
X142573506Y-127414500D01*
X141384188Y-127414500D01*
X141326931Y-127400489D01*
X141282613Y-127361623D01*
X141170046Y-127200859D01*
X141009140Y-127039953D01*
X140822735Y-126909432D01*
X140783800Y-126891276D01*
X140757094Y-126878823D01*
X140704919Y-126833067D01*
X140685500Y-126766442D01*
X140685500Y-125064188D01*
X140699511Y-125006931D01*
X140738377Y-124962613D01*
X140899140Y-124850046D01*
X141060046Y-124689140D01*
X141139636Y-124575472D01*
X141190568Y-124502734D01*
X141286739Y-124296496D01*
X141345635Y-124076692D01*
X141365468Y-123850000D01*
X141345635Y-123623308D01*
X141286739Y-123403504D01*
X141190568Y-123197266D01*
X141177152Y-123178106D01*
X141060046Y-123010859D01*
X140899140Y-122849953D01*
X140768377Y-122758393D01*
X140729511Y-122714075D01*
X140715500Y-122656818D01*
X140715500Y-120684188D01*
X140729511Y-120626931D01*
X140768377Y-120582613D01*
X140929140Y-120470046D01*
X141090046Y-120309140D01*
X141095398Y-120301496D01*
X141220568Y-120122734D01*
X141316739Y-119916496D01*
X141375635Y-119696692D01*
X141395468Y-119470000D01*
X141375635Y-119243308D01*
X141316739Y-119023504D01*
X141220568Y-118817266D01*
X141192712Y-118777483D01*
X141083825Y-118621974D01*
X141084419Y-118621557D01*
X141064939Y-118592404D01*
X141055500Y-118544951D01*
X141055500Y-115218687D01*
X141063736Y-115174249D01*
X141087347Y-115135717D01*
X141162533Y-115052216D01*
X141165481Y-115047111D01*
X141257179Y-114888284D01*
X141293987Y-114775000D01*
X141315674Y-114708256D01*
X141335460Y-114520000D01*
X141315674Y-114331744D01*
X141257179Y-114151716D01*
X141257179Y-114151715D01*
X141162535Y-113987786D01*
X141115779Y-113935859D01*
X141087347Y-113904282D01*
X141063736Y-113865751D01*
X141055500Y-113821313D01*
X141055500Y-112942790D01*
X141065512Y-112893977D01*
X141093931Y-112853047D01*
X141136164Y-112826609D01*
X141197331Y-112803796D01*
X141312546Y-112717546D01*
X141398796Y-112602331D01*
X141449091Y-112467483D01*
X141455500Y-112407873D01*
X141455500Y-111817869D01*
X146389500Y-111817869D01*
X146395785Y-111876326D01*
X146395909Y-111877483D01*
X146446204Y-112012331D01*
X146532454Y-112127546D01*
X146647669Y-112213796D01*
X146779598Y-112263002D01*
X146829978Y-112297981D01*
X146857431Y-112352825D01*
X146855242Y-112414118D01*
X146823947Y-112466865D01*
X146701888Y-112588924D01*
X146566400Y-112782421D01*
X146466569Y-112996507D01*
X146409364Y-113209999D01*
X146409364Y-113210000D01*
X149070636Y-113210000D01*
X149070635Y-113209999D01*
X149013430Y-112996507D01*
X148913599Y-112782421D01*
X148778109Y-112588921D01*
X148656053Y-112466865D01*
X148624757Y-112414119D01*
X148622568Y-112352826D01*
X148650021Y-112297981D01*
X148700398Y-112263003D01*
X148832331Y-112213796D01*
X148947546Y-112127546D01*
X149033796Y-112012331D01*
X149084091Y-111877483D01*
X149090500Y-111817873D01*
X149090499Y-110022128D01*
X149084091Y-109962517D01*
X149033796Y-109827669D01*
X148947546Y-109712454D01*
X148832331Y-109626204D01*
X148697483Y-109575909D01*
X148637873Y-109569500D01*
X148637869Y-109569500D01*
X146842130Y-109569500D01*
X146782515Y-109575909D01*
X146647669Y-109626204D01*
X146532454Y-109712454D01*
X146446204Y-109827668D01*
X146395909Y-109962516D01*
X146389500Y-110022130D01*
X146389500Y-111817869D01*
X141455500Y-111817869D01*
X141455499Y-110812128D01*
X141449091Y-110752517D01*
X141398796Y-110617669D01*
X141312546Y-110502454D01*
X141197331Y-110416204D01*
X141062483Y-110365909D01*
X141002873Y-110359500D01*
X141002869Y-110359500D01*
X139857130Y-110359500D01*
X139797515Y-110365909D01*
X139649091Y-110421267D01*
X139612390Y-110437144D01*
X139554927Y-110433677D01*
X139410000Y-110389714D01*
X139410000Y-110754328D01*
X139409289Y-110767584D01*
X139404500Y-110812123D01*
X139404500Y-112407870D01*
X139409290Y-112452422D01*
X139410000Y-112465675D01*
X139410000Y-112830286D01*
X139554927Y-112786322D01*
X139612396Y-112782855D01*
X139649085Y-112798729D01*
X139662667Y-112803794D01*
X139662669Y-112803796D01*
X139723835Y-112826609D01*
X139766069Y-112853047D01*
X139794488Y-112893977D01*
X139804500Y-112942790D01*
X139804500Y-113821313D01*
X139796264Y-113865751D01*
X139772652Y-113904282D01*
X139744221Y-113935859D01*
X139697464Y-113987786D01*
X139602820Y-114151715D01*
X139544326Y-114331742D01*
X139524540Y-114519999D01*
X139544326Y-114708257D01*
X139602820Y-114888284D01*
X139697464Y-115052213D01*
X139697467Y-115052216D01*
X139772652Y-115135717D01*
X139796264Y-115174249D01*
X139804500Y-115218687D01*
X139804500Y-118104973D01*
X139792882Y-118157377D01*
X139760206Y-118199962D01*
X139712594Y-118224748D01*
X139643502Y-118243261D01*
X139437264Y-118339432D01*
X139250859Y-118469953D01*
X139089953Y-118630859D01*
X138959429Y-118817268D01*
X138952104Y-118832978D01*
X138906347Y-118885152D01*
X138839722Y-118904570D01*
X138773098Y-118885150D01*
X138727342Y-118832975D01*
X138720133Y-118817515D01*
X138669025Y-118744526D01*
X137943553Y-119470000D01*
X137943553Y-119470001D01*
X138669025Y-120195472D01*
X138720131Y-120122484D01*
X138727340Y-120107026D01*
X138773097Y-120054849D01*
X138839722Y-120035428D01*
X138906348Y-120054847D01*
X138952106Y-120107023D01*
X138959432Y-120122735D01*
X139089953Y-120309140D01*
X139250859Y-120470046D01*
X139411623Y-120582613D01*
X139450489Y-120626931D01*
X139464500Y-120684188D01*
X139464500Y-122614806D01*
X139450489Y-122672063D01*
X139411623Y-122716381D01*
X139220859Y-122849953D01*
X139059953Y-123010859D01*
X138929429Y-123197268D01*
X138922104Y-123212978D01*
X138876347Y-123265152D01*
X138809722Y-123284570D01*
X138743098Y-123265150D01*
X138697342Y-123212975D01*
X138690133Y-123197515D01*
X138639025Y-123124526D01*
X137913553Y-123850000D01*
X137913553Y-123850001D01*
X138639025Y-124575472D01*
X138690131Y-124502484D01*
X138697340Y-124487026D01*
X138743097Y-124434849D01*
X138809722Y-124415428D01*
X138876348Y-124434847D01*
X138922105Y-124487022D01*
X138924369Y-124491877D01*
X138929432Y-124502735D01*
X139059953Y-124689140D01*
X139220859Y-124850046D01*
X139381623Y-124962613D01*
X139420489Y-125006931D01*
X139434500Y-125064188D01*
X139434500Y-126902834D01*
X139420489Y-126960091D01*
X139381623Y-127004409D01*
X139330859Y-127039953D01*
X139169953Y-127200859D01*
X139039429Y-127387268D01*
X139032104Y-127402978D01*
X138986347Y-127455152D01*
X138919722Y-127474570D01*
X138853098Y-127455150D01*
X138807342Y-127402975D01*
X138800133Y-127387515D01*
X138749025Y-127314526D01*
X138023553Y-128039998D01*
X138023553Y-128039999D01*
X138749025Y-128765472D01*
X138800131Y-128692484D01*
X138807340Y-128677026D01*
X138853097Y-128624849D01*
X138919722Y-128605428D01*
X138986348Y-128624847D01*
X139032106Y-128677023D01*
X139039432Y-128692735D01*
X139169953Y-128879140D01*
X139330859Y-129040046D01*
X139517264Y-129170567D01*
X139517265Y-129170567D01*
X139517266Y-129170568D01*
X139723504Y-129266739D01*
X139943308Y-129325635D01*
X140170000Y-129345468D01*
X140396692Y-129325635D01*
X140616496Y-129266739D01*
X140822734Y-129170568D01*
X141009139Y-129040047D01*
X141170047Y-128879139D01*
X141249637Y-128765472D01*
X141282613Y-128718377D01*
X141326931Y-128679511D01*
X141384188Y-128665500D01*
X142130500Y-128665500D01*
X142192500Y-128682113D01*
X142237887Y-128727500D01*
X142254500Y-128789500D01*
X142254500Y-129698957D01*
X142252235Y-129719463D01*
X142254439Y-129789574D01*
X142254500Y-129793469D01*
X142254500Y-129821050D01*
X142255003Y-129825035D01*
X142255918Y-129836668D01*
X142257290Y-129880327D01*
X142262879Y-129899561D01*
X142266825Y-129918617D01*
X142269335Y-129938493D01*
X142285414Y-129979105D01*
X142289197Y-129990152D01*
X142301382Y-130032092D01*
X142311580Y-130049336D01*
X142320136Y-130066801D01*
X142327514Y-130085433D01*
X142327515Y-130085434D01*
X142353180Y-130120760D01*
X142359593Y-130130523D01*
X142381826Y-130168117D01*
X142381829Y-130168120D01*
X142381830Y-130168121D01*
X142395995Y-130182286D01*
X142408627Y-130197076D01*
X142420406Y-130213288D01*
X142454057Y-130241126D01*
X142462698Y-130248989D01*
X142518181Y-130304472D01*
X142545061Y-130344700D01*
X142554500Y-130392153D01*
X142554500Y-139283825D01*
X142538953Y-139343942D01*
X142496210Y-139388983D01*
X142436989Y-139407655D01*
X142376141Y-139395275D01*
X142328925Y-139354948D01*
X142270046Y-139270859D01*
X142109140Y-139109953D01*
X141922735Y-138979432D01*
X141716497Y-138883261D01*
X141496689Y-138824364D01*
X141270000Y-138804531D01*
X141043310Y-138824364D01*
X140823502Y-138883261D01*
X140617264Y-138979432D01*
X140430859Y-139109953D01*
X140269953Y-139270859D01*
X140157387Y-139431623D01*
X140113069Y-139470489D01*
X140055812Y-139484500D01*
X138526180Y-139484500D01*
X138468923Y-139470489D01*
X138424605Y-139431623D01*
X138340046Y-139310859D01*
X138179140Y-139149953D01*
X137992735Y-139019432D01*
X137786497Y-138923261D01*
X137566689Y-138864364D01*
X137340000Y-138844531D01*
X137113310Y-138864364D01*
X136893502Y-138923261D01*
X136687264Y-139019432D01*
X136500859Y-139149953D01*
X136339953Y-139310859D01*
X136209432Y-139497264D01*
X136113261Y-139703502D01*
X136054364Y-139923310D01*
X136034531Y-140149999D01*
X134703281Y-140149999D01*
X134685635Y-139948308D01*
X134626739Y-139728504D01*
X134530568Y-139522266D01*
X134529507Y-139520751D01*
X134400046Y-139335859D01*
X134239140Y-139174953D01*
X134052736Y-139044433D01*
X134052730Y-139044430D01*
X133994132Y-139017105D01*
X133941958Y-138971348D01*
X133922539Y-138904723D01*
X133941959Y-138838098D01*
X133994135Y-138792342D01*
X134052479Y-138765135D01*
X134238819Y-138634658D01*
X134399658Y-138473819D01*
X134530134Y-138287480D01*
X134626266Y-138081326D01*
X134678872Y-137885000D01*
X132121128Y-137885000D01*
X132173733Y-138081326D01*
X132269865Y-138287480D01*
X132400341Y-138473819D01*
X132561180Y-138634658D01*
X132747519Y-138765134D01*
X132805865Y-138792342D01*
X132858040Y-138838099D01*
X132877460Y-138904723D01*
X132858041Y-138971348D01*
X132805866Y-139017105D01*
X132747267Y-139044430D01*
X132560859Y-139174953D01*
X132399953Y-139335859D01*
X132269432Y-139522264D01*
X132173261Y-139728502D01*
X132114364Y-139948310D01*
X132094531Y-140175000D01*
X132114364Y-140401689D01*
X132173261Y-140621497D01*
X132269432Y-140827735D01*
X132399953Y-141014140D01*
X132560859Y-141175046D01*
X132729565Y-141293174D01*
X132747266Y-141305568D01*
X132805275Y-141332618D01*
X132857450Y-141378375D01*
X132876869Y-141445000D01*
X132857450Y-141511625D01*
X132805275Y-141557382D01*
X132747263Y-141584433D01*
X132560859Y-141714953D01*
X132399953Y-141875859D01*
X132269432Y-142062264D01*
X132173261Y-142268502D01*
X132114364Y-142488310D01*
X132094531Y-142715000D01*
X132114364Y-142941689D01*
X132173261Y-143161497D01*
X132269432Y-143367735D01*
X132399953Y-143554140D01*
X132560859Y-143715046D01*
X132691038Y-143806197D01*
X132747266Y-143845568D01*
X132805273Y-143872617D01*
X132857449Y-143918373D01*
X132876869Y-143984997D01*
X132857451Y-144051622D01*
X132805276Y-144097380D01*
X132747266Y-144124431D01*
X132560859Y-144254953D01*
X132399953Y-144415859D01*
X132269432Y-144602264D01*
X132173261Y-144808502D01*
X132114364Y-145028310D01*
X132094531Y-145255000D01*
X132114364Y-145481689D01*
X132173261Y-145701497D01*
X132269432Y-145907735D01*
X132399953Y-146094140D01*
X132560859Y-146255046D01*
X132658611Y-146323492D01*
X132747266Y-146385568D01*
X132805275Y-146412618D01*
X132857450Y-146458375D01*
X132876869Y-146525000D01*
X132857450Y-146591625D01*
X132805275Y-146637381D01*
X132792041Y-146643553D01*
X132747263Y-146664433D01*
X132560859Y-146794953D01*
X132399953Y-146955859D01*
X132269432Y-147142264D01*
X132173261Y-147348502D01*
X132114364Y-147568310D01*
X132094531Y-147795000D01*
X130165500Y-147795000D01*
X130165500Y-135095000D01*
X132094531Y-135095000D01*
X132114364Y-135321689D01*
X132173261Y-135541497D01*
X132269432Y-135747735D01*
X132399953Y-135934140D01*
X132560859Y-136095046D01*
X132747264Y-136225567D01*
X132747265Y-136225567D01*
X132747266Y-136225568D01*
X132805865Y-136252893D01*
X132858040Y-136298650D01*
X132877460Y-136365274D01*
X132858041Y-136431899D01*
X132805866Y-136477656D01*
X132747522Y-136504863D01*
X132561180Y-136635341D01*
X132400341Y-136796180D01*
X132269865Y-136982519D01*
X132173733Y-137188673D01*
X132121128Y-137384999D01*
X132121128Y-137385000D01*
X134678872Y-137385000D01*
X134678871Y-137384999D01*
X134626266Y-137188673D01*
X134530134Y-136982519D01*
X134399658Y-136796180D01*
X134238819Y-136635341D01*
X134052482Y-136504866D01*
X133994133Y-136477657D01*
X133941958Y-136431899D01*
X133922539Y-136365274D01*
X133941959Y-136298649D01*
X133994134Y-136252893D01*
X134052734Y-136225568D01*
X134239139Y-136095047D01*
X134400047Y-135934139D01*
X134530568Y-135747734D01*
X134626739Y-135541496D01*
X134685635Y-135321692D01*
X134697157Y-135190000D01*
X136154531Y-135190000D01*
X136174364Y-135416689D01*
X136233261Y-135636497D01*
X136329432Y-135842735D01*
X136459953Y-136029140D01*
X136620859Y-136190046D01*
X136807264Y-136320567D01*
X136807265Y-136320567D01*
X136807266Y-136320568D01*
X137013504Y-136416739D01*
X137233308Y-136475635D01*
X137384435Y-136488856D01*
X137459999Y-136495468D01*
X137459999Y-136495467D01*
X137460000Y-136495468D01*
X137686692Y-136475635D01*
X137906496Y-136416739D01*
X138112734Y-136320568D01*
X138186344Y-136269026D01*
X139234526Y-136269026D01*
X139307515Y-136320133D01*
X139513673Y-136416266D01*
X139733397Y-136475141D01*
X139960000Y-136494966D01*
X140186602Y-136475141D01*
X140406326Y-136416266D01*
X140612480Y-136320134D01*
X140685472Y-136269025D01*
X139960001Y-135543553D01*
X139960000Y-135543553D01*
X139234526Y-136269025D01*
X139234526Y-136269026D01*
X138186344Y-136269026D01*
X138299139Y-136190047D01*
X138460047Y-136029139D01*
X138590568Y-135842734D01*
X138597893Y-135827023D01*
X138643647Y-135774849D01*
X138710273Y-135755428D01*
X138776899Y-135774847D01*
X138822657Y-135827023D01*
X138829866Y-135842483D01*
X138880972Y-135915471D01*
X138880973Y-135915472D01*
X139606446Y-135189999D01*
X140313553Y-135189999D01*
X141039025Y-135915472D01*
X141090134Y-135842480D01*
X141186266Y-135636326D01*
X141245141Y-135416602D01*
X141264966Y-135189999D01*
X141245141Y-134963397D01*
X141186266Y-134743673D01*
X141090133Y-134537515D01*
X141039025Y-134464526D01*
X140313553Y-135189999D01*
X139606446Y-135189999D01*
X139606446Y-135189998D01*
X138880973Y-134464527D01*
X138829865Y-134537517D01*
X138822656Y-134552977D01*
X138776899Y-134605151D01*
X138710274Y-134624570D01*
X138643649Y-134605150D01*
X138597893Y-134552975D01*
X138590567Y-134537264D01*
X138460046Y-134350859D01*
X138299140Y-134189953D01*
X138186344Y-134110973D01*
X139234526Y-134110973D01*
X139960000Y-134836446D01*
X139960001Y-134836446D01*
X140685472Y-134110974D01*
X140685471Y-134110972D01*
X140612484Y-134059866D01*
X140406326Y-133963733D01*
X140186602Y-133904858D01*
X139960000Y-133885033D01*
X139733397Y-133904858D01*
X139513672Y-133963733D01*
X139307516Y-134059865D01*
X139234527Y-134110973D01*
X139234526Y-134110973D01*
X138186344Y-134110973D01*
X138112735Y-134059432D01*
X137906497Y-133963261D01*
X137686689Y-133904364D01*
X137460000Y-133884531D01*
X137233310Y-133904364D01*
X137013502Y-133963261D01*
X136807264Y-134059432D01*
X136620859Y-134189953D01*
X136459953Y-134350859D01*
X136329432Y-134537264D01*
X136233261Y-134743502D01*
X136174364Y-134963310D01*
X136154531Y-135190000D01*
X134697157Y-135190000D01*
X134705468Y-135095000D01*
X134685635Y-134868308D01*
X134626739Y-134648504D01*
X134530568Y-134442266D01*
X134523082Y-134431575D01*
X134400046Y-134255859D01*
X134239140Y-134094953D01*
X134052736Y-133964433D01*
X134050223Y-133963261D01*
X133994722Y-133937380D01*
X133942548Y-133891623D01*
X133923129Y-133824997D01*
X133942549Y-133758372D01*
X133994721Y-133712619D01*
X134052734Y-133685568D01*
X134239139Y-133555047D01*
X134400047Y-133394139D01*
X134530568Y-133207734D01*
X134626739Y-133001496D01*
X134685635Y-132781692D01*
X134705468Y-132555000D01*
X134685635Y-132328308D01*
X134626739Y-132108504D01*
X134530568Y-131902266D01*
X134529355Y-131900534D01*
X134400046Y-131715859D01*
X134239140Y-131554953D01*
X134052733Y-131424431D01*
X133994725Y-131397382D01*
X133942549Y-131351625D01*
X133923129Y-131285000D01*
X133942549Y-131218375D01*
X133994725Y-131172618D01*
X134052734Y-131145568D01*
X134239139Y-131015047D01*
X134400047Y-130854139D01*
X134530568Y-130667734D01*
X134626739Y-130461496D01*
X134685635Y-130241692D01*
X134705468Y-130015000D01*
X134685635Y-129788308D01*
X134626739Y-129568504D01*
X134530568Y-129362266D01*
X134523082Y-129351575D01*
X134400046Y-129175859D01*
X134343213Y-129119026D01*
X136944526Y-129119026D01*
X137017515Y-129170133D01*
X137223673Y-129266266D01*
X137443397Y-129325141D01*
X137670000Y-129344966D01*
X137896602Y-129325141D01*
X138116326Y-129266266D01*
X138322480Y-129170134D01*
X138395472Y-129119025D01*
X137670001Y-128393553D01*
X137670000Y-128393553D01*
X136944526Y-129119025D01*
X136944526Y-129119026D01*
X134343213Y-129119026D01*
X134239140Y-129014953D01*
X134052732Y-128884430D01*
X133994724Y-128857380D01*
X133942549Y-128811623D01*
X133923130Y-128744997D01*
X133942550Y-128678373D01*
X133994721Y-128632619D01*
X134052734Y-128605568D01*
X134239139Y-128475047D01*
X134400047Y-128314139D01*
X134530568Y-128127734D01*
X134571480Y-128039999D01*
X136365033Y-128039999D01*
X136384858Y-128266602D01*
X136443733Y-128486326D01*
X136539866Y-128692484D01*
X136590972Y-128765471D01*
X136590973Y-128765472D01*
X137316446Y-128040000D01*
X137316446Y-128039998D01*
X136590973Y-127314527D01*
X136539865Y-127387516D01*
X136443733Y-127593672D01*
X136384858Y-127813397D01*
X136365033Y-128039999D01*
X134571480Y-128039999D01*
X134626739Y-127921496D01*
X134685635Y-127701692D01*
X134705468Y-127475000D01*
X134685635Y-127248308D01*
X134626739Y-127028504D01*
X134595249Y-126960973D01*
X136944526Y-126960973D01*
X137670000Y-127686446D01*
X137670001Y-127686446D01*
X138395472Y-126960974D01*
X138395471Y-126960972D01*
X138322484Y-126909866D01*
X138116326Y-126813733D01*
X137896602Y-126754858D01*
X137670000Y-126735033D01*
X137443397Y-126754858D01*
X137223672Y-126813733D01*
X137017516Y-126909865D01*
X136944527Y-126960973D01*
X136944526Y-126960973D01*
X134595249Y-126960973D01*
X134530568Y-126822266D01*
X134524593Y-126813733D01*
X134400046Y-126635859D01*
X134239140Y-126474953D01*
X134052733Y-126344431D01*
X133994725Y-126317382D01*
X133942549Y-126271625D01*
X133923129Y-126205000D01*
X133942549Y-126138375D01*
X133994725Y-126092618D01*
X134052734Y-126065568D01*
X134239139Y-125935047D01*
X134400047Y-125774139D01*
X134530568Y-125587734D01*
X134626739Y-125381496D01*
X134685635Y-125161692D01*
X134705468Y-124935000D01*
X134704945Y-124929026D01*
X136834526Y-124929026D01*
X136907515Y-124980133D01*
X137113673Y-125076266D01*
X137333397Y-125135141D01*
X137560000Y-125154966D01*
X137786602Y-125135141D01*
X138006326Y-125076266D01*
X138212480Y-124980134D01*
X138285472Y-124929025D01*
X137560001Y-124203553D01*
X137560000Y-124203553D01*
X136834526Y-124929025D01*
X136834526Y-124929026D01*
X134704945Y-124929026D01*
X134685635Y-124708308D01*
X134626739Y-124488504D01*
X134530568Y-124282266D01*
X134523082Y-124271575D01*
X134400046Y-124095859D01*
X134239140Y-123934953D01*
X134117812Y-123849999D01*
X136255033Y-123849999D01*
X136274858Y-124076602D01*
X136333733Y-124296326D01*
X136429866Y-124502484D01*
X136480972Y-124575471D01*
X136480974Y-124575472D01*
X137206446Y-123850001D01*
X137206446Y-123850000D01*
X136480973Y-123124526D01*
X136480973Y-123124527D01*
X136429865Y-123197516D01*
X136333733Y-123403672D01*
X136274858Y-123623397D01*
X136255033Y-123849999D01*
X134117812Y-123849999D01*
X134052733Y-123804431D01*
X133994725Y-123777382D01*
X133942549Y-123731625D01*
X133923129Y-123665000D01*
X133942549Y-123598375D01*
X133994725Y-123552618D01*
X134052734Y-123525568D01*
X134239139Y-123395047D01*
X134400047Y-123234139D01*
X134530568Y-123047734D01*
X134626739Y-122841496D01*
X134645635Y-122770973D01*
X136834526Y-122770973D01*
X137560000Y-123496446D01*
X137560001Y-123496446D01*
X138285472Y-122770974D01*
X138285471Y-122770972D01*
X138212484Y-122719866D01*
X138006326Y-122623733D01*
X137786602Y-122564858D01*
X137560000Y-122545033D01*
X137333397Y-122564858D01*
X137113672Y-122623733D01*
X136907516Y-122719865D01*
X136834527Y-122770973D01*
X136834526Y-122770973D01*
X134645635Y-122770973D01*
X134685635Y-122621692D01*
X134705468Y-122395000D01*
X134685635Y-122168308D01*
X134626739Y-121948504D01*
X134530568Y-121742266D01*
X134523082Y-121731575D01*
X134400046Y-121555859D01*
X134239140Y-121394953D01*
X134052733Y-121264431D01*
X134011727Y-121245310D01*
X133994724Y-121237381D01*
X133942549Y-121191625D01*
X133923129Y-121125000D01*
X133942549Y-121058375D01*
X133994725Y-121012618D01*
X134052734Y-120985568D01*
X134239139Y-120855047D01*
X134400047Y-120694139D01*
X134501655Y-120549026D01*
X136864526Y-120549026D01*
X136937515Y-120600133D01*
X137143673Y-120696266D01*
X137363397Y-120755141D01*
X137590000Y-120774966D01*
X137816602Y-120755141D01*
X138036326Y-120696266D01*
X138242480Y-120600134D01*
X138315472Y-120549025D01*
X137590001Y-119823553D01*
X137590000Y-119823553D01*
X136864526Y-120549025D01*
X136864526Y-120549026D01*
X134501655Y-120549026D01*
X134530568Y-120507734D01*
X134626739Y-120301496D01*
X134685635Y-120081692D01*
X134705468Y-119855000D01*
X134685635Y-119628308D01*
X134643216Y-119469999D01*
X136285033Y-119469999D01*
X136304858Y-119696602D01*
X136363733Y-119916326D01*
X136459866Y-120122484D01*
X136510972Y-120195471D01*
X136510974Y-120195472D01*
X137236446Y-119470001D01*
X137236446Y-119470000D01*
X136510973Y-118744526D01*
X136510973Y-118744527D01*
X136459865Y-118817516D01*
X136363733Y-119023672D01*
X136304858Y-119243397D01*
X136285033Y-119469999D01*
X134643216Y-119469999D01*
X134626739Y-119408504D01*
X134530568Y-119202266D01*
X134527433Y-119197789D01*
X134400046Y-119015859D01*
X134239140Y-118854953D01*
X134052736Y-118724433D01*
X134038666Y-118717872D01*
X133994132Y-118697105D01*
X133941958Y-118651348D01*
X133922539Y-118584723D01*
X133941959Y-118518098D01*
X133994135Y-118472342D01*
X134052479Y-118445135D01*
X134129830Y-118390973D01*
X136864526Y-118390973D01*
X137590000Y-119116446D01*
X137590001Y-119116446D01*
X138315472Y-118390974D01*
X138315471Y-118390972D01*
X138242484Y-118339866D01*
X138036326Y-118243733D01*
X137816602Y-118184858D01*
X137590000Y-118165033D01*
X137363397Y-118184858D01*
X137143672Y-118243733D01*
X136937516Y-118339865D01*
X136864527Y-118390973D01*
X136864526Y-118390973D01*
X134129830Y-118390973D01*
X134238819Y-118314658D01*
X134399658Y-118153819D01*
X134530134Y-117967480D01*
X134626266Y-117761326D01*
X134678872Y-117565000D01*
X132121128Y-117565000D01*
X132173733Y-117761326D01*
X132269865Y-117967480D01*
X132400341Y-118153819D01*
X132561180Y-118314658D01*
X132747519Y-118445134D01*
X132805865Y-118472342D01*
X132858040Y-118518099D01*
X132877460Y-118584723D01*
X132858041Y-118651348D01*
X132805866Y-118697105D01*
X132747267Y-118724430D01*
X132560859Y-118854953D01*
X132399953Y-119015859D01*
X132269432Y-119202264D01*
X132173261Y-119408502D01*
X132114364Y-119628310D01*
X132094531Y-119855000D01*
X132114364Y-120081689D01*
X132173261Y-120301497D01*
X132269432Y-120507735D01*
X132399953Y-120694140D01*
X132560859Y-120855046D01*
X132719891Y-120966400D01*
X132747266Y-120985568D01*
X132805275Y-121012618D01*
X132857450Y-121058375D01*
X132876869Y-121125000D01*
X132857450Y-121191625D01*
X132805275Y-121237381D01*
X132784576Y-121247033D01*
X132747263Y-121264433D01*
X132560859Y-121394953D01*
X132399953Y-121555859D01*
X132269432Y-121742264D01*
X132173261Y-121948502D01*
X132114364Y-122168310D01*
X132094531Y-122395000D01*
X132114364Y-122621689D01*
X132173261Y-122841497D01*
X132269432Y-123047735D01*
X132399953Y-123234140D01*
X132560859Y-123395046D01*
X132688030Y-123484091D01*
X132747266Y-123525568D01*
X132805275Y-123552618D01*
X132857450Y-123598375D01*
X132876869Y-123665000D01*
X132857450Y-123731625D01*
X132805275Y-123777382D01*
X132747263Y-123804433D01*
X132560859Y-123934953D01*
X132399953Y-124095859D01*
X132269432Y-124282264D01*
X132173261Y-124488502D01*
X132114364Y-124708310D01*
X132094531Y-124935000D01*
X132114364Y-125161689D01*
X132173261Y-125381497D01*
X132269432Y-125587735D01*
X132399953Y-125774140D01*
X132560859Y-125935046D01*
X132747265Y-126065567D01*
X132747266Y-126065568D01*
X132805273Y-126092617D01*
X132857449Y-126138373D01*
X132876869Y-126204997D01*
X132857451Y-126271622D01*
X132805276Y-126317380D01*
X132747266Y-126344431D01*
X132560859Y-126474953D01*
X132399953Y-126635859D01*
X132269432Y-126822264D01*
X132173261Y-127028502D01*
X132114364Y-127248310D01*
X132094531Y-127475000D01*
X132114364Y-127701689D01*
X132173261Y-127921497D01*
X132269432Y-128127735D01*
X132399953Y-128314140D01*
X132560859Y-128475046D01*
X132747066Y-128605428D01*
X132747266Y-128605568D01*
X132805275Y-128632618D01*
X132857450Y-128678375D01*
X132876869Y-128745000D01*
X132857450Y-128811625D01*
X132805275Y-128857382D01*
X132747263Y-128884433D01*
X132560859Y-129014953D01*
X132399953Y-129175859D01*
X132269432Y-129362264D01*
X132173261Y-129568502D01*
X132114364Y-129788310D01*
X132094531Y-130015000D01*
X132114364Y-130241689D01*
X132173261Y-130461497D01*
X132269432Y-130667735D01*
X132399953Y-130854140D01*
X132560859Y-131015046D01*
X132688376Y-131104333D01*
X132747266Y-131145568D01*
X132805275Y-131172618D01*
X132857450Y-131218375D01*
X132876869Y-131285000D01*
X132857450Y-131351625D01*
X132805275Y-131397382D01*
X132747263Y-131424433D01*
X132560859Y-131554953D01*
X132399953Y-131715859D01*
X132269432Y-131902264D01*
X132173261Y-132108502D01*
X132114364Y-132328310D01*
X132094531Y-132555000D01*
X132114364Y-132781689D01*
X132173261Y-133001497D01*
X132269432Y-133207735D01*
X132399953Y-133394140D01*
X132560859Y-133555046D01*
X132747263Y-133685566D01*
X132747266Y-133685568D01*
X132805275Y-133712618D01*
X132857450Y-133758375D01*
X132876869Y-133825000D01*
X132857450Y-133891625D01*
X132805275Y-133937382D01*
X132747263Y-133964433D01*
X132560859Y-134094953D01*
X132399953Y-134255859D01*
X132269432Y-134442264D01*
X132173261Y-134648502D01*
X132114364Y-134868310D01*
X132094531Y-135095000D01*
X130165500Y-135095000D01*
X130165500Y-115504263D01*
X130173736Y-115459825D01*
X130197350Y-115421290D01*
X130232533Y-115382216D01*
X130327179Y-115218284D01*
X130385674Y-115038256D01*
X130405460Y-114850000D01*
X130397577Y-114775000D01*
X132094531Y-114775000D01*
X132114364Y-115001689D01*
X132173261Y-115221497D01*
X132269432Y-115427735D01*
X132399953Y-115614140D01*
X132560859Y-115775046D01*
X132747264Y-115905567D01*
X132747265Y-115905567D01*
X132747266Y-115905568D01*
X132805865Y-115932893D01*
X132858040Y-115978650D01*
X132877460Y-116045274D01*
X132858041Y-116111899D01*
X132805866Y-116157656D01*
X132747522Y-116184863D01*
X132561180Y-116315341D01*
X132400341Y-116476180D01*
X132269865Y-116662519D01*
X132173733Y-116868673D01*
X132121128Y-117064999D01*
X132121128Y-117065000D01*
X134678872Y-117065000D01*
X134678871Y-117064999D01*
X134626266Y-116868673D01*
X134530134Y-116662519D01*
X134399658Y-116476180D01*
X134238819Y-116315341D01*
X134052482Y-116184866D01*
X133994133Y-116157657D01*
X133941958Y-116111899D01*
X133922539Y-116045274D01*
X133941959Y-115978649D01*
X133994134Y-115932893D01*
X134052734Y-115905568D01*
X134239139Y-115775047D01*
X134400047Y-115614139D01*
X134530568Y-115427734D01*
X134626739Y-115221496D01*
X134685635Y-115001692D01*
X134705468Y-114775000D01*
X134685635Y-114548308D01*
X134626739Y-114328504D01*
X134530568Y-114122266D01*
X134468672Y-114033869D01*
X134400046Y-113935859D01*
X134239140Y-113774953D01*
X134052735Y-113644432D01*
X133846497Y-113548261D01*
X133626689Y-113489364D01*
X133400000Y-113469531D01*
X133173310Y-113489364D01*
X132953502Y-113548261D01*
X132747264Y-113644432D01*
X132560859Y-113774953D01*
X132399953Y-113935859D01*
X132269432Y-114122264D01*
X132173261Y-114328502D01*
X132114364Y-114548310D01*
X132094531Y-114775000D01*
X130397577Y-114775000D01*
X130385674Y-114661744D01*
X130339618Y-114519999D01*
X130327179Y-114481715D01*
X130232533Y-114317783D01*
X130105870Y-114177110D01*
X129952730Y-114065848D01*
X129779802Y-113988855D01*
X129594648Y-113949500D01*
X129594646Y-113949500D01*
X129405354Y-113949500D01*
X129405352Y-113949500D01*
X129220197Y-113988855D01*
X129047269Y-114065848D01*
X129042385Y-114069397D01*
X128979229Y-114092697D01*
X128913205Y-114079564D01*
X128863773Y-114033869D01*
X128845500Y-113969079D01*
X128845500Y-112509026D01*
X130674526Y-112509026D01*
X130747515Y-112560133D01*
X130953673Y-112656266D01*
X131173397Y-112715141D01*
X131400000Y-112734966D01*
X131626602Y-112715141D01*
X131846326Y-112656266D01*
X132052480Y-112560134D01*
X132125472Y-112509025D01*
X131400001Y-111783553D01*
X131400000Y-111783553D01*
X130674526Y-112509025D01*
X130674526Y-112509026D01*
X128845500Y-112509026D01*
X128845500Y-111429999D01*
X130095033Y-111429999D01*
X130114858Y-111656602D01*
X130173733Y-111876326D01*
X130269866Y-112082484D01*
X130320972Y-112155471D01*
X130320974Y-112155472D01*
X131046446Y-111430001D01*
X131753553Y-111430001D01*
X132479025Y-112155472D01*
X132530131Y-112082484D01*
X132537340Y-112067026D01*
X132583097Y-112014849D01*
X132649722Y-111995428D01*
X132716348Y-112014847D01*
X132762106Y-112067023D01*
X132769432Y-112082735D01*
X132899953Y-112269140D01*
X133060859Y-112430046D01*
X133247264Y-112560567D01*
X133247265Y-112560567D01*
X133247266Y-112560568D01*
X133453504Y-112656739D01*
X133673308Y-112715635D01*
X133900000Y-112735468D01*
X134126692Y-112715635D01*
X134346496Y-112656739D01*
X134552734Y-112560568D01*
X134739139Y-112430047D01*
X134900047Y-112269139D01*
X135030568Y-112082734D01*
X135126739Y-111876496D01*
X135185635Y-111656692D01*
X135205468Y-111430000D01*
X135185635Y-111203308D01*
X135126739Y-110983504D01*
X135030568Y-110777266D01*
X135013237Y-110752515D01*
X134900046Y-110590859D01*
X134739140Y-110429953D01*
X134552735Y-110299432D01*
X134346497Y-110203261D01*
X134126689Y-110144364D01*
X133900000Y-110124531D01*
X133673310Y-110144364D01*
X133453502Y-110203261D01*
X133247264Y-110299432D01*
X133060859Y-110429953D01*
X132899953Y-110590859D01*
X132769429Y-110777268D01*
X132762104Y-110792978D01*
X132716347Y-110845152D01*
X132649722Y-110864570D01*
X132583098Y-110845150D01*
X132537342Y-110792975D01*
X132530133Y-110777515D01*
X132479025Y-110704526D01*
X131753553Y-111430000D01*
X131753553Y-111430001D01*
X131046446Y-111430001D01*
X131046446Y-111430000D01*
X130320973Y-110704526D01*
X130320973Y-110704527D01*
X130269865Y-110777516D01*
X130173733Y-110983672D01*
X130114858Y-111203397D01*
X130095033Y-111429999D01*
X128845500Y-111429999D01*
X128845500Y-110350973D01*
X130674526Y-110350973D01*
X131400000Y-111076446D01*
X131400001Y-111076446D01*
X132125472Y-110350974D01*
X132125471Y-110350972D01*
X132052484Y-110299866D01*
X131846326Y-110203733D01*
X131626602Y-110144858D01*
X131400000Y-110125033D01*
X131173397Y-110144858D01*
X130953672Y-110203733D01*
X130747516Y-110299865D01*
X130674527Y-110350973D01*
X130674526Y-110350973D01*
X128845500Y-110350973D01*
X128845500Y-106710000D01*
X136574540Y-106710000D01*
X136584433Y-106804128D01*
X136594326Y-106898257D01*
X136652820Y-107078284D01*
X136747466Y-107242216D01*
X136874129Y-107382889D01*
X137027265Y-107494149D01*
X137041595Y-107500529D01*
X137190938Y-107567021D01*
X137229698Y-107594162D01*
X137255471Y-107633849D01*
X137264500Y-107680300D01*
X137264500Y-110513055D01*
X137252595Y-110566072D01*
X137219165Y-110608908D01*
X137161353Y-110656352D01*
X137033201Y-110812506D01*
X136937978Y-110990656D01*
X136879337Y-111183968D01*
X136864500Y-111334621D01*
X136864500Y-111885379D01*
X136879337Y-112036031D01*
X136893505Y-112082735D01*
X136933261Y-112213795D01*
X136937978Y-112229343D01*
X136959250Y-112269140D01*
X137033202Y-112407494D01*
X137051710Y-112430046D01*
X137161352Y-112563647D01*
X137239429Y-112627722D01*
X137317506Y-112691798D01*
X137495659Y-112787023D01*
X137688967Y-112845662D01*
X137890000Y-112865462D01*
X138091033Y-112845662D01*
X138284341Y-112787023D01*
X138462494Y-112691798D01*
X138462495Y-112691797D01*
X138467077Y-112689348D01*
X138525530Y-112674706D01*
X138583984Y-112689348D01*
X138765850Y-112786558D01*
X138910000Y-112830285D01*
X138910000Y-111947315D01*
X138910597Y-111935161D01*
X138915500Y-111885380D01*
X138915500Y-111334620D01*
X138910597Y-111284839D01*
X138910000Y-111272685D01*
X138910000Y-110389715D01*
X138765847Y-110433442D01*
X138697953Y-110469733D01*
X138636457Y-110484338D01*
X138575751Y-110466733D01*
X138531609Y-110421494D01*
X138515500Y-110360375D01*
X138515500Y-107202744D01*
X138517764Y-107182236D01*
X138515561Y-107112113D01*
X138515500Y-107108219D01*
X138515500Y-107080654D01*
X138515500Y-107080650D01*
X138514997Y-107076670D01*
X138514081Y-107065028D01*
X138512710Y-107021373D01*
X138507118Y-107002126D01*
X138503174Y-106983085D01*
X138500664Y-106963208D01*
X138484579Y-106922583D01*
X138480808Y-106911568D01*
X138468618Y-106869610D01*
X138458414Y-106852355D01*
X138449861Y-106834895D01*
X138442486Y-106816269D01*
X138442486Y-106816268D01*
X138416808Y-106780925D01*
X138410403Y-106771175D01*
X138401650Y-106756374D01*
X138385062Y-106706220D01*
X138365674Y-106521744D01*
X138307179Y-106341716D01*
X138307179Y-106341715D01*
X138212533Y-106177783D01*
X138085870Y-106037110D01*
X137932730Y-105925848D01*
X137759802Y-105848855D01*
X137574648Y-105809500D01*
X137574646Y-105809500D01*
X137385354Y-105809500D01*
X137385352Y-105809500D01*
X137200197Y-105848855D01*
X137027269Y-105925848D01*
X136874129Y-106037110D01*
X136747466Y-106177783D01*
X136652820Y-106341715D01*
X136594326Y-106521742D01*
X136594325Y-106521744D01*
X136594326Y-106521744D01*
X136574540Y-106710000D01*
X128845500Y-106710000D01*
X128845500Y-106421519D01*
X128862977Y-106358045D01*
X128910480Y-106312465D01*
X129043509Y-106240474D01*
X129090872Y-106203610D01*
X132599942Y-106203610D01*
X132646766Y-106240055D01*
X132865393Y-106358368D01*
X133100506Y-106439083D01*
X133345707Y-106480000D01*
X133594293Y-106480000D01*
X133839493Y-106439083D01*
X134074606Y-106358368D01*
X134293233Y-106240053D01*
X134340056Y-106203609D01*
X133470000Y-105333553D01*
X132599942Y-106203609D01*
X132599942Y-106203610D01*
X129090872Y-106203610D01*
X129239744Y-106087738D01*
X129408164Y-105904785D01*
X129544173Y-105696607D01*
X129644063Y-105468881D01*
X129705108Y-105227821D01*
X129725643Y-104980000D01*
X131964858Y-104980000D01*
X131985386Y-105227732D01*
X132046413Y-105468721D01*
X132146268Y-105696370D01*
X132246563Y-105849882D01*
X132246564Y-105849882D01*
X133116447Y-104980001D01*
X133823553Y-104980001D01*
X134693434Y-105849882D01*
X134793730Y-105696369D01*
X134893586Y-105468721D01*
X134954613Y-105227732D01*
X134975141Y-104979999D01*
X134964369Y-104849999D01*
X138174356Y-104849999D01*
X138194891Y-105097816D01*
X138194891Y-105097819D01*
X138194892Y-105097821D01*
X138255937Y-105338881D01*
X138277669Y-105388425D01*
X138355825Y-105566604D01*
X138355827Y-105566607D01*
X138491836Y-105774785D01*
X138660256Y-105957738D01*
X138660259Y-105957740D01*
X138856485Y-106110470D01*
X138856487Y-106110471D01*
X138856491Y-106110474D01*
X139075190Y-106228828D01*
X139310386Y-106309571D01*
X139555665Y-106350500D01*
X139804335Y-106350500D01*
X140049614Y-106309571D01*
X140284810Y-106228828D01*
X140503509Y-106110474D01*
X140550872Y-106073610D01*
X144059942Y-106073610D01*
X144106766Y-106110055D01*
X144325393Y-106228368D01*
X144560506Y-106309083D01*
X144805707Y-106350000D01*
X145054293Y-106350000D01*
X145299493Y-106309083D01*
X145534606Y-106228368D01*
X145753233Y-106110053D01*
X145800056Y-106073609D01*
X144930000Y-105203553D01*
X144059942Y-106073609D01*
X144059942Y-106073610D01*
X140550872Y-106073610D01*
X140699744Y-105957738D01*
X140868164Y-105774785D01*
X141004173Y-105566607D01*
X141104063Y-105338881D01*
X141165108Y-105097821D01*
X141185643Y-104850000D01*
X141185643Y-104849999D01*
X143424858Y-104849999D01*
X143445386Y-105097732D01*
X143506413Y-105338721D01*
X143606268Y-105566370D01*
X143706563Y-105719882D01*
X143706564Y-105719882D01*
X144576447Y-104850001D01*
X144576447Y-104850000D01*
X145283553Y-104850000D01*
X146153434Y-105719882D01*
X146253730Y-105566369D01*
X146353586Y-105338721D01*
X146414613Y-105097732D01*
X146435141Y-104849999D01*
X146414613Y-104602267D01*
X146353586Y-104361278D01*
X146253730Y-104133630D01*
X146153434Y-103980116D01*
X145283553Y-104850000D01*
X144576447Y-104850000D01*
X143706564Y-103980116D01*
X143606266Y-104133634D01*
X143506413Y-104361278D01*
X143445386Y-104602267D01*
X143424858Y-104849999D01*
X141185643Y-104849999D01*
X141165108Y-104602179D01*
X141104063Y-104361119D01*
X141004173Y-104133393D01*
X140868164Y-103925215D01*
X140699744Y-103742262D01*
X140670533Y-103719526D01*
X140550873Y-103626390D01*
X144059942Y-103626390D01*
X144930000Y-104496447D01*
X144930001Y-104496447D01*
X145800057Y-103626390D01*
X145800056Y-103626388D01*
X145753235Y-103589947D01*
X145534606Y-103471631D01*
X145299493Y-103390916D01*
X145054293Y-103350000D01*
X144805707Y-103350000D01*
X144560506Y-103390916D01*
X144325393Y-103471631D01*
X144106764Y-103589946D01*
X144059942Y-103626388D01*
X144059942Y-103626390D01*
X140550873Y-103626390D01*
X140503514Y-103589529D01*
X140503510Y-103589526D01*
X140503509Y-103589526D01*
X140284810Y-103471172D01*
X140284806Y-103471170D01*
X140284805Y-103471170D01*
X140049615Y-103390429D01*
X139804335Y-103349500D01*
X139555665Y-103349500D01*
X139310384Y-103390429D01*
X139075194Y-103471170D01*
X139075190Y-103471171D01*
X139075190Y-103471172D01*
X138987710Y-103518513D01*
X138856485Y-103589529D01*
X138660259Y-103742259D01*
X138660256Y-103742261D01*
X138660256Y-103742262D01*
X138540583Y-103872262D01*
X138491837Y-103925214D01*
X138355825Y-104133395D01*
X138298698Y-104263634D01*
X138255937Y-104361119D01*
X138222976Y-104491278D01*
X138194891Y-104602183D01*
X138174356Y-104849999D01*
X134964369Y-104849999D01*
X134954613Y-104732267D01*
X134893586Y-104491278D01*
X134793730Y-104263630D01*
X134693434Y-104110116D01*
X133823553Y-104980000D01*
X133823553Y-104980001D01*
X133116447Y-104980001D01*
X133116447Y-104979999D01*
X132246564Y-104110116D01*
X132146266Y-104263634D01*
X132046413Y-104491278D01*
X131985386Y-104732267D01*
X131964858Y-104980000D01*
X129725643Y-104980000D01*
X129705108Y-104732179D01*
X129644063Y-104491119D01*
X129544173Y-104263393D01*
X129408164Y-104055215D01*
X129239744Y-103872262D01*
X129217612Y-103855036D01*
X129090873Y-103756390D01*
X132599942Y-103756390D01*
X133470000Y-104626447D01*
X133470001Y-104626447D01*
X134340057Y-103756390D01*
X134340056Y-103756388D01*
X134293235Y-103719947D01*
X134074606Y-103601631D01*
X133839493Y-103520916D01*
X133594293Y-103480000D01*
X133345707Y-103480000D01*
X133100506Y-103520916D01*
X132865393Y-103601631D01*
X132646764Y-103719946D01*
X132599942Y-103756388D01*
X132599942Y-103756390D01*
X129090873Y-103756390D01*
X129043514Y-103719529D01*
X129043510Y-103719526D01*
X129043509Y-103719526D01*
X128824810Y-103601172D01*
X128824806Y-103601170D01*
X128824805Y-103601170D01*
X128589615Y-103520429D01*
X128344335Y-103479500D01*
X128095665Y-103479500D01*
X127850384Y-103520429D01*
X127615194Y-103601170D01*
X127615190Y-103601171D01*
X127615190Y-103601172D01*
X127568595Y-103626388D01*
X127396485Y-103719529D01*
X127200259Y-103872259D01*
X127200256Y-103872261D01*
X127200256Y-103872262D01*
X127078438Y-104004592D01*
X127031837Y-104055214D01*
X126895825Y-104263395D01*
X126805780Y-104468678D01*
X126795937Y-104491119D01*
X126761667Y-104626447D01*
X126734891Y-104732183D01*
X126714356Y-104980000D01*
X126734891Y-105227816D01*
X126734891Y-105227819D01*
X126734892Y-105227821D01*
X126795937Y-105468881D01*
X126805201Y-105490000D01*
X126895825Y-105696604D01*
X126895827Y-105696607D01*
X127031836Y-105904785D01*
X127200256Y-106087738D01*
X127228929Y-106110055D01*
X127396485Y-106240470D01*
X127396487Y-106240471D01*
X127396491Y-106240474D01*
X127529519Y-106312465D01*
X127577023Y-106358045D01*
X127594500Y-106421519D01*
X127594500Y-139964548D01*
X127585061Y-140012001D01*
X127558181Y-140052229D01*
X127292819Y-140317590D01*
X127241392Y-140348491D01*
X127181477Y-140351631D01*
X127127102Y-140326275D01*
X127090995Y-140278359D01*
X127081610Y-140219101D01*
X127085468Y-140174999D01*
X127071147Y-140011316D01*
X127065635Y-139948308D01*
X127006739Y-139728504D01*
X126910568Y-139522266D01*
X126909507Y-139520751D01*
X126780046Y-139335859D01*
X126619140Y-139174953D01*
X126432733Y-139044431D01*
X126391727Y-139025310D01*
X126374724Y-139017381D01*
X126322549Y-138971625D01*
X126303129Y-138905000D01*
X126322549Y-138838375D01*
X126374725Y-138792618D01*
X126375317Y-138792342D01*
X126432734Y-138765568D01*
X126619139Y-138635047D01*
X126780047Y-138474139D01*
X126910568Y-138287734D01*
X127006739Y-138081496D01*
X127065635Y-137861692D01*
X127085468Y-137635000D01*
X127065635Y-137408308D01*
X127006739Y-137188504D01*
X126910568Y-136982266D01*
X126903082Y-136971575D01*
X126780046Y-136795859D01*
X126619140Y-136634953D01*
X126432733Y-136504431D01*
X126374725Y-136477382D01*
X126322549Y-136431625D01*
X126303129Y-136365000D01*
X126322549Y-136298375D01*
X126374725Y-136252618D01*
X126432734Y-136225568D01*
X126619139Y-136095047D01*
X126780047Y-135934139D01*
X126910568Y-135747734D01*
X127006739Y-135541496D01*
X127065635Y-135321692D01*
X127085468Y-135095000D01*
X127065635Y-134868308D01*
X127006739Y-134648504D01*
X126910568Y-134442266D01*
X126903082Y-134431575D01*
X126780046Y-134255859D01*
X126619140Y-134094953D01*
X126432736Y-133964433D01*
X126430223Y-133963261D01*
X126374132Y-133937105D01*
X126321958Y-133891348D01*
X126302539Y-133824723D01*
X126321959Y-133758098D01*
X126374135Y-133712342D01*
X126432479Y-133685135D01*
X126618819Y-133554658D01*
X126779658Y-133393819D01*
X126910134Y-133207480D01*
X127006266Y-133001326D01*
X127058872Y-132805000D01*
X124501128Y-132805000D01*
X124553733Y-133001326D01*
X124649865Y-133207480D01*
X124780341Y-133393819D01*
X124941180Y-133554658D01*
X125127519Y-133685134D01*
X125185865Y-133712342D01*
X125238040Y-133758099D01*
X125257460Y-133824723D01*
X125238041Y-133891348D01*
X125185866Y-133937105D01*
X125127267Y-133964430D01*
X124940859Y-134094953D01*
X124779953Y-134255859D01*
X124649432Y-134442264D01*
X124553261Y-134648502D01*
X124494364Y-134868310D01*
X124474531Y-135095000D01*
X124494364Y-135321689D01*
X124553261Y-135541497D01*
X124649432Y-135747735D01*
X124779953Y-135934140D01*
X124940859Y-136095046D01*
X125076535Y-136190046D01*
X125127266Y-136225568D01*
X125185275Y-136252618D01*
X125237450Y-136298375D01*
X125256869Y-136365000D01*
X125237450Y-136431625D01*
X125185275Y-136477382D01*
X125127263Y-136504433D01*
X124940859Y-136634953D01*
X124779953Y-136795859D01*
X124649432Y-136982264D01*
X124553261Y-137188502D01*
X124494364Y-137408310D01*
X124474531Y-137635000D01*
X124494364Y-137861689D01*
X124553261Y-138081497D01*
X124649432Y-138287735D01*
X124779953Y-138474140D01*
X124940859Y-138635046D01*
X125127263Y-138765566D01*
X125127266Y-138765568D01*
X125184683Y-138792342D01*
X125185275Y-138792618D01*
X125237450Y-138838375D01*
X125256869Y-138905000D01*
X125237450Y-138971625D01*
X125185275Y-139017381D01*
X125164576Y-139027033D01*
X125127263Y-139044433D01*
X124940859Y-139174953D01*
X124779953Y-139335859D01*
X124649432Y-139522264D01*
X124553261Y-139728502D01*
X124494364Y-139948310D01*
X124474531Y-140175000D01*
X124494364Y-140401689D01*
X124553261Y-140621497D01*
X124649432Y-140827735D01*
X124779953Y-141014140D01*
X124940859Y-141175046D01*
X125109565Y-141293174D01*
X125127266Y-141305568D01*
X125185275Y-141332618D01*
X125237450Y-141378375D01*
X125256869Y-141445000D01*
X125237450Y-141511625D01*
X125185275Y-141557382D01*
X125127263Y-141584433D01*
X124940859Y-141714953D01*
X124779953Y-141875859D01*
X124649432Y-142062264D01*
X124553261Y-142268502D01*
X124494364Y-142488310D01*
X124474531Y-142715000D01*
X124490374Y-142896086D01*
X124480989Y-142955344D01*
X124444882Y-143003259D01*
X124390506Y-143028615D01*
X124330592Y-143025475D01*
X124279165Y-142994574D01*
X123828960Y-142544369D01*
X123804720Y-142510071D01*
X123793321Y-142469655D01*
X123775674Y-142301744D01*
X123745332Y-142208363D01*
X123717179Y-142121715D01*
X123622533Y-141957783D01*
X123495870Y-141817110D01*
X123342730Y-141705848D01*
X123169802Y-141628855D01*
X122984648Y-141589500D01*
X122984646Y-141589500D01*
X122795354Y-141589500D01*
X122795352Y-141589500D01*
X122610197Y-141628855D01*
X122437269Y-141705848D01*
X122284129Y-141817110D01*
X122157466Y-141957783D01*
X122062820Y-142121715D01*
X122004326Y-142301742D01*
X121997212Y-142369432D01*
X121984540Y-142490000D01*
X121987688Y-142519953D01*
X122004326Y-142678257D01*
X122062820Y-142858284D01*
X122157466Y-143022216D01*
X122284129Y-143162889D01*
X122437269Y-143274151D01*
X122610197Y-143351144D01*
X122795352Y-143390500D01*
X122795354Y-143390500D01*
X122854548Y-143390500D01*
X122902001Y-143399939D01*
X122942228Y-143426818D01*
X123340845Y-143825436D01*
X123739196Y-144223787D01*
X123752096Y-144239888D01*
X123803223Y-144287900D01*
X123806020Y-144290611D01*
X123825529Y-144310120D01*
X123828711Y-144312588D01*
X123837571Y-144320155D01*
X123857786Y-144339139D01*
X123869418Y-144350062D01*
X123886970Y-144359711D01*
X123903238Y-144370397D01*
X123919064Y-144382673D01*
X123959146Y-144400017D01*
X123969633Y-144405155D01*
X124007907Y-144426197D01*
X124016410Y-144428379D01*
X124027308Y-144431178D01*
X124045713Y-144437478D01*
X124064104Y-144445437D01*
X124107250Y-144452270D01*
X124118668Y-144454635D01*
X124160981Y-144465500D01*
X124181016Y-144465500D01*
X124200415Y-144467027D01*
X124220196Y-144470160D01*
X124263674Y-144466050D01*
X124275344Y-144465500D01*
X124518566Y-144465500D01*
X124578209Y-144480786D01*
X124623147Y-144522875D01*
X124642301Y-144581390D01*
X124630948Y-144641904D01*
X124628310Y-144647562D01*
X124553261Y-144808502D01*
X124494364Y-145028310D01*
X124474531Y-145255000D01*
X124494364Y-145481689D01*
X124553261Y-145701497D01*
X124649432Y-145907735D01*
X124779953Y-146094140D01*
X124940859Y-146255046D01*
X125038611Y-146323492D01*
X125127266Y-146385568D01*
X125185275Y-146412618D01*
X125237450Y-146458375D01*
X125256869Y-146525000D01*
X125237450Y-146591625D01*
X125185275Y-146637381D01*
X125172041Y-146643553D01*
X125127263Y-146664433D01*
X124940859Y-146794953D01*
X124779953Y-146955859D01*
X124649432Y-147142264D01*
X124553261Y-147348502D01*
X124494364Y-147568310D01*
X124474531Y-147795000D01*
X124494364Y-148021689D01*
X124553261Y-148241497D01*
X124649432Y-148447735D01*
X124779953Y-148634140D01*
X124940859Y-148795046D01*
X125127264Y-148925567D01*
X125127265Y-148925567D01*
X125127266Y-148925568D01*
X125333504Y-149021739D01*
X125553308Y-149080635D01*
X125780000Y-149100468D01*
X126006692Y-149080635D01*
X126226496Y-149021739D01*
X126432734Y-148925568D01*
X126619139Y-148795047D01*
X126780047Y-148634139D01*
X126910568Y-148447734D01*
X127006739Y-148241496D01*
X127065635Y-148021692D01*
X127070333Y-147967997D01*
X127091060Y-147909464D01*
X127137566Y-147868319D01*
X127198189Y-147854880D01*
X127257726Y-147872515D01*
X127301248Y-147916804D01*
X127327466Y-147962216D01*
X127454129Y-148102889D01*
X127607269Y-148214151D01*
X127780197Y-148291144D01*
X127965352Y-148330500D01*
X127965354Y-148330500D01*
X128154646Y-148330500D01*
X128154648Y-148330500D01*
X128278084Y-148304262D01*
X128339803Y-148291144D01*
X128512730Y-148214151D01*
X128512730Y-148214150D01*
X128665870Y-148102889D01*
X128698350Y-148066817D01*
X128747277Y-148033566D01*
X128806042Y-148026767D01*
X128861269Y-148047967D01*
X128900389Y-148092340D01*
X128914500Y-148149789D01*
X128914500Y-148571313D01*
X128906264Y-148615751D01*
X128882652Y-148654282D01*
X128849545Y-148691051D01*
X128807464Y-148737786D01*
X128712820Y-148901715D01*
X128654326Y-149081742D01*
X128634540Y-149270000D01*
X128654326Y-149458257D01*
X128712820Y-149638284D01*
X128813981Y-149813500D01*
X128830594Y-149875500D01*
X128813981Y-149937500D01*
X128768594Y-149982887D01*
X128706594Y-149999500D01*
X100124500Y-149999500D01*
X100062500Y-149982887D01*
X100017113Y-149937500D01*
X100000500Y-149875500D01*
X100000500Y-147369026D01*
X119034526Y-147369026D01*
X119107515Y-147420133D01*
X119313673Y-147516266D01*
X119533397Y-147575141D01*
X119760000Y-147594966D01*
X119986602Y-147575141D01*
X120206326Y-147516266D01*
X120412480Y-147420134D01*
X120485472Y-147369025D01*
X119760001Y-146643553D01*
X119760000Y-146643553D01*
X119034526Y-147369025D01*
X119034526Y-147369026D01*
X100000500Y-147369026D01*
X100000500Y-146110000D01*
X101629364Y-146110000D01*
X101686569Y-146323492D01*
X101786399Y-146537576D01*
X101921893Y-146731081D01*
X102088918Y-146898106D01*
X102282423Y-147033600D01*
X102496507Y-147133430D01*
X102709999Y-147190635D01*
X102710000Y-147190636D01*
X102710000Y-146110000D01*
X103210000Y-146110000D01*
X103210000Y-147190635D01*
X103423492Y-147133430D01*
X103637576Y-147033600D01*
X103831081Y-146898106D01*
X103998106Y-146731081D01*
X104133600Y-146537576D01*
X104233430Y-146323492D01*
X104242404Y-146290000D01*
X118455033Y-146290000D01*
X118474858Y-146516602D01*
X118533733Y-146736326D01*
X118629866Y-146942484D01*
X118680972Y-147015471D01*
X118680974Y-147015472D01*
X119406446Y-146290001D01*
X120113553Y-146290001D01*
X120839025Y-147015472D01*
X120890131Y-146942484D01*
X120897340Y-146927026D01*
X120943097Y-146874849D01*
X121009722Y-146855428D01*
X121076348Y-146874847D01*
X121122105Y-146927022D01*
X121124369Y-146931877D01*
X121129432Y-146942735D01*
X121259953Y-147129140D01*
X121420859Y-147290046D01*
X121607264Y-147420567D01*
X121607265Y-147420567D01*
X121607266Y-147420568D01*
X121813504Y-147516739D01*
X122033308Y-147575635D01*
X122260000Y-147595468D01*
X122486692Y-147575635D01*
X122706496Y-147516739D01*
X122912734Y-147420568D01*
X123099139Y-147290047D01*
X123260047Y-147129139D01*
X123390568Y-146942734D01*
X123486739Y-146736496D01*
X123545635Y-146516692D01*
X123565468Y-146290000D01*
X123545635Y-146063308D01*
X123486739Y-145843504D01*
X123390568Y-145637266D01*
X123371476Y-145610000D01*
X123260046Y-145450859D01*
X123099140Y-145289953D01*
X122912735Y-145159432D01*
X122706497Y-145063261D01*
X122486689Y-145004364D01*
X122260000Y-144984531D01*
X122033310Y-145004364D01*
X121813502Y-145063261D01*
X121607264Y-145159432D01*
X121420859Y-145289953D01*
X121259953Y-145450859D01*
X121129429Y-145637268D01*
X121122104Y-145652978D01*
X121076347Y-145705152D01*
X121009722Y-145724570D01*
X120943098Y-145705150D01*
X120897342Y-145652975D01*
X120890133Y-145637515D01*
X120839025Y-145564526D01*
X120113553Y-146290000D01*
X120113553Y-146290001D01*
X119406446Y-146290001D01*
X119406446Y-146290000D01*
X118680973Y-145564526D01*
X118680973Y-145564527D01*
X118629865Y-145637516D01*
X118533733Y-145843672D01*
X118474858Y-146063397D01*
X118455033Y-146290000D01*
X104242404Y-146290000D01*
X104290636Y-146110000D01*
X103210000Y-146110000D01*
X102710000Y-146110000D01*
X101629364Y-146110000D01*
X100000500Y-146110000D01*
X100000500Y-107895194D01*
X101154840Y-107895194D01*
X101158950Y-107938675D01*
X101159500Y-107950344D01*
X101159500Y-139522256D01*
X101157235Y-139542762D01*
X101159439Y-139612873D01*
X101159500Y-139616768D01*
X101159500Y-139644349D01*
X101160003Y-139648334D01*
X101160918Y-139659967D01*
X101162290Y-139703626D01*
X101167879Y-139722860D01*
X101171825Y-139741916D01*
X101174335Y-139761792D01*
X101190414Y-139802404D01*
X101194197Y-139813451D01*
X101206382Y-139855391D01*
X101216580Y-139872635D01*
X101225136Y-139890100D01*
X101232514Y-139908732D01*
X101232515Y-139908733D01*
X101258180Y-139944059D01*
X101264593Y-139953822D01*
X101286826Y-139991416D01*
X101286829Y-139991419D01*
X101286830Y-139991420D01*
X101300995Y-140005585D01*
X101313627Y-140020375D01*
X101325406Y-140036587D01*
X101359058Y-140064426D01*
X101367699Y-140072289D01*
X101619762Y-140324352D01*
X101651856Y-140379939D01*
X101651856Y-140444126D01*
X101624936Y-140544593D01*
X101604340Y-140780000D01*
X101624936Y-141015407D01*
X101661013Y-141150046D01*
X101686097Y-141243663D01*
X101785965Y-141457830D01*
X101921505Y-141651401D01*
X102088599Y-141818495D01*
X102274160Y-141948426D01*
X102313024Y-141992743D01*
X102327035Y-142050000D01*
X102313024Y-142107257D01*
X102274158Y-142151575D01*
X102107167Y-142268504D01*
X102088595Y-142281508D01*
X101921505Y-142448598D01*
X101785965Y-142642170D01*
X101686097Y-142856336D01*
X101624936Y-143084592D01*
X101604340Y-143319999D01*
X101624936Y-143555407D01*
X101661690Y-143692573D01*
X101686097Y-143783663D01*
X101785965Y-143997830D01*
X101921505Y-144191401D01*
X102088599Y-144358495D01*
X102274597Y-144488732D01*
X102313460Y-144533048D01*
X102327471Y-144590305D01*
X102313461Y-144647561D01*
X102274595Y-144691880D01*
X102088919Y-144821892D01*
X101921890Y-144988921D01*
X101786400Y-145182421D01*
X101686569Y-145396507D01*
X101629364Y-145609999D01*
X101629364Y-145610000D01*
X104290636Y-145610000D01*
X104290635Y-145609999D01*
X104233430Y-145396507D01*
X104146913Y-145210973D01*
X119034526Y-145210973D01*
X119760000Y-145936446D01*
X119760001Y-145936446D01*
X120485472Y-145210974D01*
X120485471Y-145210972D01*
X120412484Y-145159866D01*
X120206326Y-145063733D01*
X119986602Y-145004858D01*
X119760000Y-144985033D01*
X119533397Y-145004858D01*
X119313672Y-145063733D01*
X119107516Y-145159865D01*
X119034527Y-145210973D01*
X119034526Y-145210973D01*
X104146913Y-145210973D01*
X104133599Y-145182421D01*
X103998109Y-144988921D01*
X103831081Y-144821893D01*
X103645404Y-144691880D01*
X103606539Y-144647562D01*
X103592528Y-144590305D01*
X103606539Y-144533048D01*
X103645402Y-144488732D01*
X103831401Y-144358495D01*
X103998495Y-144191401D01*
X104134035Y-143997830D01*
X104233903Y-143783663D01*
X104295063Y-143555408D01*
X104299911Y-143500000D01*
X108064531Y-143500000D01*
X108084364Y-143726689D01*
X108143261Y-143946497D01*
X108239432Y-144152735D01*
X108369953Y-144339140D01*
X108530859Y-144500046D01*
X108717264Y-144630567D01*
X108717265Y-144630567D01*
X108717266Y-144630568D01*
X108923504Y-144726739D01*
X109143308Y-144785635D01*
X109370000Y-144805468D01*
X109596692Y-144785635D01*
X109816496Y-144726739D01*
X110022734Y-144630568D01*
X110209139Y-144500047D01*
X110370047Y-144339139D01*
X110500568Y-144152734D01*
X110596739Y-143946496D01*
X110655635Y-143726692D01*
X110675468Y-143500000D01*
X112474531Y-143500000D01*
X112494364Y-143726689D01*
X112553261Y-143946497D01*
X112649432Y-144152735D01*
X112779953Y-144339140D01*
X112940859Y-144500046D01*
X113127264Y-144630567D01*
X113127265Y-144630567D01*
X113127266Y-144630568D01*
X113333504Y-144726739D01*
X113553308Y-144785635D01*
X113780000Y-144805468D01*
X114006692Y-144785635D01*
X114226496Y-144726739D01*
X114432734Y-144630568D01*
X114619139Y-144500047D01*
X114780047Y-144339139D01*
X114910568Y-144152734D01*
X115006739Y-143946496D01*
X115065635Y-143726692D01*
X115083718Y-143520000D01*
X116954531Y-143520000D01*
X116974364Y-143746689D01*
X117033261Y-143966497D01*
X117129432Y-144172735D01*
X117259953Y-144359140D01*
X117420859Y-144520046D01*
X117607264Y-144650567D01*
X117607265Y-144650567D01*
X117607266Y-144650568D01*
X117813504Y-144746739D01*
X118033308Y-144805635D01*
X118260000Y-144825468D01*
X118486692Y-144805635D01*
X118706496Y-144746739D01*
X118912734Y-144650568D01*
X119099139Y-144520047D01*
X119260047Y-144359139D01*
X119390568Y-144172734D01*
X119486739Y-143966496D01*
X119545635Y-143746692D01*
X119565468Y-143520000D01*
X119545635Y-143293308D01*
X119486739Y-143073504D01*
X119390568Y-142867266D01*
X119312895Y-142756337D01*
X119260046Y-142680859D01*
X119099140Y-142519953D01*
X118912735Y-142389432D01*
X118706497Y-142293261D01*
X118486689Y-142234364D01*
X118260000Y-142214531D01*
X118033310Y-142234364D01*
X117813502Y-142293261D01*
X117607264Y-142389432D01*
X117420859Y-142519953D01*
X117259953Y-142680859D01*
X117129432Y-142867264D01*
X117033261Y-143073502D01*
X116974364Y-143293310D01*
X116954531Y-143520000D01*
X115083718Y-143520000D01*
X115085468Y-143500000D01*
X115065635Y-143273308D01*
X115006739Y-143053504D01*
X114910568Y-142847266D01*
X114846899Y-142756337D01*
X114780046Y-142660859D01*
X114619140Y-142499953D01*
X114432735Y-142369432D01*
X114226497Y-142273261D01*
X114006689Y-142214364D01*
X113780000Y-142194531D01*
X113553310Y-142214364D01*
X113333502Y-142273261D01*
X113127264Y-142369432D01*
X112940859Y-142499953D01*
X112779953Y-142660859D01*
X112649432Y-142847264D01*
X112553261Y-143053502D01*
X112494364Y-143273310D01*
X112474531Y-143500000D01*
X110675468Y-143500000D01*
X110655635Y-143273308D01*
X110596739Y-143053504D01*
X110500568Y-142847266D01*
X110436899Y-142756337D01*
X110370046Y-142660859D01*
X110209140Y-142499953D01*
X110022735Y-142369432D01*
X109816497Y-142273261D01*
X109596689Y-142214364D01*
X109370000Y-142194531D01*
X109143310Y-142214364D01*
X108923502Y-142273261D01*
X108717264Y-142369432D01*
X108530859Y-142499953D01*
X108369953Y-142660859D01*
X108239432Y-142847264D01*
X108143261Y-143053502D01*
X108084364Y-143273310D01*
X108064531Y-143500000D01*
X104299911Y-143500000D01*
X104315659Y-143320000D01*
X104295063Y-143084592D01*
X104233903Y-142856337D01*
X104134035Y-142642171D01*
X103998495Y-142448599D01*
X103831401Y-142281505D01*
X103645839Y-142151573D01*
X103606976Y-142107257D01*
X103592965Y-142050000D01*
X103606976Y-141992743D01*
X103645839Y-141948426D01*
X103831401Y-141818495D01*
X103998495Y-141651401D01*
X104134035Y-141457830D01*
X104233903Y-141243663D01*
X104295063Y-141015408D01*
X104315659Y-140780000D01*
X104295063Y-140544592D01*
X104233903Y-140316337D01*
X104134035Y-140102171D01*
X103998495Y-139908599D01*
X103831401Y-139741505D01*
X103645839Y-139611573D01*
X103606975Y-139567257D01*
X103592964Y-139510000D01*
X103606975Y-139452743D01*
X103645839Y-139408426D01*
X103831401Y-139278495D01*
X103998495Y-139111401D01*
X104134035Y-138917830D01*
X104233903Y-138703663D01*
X104295063Y-138475408D01*
X104315659Y-138240000D01*
X104295063Y-138004592D01*
X104233903Y-137776337D01*
X104134035Y-137562171D01*
X103998495Y-137368599D01*
X103831401Y-137201505D01*
X103645839Y-137071573D01*
X103606975Y-137027257D01*
X103592964Y-136970000D01*
X103606975Y-136912743D01*
X103645839Y-136868426D01*
X103831401Y-136738495D01*
X103998495Y-136571401D01*
X104134035Y-136377830D01*
X104233903Y-136163663D01*
X104295063Y-135935408D01*
X104299911Y-135880000D01*
X108064531Y-135880000D01*
X108084364Y-136106689D01*
X108143261Y-136326497D01*
X108239432Y-136532735D01*
X108369953Y-136719140D01*
X108530859Y-136880046D01*
X108717264Y-137010567D01*
X108717265Y-137010567D01*
X108717266Y-137010568D01*
X108923504Y-137106739D01*
X109143308Y-137165635D01*
X109370000Y-137185468D01*
X109596692Y-137165635D01*
X109816496Y-137106739D01*
X110022734Y-137010568D01*
X110209139Y-136880047D01*
X110370047Y-136719139D01*
X110500568Y-136532734D01*
X110596739Y-136326496D01*
X110655635Y-136106692D01*
X110675468Y-135880000D01*
X110655635Y-135653308D01*
X110596739Y-135433504D01*
X110500568Y-135227266D01*
X110474474Y-135190000D01*
X110370046Y-135040859D01*
X110209140Y-134879953D01*
X110048377Y-134767387D01*
X110009511Y-134723069D01*
X109995500Y-134665812D01*
X109995500Y-132544386D01*
X110005944Y-132494576D01*
X110035517Y-132453156D01*
X110079237Y-132427105D01*
X110180626Y-132392298D01*
X110254503Y-132366936D01*
X110458626Y-132256470D01*
X110641784Y-132113913D01*
X110798979Y-131943153D01*
X110925924Y-131748849D01*
X111019157Y-131536300D01*
X111076134Y-131311305D01*
X111095300Y-131080000D01*
X111076134Y-130848695D01*
X111019157Y-130623700D01*
X110925924Y-130411151D01*
X110798979Y-130216847D01*
X110703831Y-130113488D01*
X110675059Y-130060737D01*
X110674466Y-130000650D01*
X110702193Y-129947340D01*
X110751729Y-129913325D01*
X110832088Y-129883352D01*
X110947188Y-129797188D01*
X111033352Y-129682089D01*
X111083597Y-129547375D01*
X111090000Y-129487824D01*
X111090000Y-128790000D01*
X108290000Y-128790000D01*
X108290000Y-129487824D01*
X108296402Y-129547375D01*
X108346647Y-129682089D01*
X108432811Y-129797188D01*
X108547910Y-129883352D01*
X108628271Y-129913325D01*
X108677806Y-129947340D01*
X108705533Y-130000650D01*
X108704940Y-130060736D01*
X108676167Y-130113489D01*
X108581022Y-130216844D01*
X108454076Y-130411150D01*
X108360844Y-130623696D01*
X108360842Y-130623700D01*
X108360843Y-130623700D01*
X108304143Y-130847604D01*
X108303865Y-130848700D01*
X108284699Y-131080000D01*
X108303865Y-131311299D01*
X108303865Y-131311301D01*
X108303866Y-131311305D01*
X108360065Y-131533228D01*
X108360844Y-131536303D01*
X108454076Y-131748849D01*
X108581022Y-131943155D01*
X108711730Y-132085143D01*
X108736017Y-132124050D01*
X108744500Y-132169125D01*
X108744500Y-134665812D01*
X108730489Y-134723069D01*
X108691623Y-134767387D01*
X108530859Y-134879953D01*
X108369953Y-135040859D01*
X108239432Y-135227264D01*
X108143261Y-135433502D01*
X108084364Y-135653310D01*
X108064531Y-135880000D01*
X104299911Y-135880000D01*
X104315659Y-135700000D01*
X104295063Y-135464592D01*
X104268143Y-135364126D01*
X104268143Y-135299939D01*
X104300235Y-135244353D01*
X106283789Y-133260800D01*
X106299885Y-133247906D01*
X106301873Y-133245787D01*
X106301877Y-133245786D01*
X106347948Y-133196723D01*
X106350566Y-133194023D01*
X106370120Y-133174471D01*
X106372581Y-133171298D01*
X106380156Y-133162427D01*
X106410062Y-133130582D01*
X106419712Y-133113027D01*
X106430400Y-133096757D01*
X106442671Y-133080938D01*
X106442673Y-133080936D01*
X106460026Y-133040832D01*
X106465157Y-133030362D01*
X106473359Y-133015443D01*
X106486197Y-132992092D01*
X106491175Y-132972699D01*
X106497481Y-132954282D01*
X106499392Y-132949866D01*
X106505438Y-132935896D01*
X106512272Y-132892745D01*
X106514635Y-132881331D01*
X106525500Y-132839019D01*
X106525500Y-132818984D01*
X106527027Y-132799585D01*
X106530160Y-132779804D01*
X106526050Y-132736325D01*
X106525500Y-132724656D01*
X106525500Y-128290000D01*
X108290000Y-128290000D01*
X109440000Y-128290000D01*
X109440000Y-127140000D01*
X108742176Y-127140000D01*
X108682624Y-127146402D01*
X108547910Y-127196647D01*
X108432811Y-127282811D01*
X108346647Y-127397910D01*
X108296402Y-127532624D01*
X108290000Y-127592176D01*
X108290000Y-128290000D01*
X106525500Y-128290000D01*
X106525500Y-128178687D01*
X106533736Y-128134249D01*
X106557347Y-128095717D01*
X106632533Y-128012216D01*
X106639699Y-127999805D01*
X106727179Y-127848284D01*
X106735327Y-127823208D01*
X106785674Y-127668256D01*
X106805460Y-127480000D01*
X106785674Y-127291744D01*
X106727179Y-127111716D01*
X106727179Y-127111715D01*
X106632533Y-126947783D01*
X106505870Y-126807110D01*
X106352730Y-126695848D01*
X106179802Y-126618855D01*
X105994648Y-126579500D01*
X105994646Y-126579500D01*
X105805354Y-126579500D01*
X105805352Y-126579500D01*
X105620197Y-126618855D01*
X105447269Y-126695848D01*
X105294129Y-126807110D01*
X105167466Y-126947783D01*
X105072820Y-127111715D01*
X105014326Y-127291742D01*
X104994540Y-127480000D01*
X105014326Y-127668257D01*
X105072820Y-127848284D01*
X105167464Y-128012213D01*
X105167467Y-128012216D01*
X105242652Y-128095717D01*
X105266264Y-128134249D01*
X105274500Y-128178687D01*
X105274500Y-132449548D01*
X105265061Y-132497001D01*
X105238181Y-132537229D01*
X104527807Y-133247601D01*
X104466964Y-133280981D01*
X104397716Y-133276442D01*
X104341750Y-133235406D01*
X104316598Y-133170728D01*
X104295063Y-132924592D01*
X104268268Y-132824592D01*
X104233903Y-132696337D01*
X104134035Y-132482171D01*
X103998495Y-132288599D01*
X103831401Y-132121505D01*
X103645839Y-131991573D01*
X103606975Y-131947257D01*
X103592964Y-131890000D01*
X103606975Y-131832743D01*
X103645839Y-131788426D01*
X103831401Y-131658495D01*
X103998495Y-131491401D01*
X104134035Y-131297830D01*
X104233903Y-131083663D01*
X104295063Y-130855408D01*
X104315659Y-130620000D01*
X104295063Y-130384592D01*
X104233903Y-130156337D01*
X104134035Y-129942171D01*
X103998495Y-129748599D01*
X103831401Y-129581505D01*
X103645839Y-129451573D01*
X103606975Y-129407257D01*
X103592964Y-129350000D01*
X103606975Y-129292743D01*
X103645839Y-129248426D01*
X103831401Y-129118495D01*
X103998495Y-128951401D01*
X104134035Y-128757830D01*
X104233903Y-128543663D01*
X104295063Y-128315408D01*
X104315659Y-128080000D01*
X104295063Y-127844592D01*
X104233903Y-127616337D01*
X104134035Y-127402171D01*
X103998495Y-127208599D01*
X103831401Y-127041505D01*
X103645839Y-126911573D01*
X103606976Y-126867257D01*
X103592965Y-126810000D01*
X103606976Y-126752743D01*
X103645839Y-126708426D01*
X103831401Y-126578495D01*
X103998495Y-126411401D01*
X104134035Y-126217830D01*
X104233903Y-126003663D01*
X104295063Y-125775408D01*
X104315659Y-125540000D01*
X104295063Y-125304592D01*
X104233903Y-125076337D01*
X104134035Y-124862171D01*
X103998495Y-124668599D01*
X103831401Y-124501505D01*
X103645839Y-124371573D01*
X103606974Y-124327255D01*
X103592964Y-124269999D01*
X103606975Y-124212742D01*
X103645837Y-124168428D01*
X103831401Y-124038495D01*
X103998495Y-123871401D01*
X104134035Y-123677830D01*
X104233903Y-123463663D01*
X104295063Y-123235408D01*
X104312346Y-123037869D01*
X107429500Y-123037869D01*
X107435909Y-123097484D01*
X107445995Y-123124526D01*
X107486204Y-123232331D01*
X107572454Y-123347546D01*
X107687669Y-123433796D01*
X107822517Y-123484091D01*
X107882127Y-123490500D01*
X109677872Y-123490499D01*
X109737483Y-123484091D01*
X109872331Y-123433796D01*
X109987546Y-123347546D01*
X110073796Y-123232331D01*
X110122810Y-123100916D01*
X110157789Y-123050537D01*
X110212634Y-123023084D01*
X110273927Y-123025273D01*
X110326673Y-123056569D01*
X110448599Y-123178495D01*
X110641625Y-123313653D01*
X110680489Y-123357970D01*
X110694500Y-123415227D01*
X110694500Y-125853525D01*
X110686264Y-125897963D01*
X110662651Y-125936494D01*
X110639407Y-125962310D01*
X110607464Y-125997786D01*
X110512820Y-126161715D01*
X110454326Y-126341742D01*
X110434540Y-126530000D01*
X110454326Y-126718257D01*
X110512820Y-126898284D01*
X110544988Y-126954000D01*
X110561601Y-127016000D01*
X110544988Y-127078000D01*
X110499601Y-127123387D01*
X110437601Y-127140000D01*
X109940000Y-127140000D01*
X109940000Y-128290000D01*
X111090000Y-128290000D01*
X111090000Y-127592177D01*
X111086868Y-127563044D01*
X111094315Y-127505558D01*
X111127077Y-127457738D01*
X111177994Y-127430033D01*
X111235940Y-127428499D01*
X111245354Y-127430500D01*
X111434646Y-127430500D01*
X111434648Y-127430500D01*
X111504719Y-127415606D01*
X111559447Y-127416322D01*
X111608536Y-127440530D01*
X111642421Y-127483513D01*
X111654500Y-127536896D01*
X111654500Y-132891313D01*
X111646264Y-132935751D01*
X111622652Y-132974282D01*
X111598302Y-133001326D01*
X111547464Y-133057786D01*
X111452820Y-133221715D01*
X111394326Y-133401742D01*
X111374540Y-133590000D01*
X111394326Y-133778257D01*
X111452820Y-133958284D01*
X111547466Y-134122216D01*
X111674129Y-134262889D01*
X111827269Y-134374151D01*
X112000197Y-134451144D01*
X112185352Y-134490500D01*
X112185354Y-134490500D01*
X112374646Y-134490500D01*
X112374648Y-134490500D01*
X112498084Y-134464262D01*
X112559803Y-134451144D01*
X112732730Y-134374151D01*
X112885871Y-134262888D01*
X112938350Y-134204603D01*
X112987277Y-134171354D01*
X113046042Y-134164555D01*
X113101269Y-134185755D01*
X113140389Y-134230128D01*
X113154500Y-134287577D01*
X113154500Y-134665812D01*
X113140489Y-134723069D01*
X113101623Y-134767387D01*
X112940859Y-134879953D01*
X112779953Y-135040859D01*
X112649432Y-135227264D01*
X112553261Y-135433502D01*
X112494364Y-135653310D01*
X112474531Y-135880000D01*
X112494364Y-136106689D01*
X112553261Y-136326497D01*
X112649432Y-136532735D01*
X112779953Y-136719140D01*
X112940859Y-136880046D01*
X113127264Y-137010567D01*
X113127265Y-137010567D01*
X113127266Y-137010568D01*
X113333504Y-137106739D01*
X113553308Y-137165635D01*
X113780000Y-137185468D01*
X114006692Y-137165635D01*
X114226496Y-137106739D01*
X114432734Y-137010568D01*
X114619139Y-136880047D01*
X114780047Y-136719139D01*
X114910568Y-136532734D01*
X115006739Y-136326496D01*
X115065635Y-136106692D01*
X115083718Y-135900000D01*
X116954531Y-135900000D01*
X116974364Y-136126689D01*
X117033261Y-136346497D01*
X117129432Y-136552735D01*
X117259953Y-136739140D01*
X117420859Y-136900046D01*
X117607264Y-137030567D01*
X117607265Y-137030567D01*
X117607266Y-137030568D01*
X117813504Y-137126739D01*
X118033308Y-137185635D01*
X118260000Y-137205468D01*
X118486692Y-137185635D01*
X118706496Y-137126739D01*
X118912734Y-137030568D01*
X119099139Y-136900047D01*
X119260047Y-136739139D01*
X119390568Y-136552734D01*
X119486739Y-136346496D01*
X119545635Y-136126692D01*
X119565468Y-135900000D01*
X119545635Y-135673308D01*
X119486739Y-135453504D01*
X119390568Y-135247266D01*
X119350470Y-135190000D01*
X119260046Y-135060859D01*
X119099140Y-134899953D01*
X118938377Y-134787387D01*
X118899511Y-134743069D01*
X118885500Y-134685812D01*
X118885500Y-132625452D01*
X118894939Y-132578000D01*
X118921816Y-132537773D01*
X119151481Y-132308107D01*
X119211211Y-132274982D01*
X119279423Y-132278510D01*
X119305019Y-132287298D01*
X119533951Y-132325500D01*
X119766048Y-132325500D01*
X119766049Y-132325500D01*
X119994981Y-132287298D01*
X120214503Y-132211936D01*
X120418626Y-132101470D01*
X120601784Y-131958913D01*
X120758979Y-131788153D01*
X120885924Y-131593849D01*
X120979157Y-131381300D01*
X121036134Y-131156305D01*
X121052347Y-130960633D01*
X121077287Y-130895729D01*
X121133245Y-130854452D01*
X121202622Y-130849785D01*
X121263604Y-130883195D01*
X121648181Y-131267772D01*
X121675061Y-131308000D01*
X121684500Y-131355453D01*
X121684500Y-139476313D01*
X121676264Y-139520751D01*
X121652652Y-139559282D01*
X121634405Y-139579548D01*
X121577464Y-139642786D01*
X121482820Y-139806715D01*
X121424326Y-139986742D01*
X121404540Y-140175000D01*
X121424326Y-140363257D01*
X121482820Y-140543284D01*
X121577466Y-140707216D01*
X121704129Y-140847889D01*
X121857269Y-140959151D01*
X122030197Y-141036144D01*
X122215352Y-141075500D01*
X122215354Y-141075500D01*
X122404646Y-141075500D01*
X122404648Y-141075500D01*
X122528084Y-141049262D01*
X122589803Y-141036144D01*
X122762730Y-140959151D01*
X122915871Y-140847888D01*
X123042533Y-140707216D01*
X123137179Y-140543284D01*
X123195674Y-140363256D01*
X123215460Y-140175000D01*
X123195674Y-139986744D01*
X123152756Y-139854656D01*
X123137179Y-139806715D01*
X123042535Y-139642786D01*
X123019108Y-139616768D01*
X122967347Y-139559282D01*
X122943736Y-139520751D01*
X122935500Y-139476313D01*
X122935500Y-131127741D01*
X122937763Y-131107237D01*
X122937022Y-131083663D01*
X122935561Y-131037145D01*
X122935500Y-131033251D01*
X122935500Y-131005657D01*
X122935500Y-131005650D01*
X122934995Y-131001653D01*
X122934080Y-130990023D01*
X122932709Y-130946373D01*
X122927120Y-130927140D01*
X122923174Y-130908082D01*
X122920664Y-130888206D01*
X122904588Y-130847604D01*
X122900804Y-130836553D01*
X122889806Y-130798700D01*
X122888618Y-130794610D01*
X122878414Y-130777355D01*
X122869861Y-130759895D01*
X122862486Y-130741268D01*
X122836808Y-130705925D01*
X122830401Y-130696171D01*
X122813584Y-130667735D01*
X122808170Y-130658580D01*
X122794006Y-130644416D01*
X122781367Y-130629617D01*
X122769595Y-130613413D01*
X122735941Y-130585573D01*
X122727299Y-130577709D01*
X122164590Y-130015000D01*
X124474531Y-130015000D01*
X124494364Y-130241689D01*
X124553261Y-130461497D01*
X124649432Y-130667735D01*
X124779953Y-130854140D01*
X124940859Y-131015046D01*
X125127264Y-131145567D01*
X125127265Y-131145567D01*
X125127266Y-131145568D01*
X125185865Y-131172893D01*
X125238040Y-131218650D01*
X125257460Y-131285274D01*
X125238041Y-131351899D01*
X125185866Y-131397656D01*
X125127522Y-131424863D01*
X124941180Y-131555341D01*
X124780341Y-131716180D01*
X124649865Y-131902519D01*
X124553733Y-132108673D01*
X124501128Y-132304999D01*
X124501128Y-132305000D01*
X127058872Y-132305000D01*
X127058871Y-132304999D01*
X127006266Y-132108673D01*
X126910134Y-131902519D01*
X126779658Y-131716180D01*
X126618819Y-131555341D01*
X126432482Y-131424866D01*
X126374133Y-131397657D01*
X126321958Y-131351899D01*
X126302539Y-131285274D01*
X126321959Y-131218649D01*
X126374134Y-131172893D01*
X126432734Y-131145568D01*
X126619139Y-131015047D01*
X126780047Y-130854139D01*
X126910568Y-130667734D01*
X127006739Y-130461496D01*
X127065635Y-130241692D01*
X127085468Y-130015000D01*
X127065635Y-129788308D01*
X127006739Y-129568504D01*
X126910568Y-129362266D01*
X126903082Y-129351575D01*
X126780046Y-129175859D01*
X126619140Y-129014953D01*
X126432732Y-128884430D01*
X126374724Y-128857380D01*
X126322549Y-128811623D01*
X126303130Y-128744997D01*
X126322550Y-128678373D01*
X126374721Y-128632619D01*
X126432734Y-128605568D01*
X126619139Y-128475047D01*
X126780047Y-128314139D01*
X126910568Y-128127734D01*
X127006739Y-127921496D01*
X127065635Y-127701692D01*
X127085468Y-127475000D01*
X127065635Y-127248308D01*
X127006739Y-127028504D01*
X126910568Y-126822266D01*
X126904593Y-126813733D01*
X126780046Y-126635859D01*
X126619140Y-126474953D01*
X126432733Y-126344431D01*
X126374725Y-126317382D01*
X126322549Y-126271625D01*
X126303129Y-126205000D01*
X126322549Y-126138375D01*
X126374725Y-126092618D01*
X126432734Y-126065568D01*
X126619139Y-125935047D01*
X126780047Y-125774139D01*
X126910568Y-125587734D01*
X127006739Y-125381496D01*
X127065635Y-125161692D01*
X127085468Y-124935000D01*
X127065635Y-124708308D01*
X127006739Y-124488504D01*
X126910568Y-124282266D01*
X126903082Y-124271575D01*
X126780046Y-124095859D01*
X126619140Y-123934953D01*
X126432733Y-123804431D01*
X126374725Y-123777382D01*
X126322549Y-123731625D01*
X126303129Y-123665000D01*
X126322549Y-123598375D01*
X126374725Y-123552618D01*
X126432734Y-123525568D01*
X126619139Y-123395047D01*
X126780047Y-123234139D01*
X126910568Y-123047734D01*
X127006739Y-122841496D01*
X127065635Y-122621692D01*
X127085468Y-122395000D01*
X127065635Y-122168308D01*
X127006739Y-121948504D01*
X126910568Y-121742266D01*
X126903082Y-121731575D01*
X126780046Y-121555859D01*
X126619140Y-121394953D01*
X126432733Y-121264431D01*
X126391727Y-121245310D01*
X126374724Y-121237381D01*
X126322549Y-121191625D01*
X126303129Y-121125000D01*
X126322549Y-121058375D01*
X126374725Y-121012618D01*
X126432734Y-120985568D01*
X126619139Y-120855047D01*
X126780047Y-120694139D01*
X126910568Y-120507734D01*
X127006739Y-120301496D01*
X127065635Y-120081692D01*
X127085468Y-119855000D01*
X127065635Y-119628308D01*
X127006739Y-119408504D01*
X126910568Y-119202266D01*
X126907433Y-119197789D01*
X126780046Y-119015859D01*
X126619140Y-118854953D01*
X126432733Y-118724431D01*
X126374725Y-118697382D01*
X126322549Y-118651625D01*
X126303129Y-118585000D01*
X126322549Y-118518375D01*
X126374725Y-118472618D01*
X126432734Y-118445568D01*
X126619139Y-118315047D01*
X126780047Y-118154139D01*
X126910568Y-117967734D01*
X127006739Y-117761496D01*
X127065635Y-117541692D01*
X127085468Y-117315000D01*
X127065635Y-117088308D01*
X127006739Y-116868504D01*
X126910568Y-116662266D01*
X126885317Y-116626204D01*
X126780046Y-116475859D01*
X126619140Y-116314953D01*
X126594537Y-116297726D01*
X126555399Y-116252884D01*
X126541666Y-116194970D01*
X126556500Y-116137328D01*
X126596485Y-116093239D01*
X126652406Y-116072861D01*
X126687483Y-116069091D01*
X126822331Y-116018796D01*
X126937546Y-115932546D01*
X127023796Y-115817331D01*
X127074091Y-115682483D01*
X127080500Y-115622873D01*
X127080499Y-113927128D01*
X127074091Y-113867517D01*
X127023796Y-113732669D01*
X126937546Y-113617454D01*
X126822331Y-113531204D01*
X126687483Y-113480909D01*
X126627873Y-113474500D01*
X126627869Y-113474500D01*
X126529500Y-113474500D01*
X126467500Y-113457887D01*
X126422113Y-113412500D01*
X126405500Y-113350500D01*
X126405500Y-104003090D01*
X126411569Y-103964772D01*
X126424422Y-103925215D01*
X126465674Y-103798256D01*
X126485460Y-103610000D01*
X126465674Y-103421744D01*
X126407179Y-103241716D01*
X126407179Y-103241715D01*
X126312533Y-103077783D01*
X126185870Y-102937110D01*
X126032730Y-102825848D01*
X125859802Y-102748855D01*
X125674648Y-102709500D01*
X125674646Y-102709500D01*
X125485354Y-102709500D01*
X125485352Y-102709500D01*
X125300197Y-102748855D01*
X125127269Y-102825848D01*
X124974129Y-102937110D01*
X124847466Y-103077783D01*
X124752820Y-103241715D01*
X124694326Y-103421742D01*
X124674540Y-103610000D01*
X124694326Y-103798257D01*
X124752820Y-103978284D01*
X124847466Y-104142216D01*
X124974129Y-104282889D01*
X125103385Y-104376798D01*
X125140985Y-104420821D01*
X125154500Y-104477116D01*
X125154500Y-113350501D01*
X125137887Y-113412501D01*
X125092500Y-113457888D01*
X125030500Y-113474501D01*
X124932128Y-113474501D01*
X124902322Y-113477704D01*
X124872515Y-113480909D01*
X124737669Y-113531204D01*
X124622454Y-113617454D01*
X124536204Y-113732668D01*
X124485909Y-113867516D01*
X124479500Y-113927130D01*
X124479500Y-115622869D01*
X124485909Y-115682484D01*
X124499902Y-115720000D01*
X124536204Y-115817331D01*
X124622454Y-115932546D01*
X124737669Y-116018796D01*
X124872517Y-116069091D01*
X124907594Y-116072862D01*
X124963513Y-116093239D01*
X125003497Y-116137327D01*
X125018332Y-116194968D01*
X125004600Y-116252881D01*
X124965464Y-116297724D01*
X124940860Y-116314952D01*
X124779953Y-116475859D01*
X124649432Y-116662264D01*
X124553261Y-116868502D01*
X124494364Y-117088310D01*
X124474531Y-117315000D01*
X124494364Y-117541689D01*
X124553261Y-117761497D01*
X124649432Y-117967735D01*
X124779953Y-118154140D01*
X124940859Y-118315046D01*
X125049297Y-118390974D01*
X125127266Y-118445568D01*
X125185273Y-118472617D01*
X125237449Y-118518373D01*
X125256869Y-118584997D01*
X125237451Y-118651622D01*
X125185276Y-118697380D01*
X125127266Y-118724431D01*
X124940859Y-118854953D01*
X124779953Y-119015859D01*
X124649432Y-119202264D01*
X124553261Y-119408502D01*
X124494364Y-119628310D01*
X124474531Y-119855000D01*
X124494364Y-120081689D01*
X124553261Y-120301497D01*
X124649432Y-120507735D01*
X124779953Y-120694140D01*
X124940859Y-120855046D01*
X125099891Y-120966400D01*
X125127266Y-120985568D01*
X125185275Y-121012618D01*
X125237450Y-121058375D01*
X125256869Y-121125000D01*
X125237450Y-121191625D01*
X125185275Y-121237381D01*
X125164576Y-121247033D01*
X125127263Y-121264433D01*
X124940859Y-121394953D01*
X124779953Y-121555859D01*
X124649432Y-121742264D01*
X124553261Y-121948502D01*
X124494364Y-122168310D01*
X124474531Y-122395000D01*
X124494364Y-122621689D01*
X124553261Y-122841497D01*
X124649432Y-123047735D01*
X124779953Y-123234140D01*
X124940859Y-123395046D01*
X125068030Y-123484091D01*
X125127266Y-123525568D01*
X125185275Y-123552618D01*
X125237450Y-123598375D01*
X125256869Y-123665000D01*
X125237450Y-123731625D01*
X125185275Y-123777382D01*
X125127263Y-123804433D01*
X124940859Y-123934953D01*
X124779953Y-124095859D01*
X124649432Y-124282264D01*
X124553261Y-124488502D01*
X124494364Y-124708310D01*
X124474531Y-124935000D01*
X124494364Y-125161689D01*
X124553261Y-125381497D01*
X124649432Y-125587735D01*
X124779953Y-125774140D01*
X124940859Y-125935046D01*
X125127265Y-126065567D01*
X125127266Y-126065568D01*
X125185273Y-126092617D01*
X125237449Y-126138373D01*
X125256869Y-126204997D01*
X125237451Y-126271622D01*
X125185276Y-126317380D01*
X125127266Y-126344431D01*
X124940859Y-126474953D01*
X124779953Y-126635859D01*
X124649432Y-126822264D01*
X124553261Y-127028502D01*
X124494364Y-127248310D01*
X124474531Y-127475000D01*
X124494364Y-127701689D01*
X124553261Y-127921497D01*
X124649432Y-128127735D01*
X124779953Y-128314140D01*
X124940859Y-128475046D01*
X125127066Y-128605428D01*
X125127266Y-128605568D01*
X125185275Y-128632618D01*
X125237450Y-128678375D01*
X125256869Y-128745000D01*
X125237450Y-128811625D01*
X125185275Y-128857382D01*
X125127263Y-128884433D01*
X124940859Y-129014953D01*
X124779953Y-129175859D01*
X124649432Y-129362264D01*
X124553261Y-129568502D01*
X124494364Y-129788310D01*
X124474531Y-130015000D01*
X122164590Y-130015000D01*
X121086818Y-128937228D01*
X121059938Y-128897000D01*
X121050499Y-128849547D01*
X121050499Y-127437130D01*
X121050499Y-127437127D01*
X121044091Y-127377517D01*
X120993796Y-127242669D01*
X120907546Y-127127454D01*
X120792331Y-127041204D01*
X120657483Y-126990909D01*
X120597873Y-126984500D01*
X120597869Y-126984500D01*
X118702130Y-126984500D01*
X118642515Y-126990909D01*
X118507669Y-127041204D01*
X118392454Y-127127454D01*
X118306204Y-127242668D01*
X118255909Y-127377516D01*
X118255542Y-127380928D01*
X118252874Y-127405751D01*
X118249500Y-127437130D01*
X118249500Y-129332869D01*
X118255225Y-129386124D01*
X118255909Y-129392483D01*
X118306204Y-129527331D01*
X118392454Y-129642546D01*
X118507669Y-129728796D01*
X118587905Y-129758722D01*
X118637441Y-129792737D01*
X118665168Y-129846047D01*
X118664575Y-129906134D01*
X118635802Y-129958887D01*
X118541020Y-130061848D01*
X118414076Y-130256150D01*
X118320844Y-130468696D01*
X118320842Y-130468700D01*
X118320843Y-130468700D01*
X118270441Y-130667734D01*
X118263865Y-130693700D01*
X118244699Y-130924999D01*
X118263865Y-131156301D01*
X118301175Y-131303636D01*
X118300520Y-131366994D01*
X118268650Y-131421757D01*
X117876208Y-131814199D01*
X117860110Y-131827096D01*
X117812096Y-131878225D01*
X117809391Y-131881017D01*
X117789874Y-131900534D01*
X117787415Y-131903705D01*
X117779842Y-131912572D01*
X117749935Y-131944420D01*
X117740285Y-131961974D01*
X117729609Y-131978228D01*
X117717326Y-131994063D01*
X117699975Y-132034158D01*
X117694838Y-132044644D01*
X117673802Y-132082907D01*
X117668821Y-132102309D01*
X117662520Y-132120711D01*
X117654561Y-132139102D01*
X117647728Y-132182242D01*
X117645360Y-132193674D01*
X117634500Y-132235978D01*
X117634500Y-132256016D01*
X117632973Y-132275415D01*
X117629840Y-132295194D01*
X117633950Y-132338675D01*
X117634500Y-132350344D01*
X117634500Y-134685812D01*
X117620489Y-134743069D01*
X117581623Y-134787387D01*
X117420859Y-134899953D01*
X117259953Y-135060859D01*
X117129432Y-135247264D01*
X117033261Y-135453502D01*
X116974364Y-135673310D01*
X116954531Y-135900000D01*
X115083718Y-135900000D01*
X115085468Y-135880000D01*
X115065635Y-135653308D01*
X115006739Y-135433504D01*
X114910568Y-135227266D01*
X114884474Y-135190000D01*
X114780046Y-135040859D01*
X114619140Y-134879953D01*
X114458377Y-134767387D01*
X114419511Y-134723069D01*
X114405500Y-134665812D01*
X114405500Y-132554500D01*
X114422113Y-132492500D01*
X114467500Y-132447113D01*
X114529500Y-132430500D01*
X114736048Y-132430500D01*
X114736049Y-132430500D01*
X114964981Y-132392298D01*
X115184503Y-132316936D01*
X115388626Y-132206470D01*
X115571784Y-132063913D01*
X115728979Y-131893153D01*
X115855924Y-131698849D01*
X115949157Y-131486300D01*
X116006134Y-131261305D01*
X116025300Y-131030000D01*
X116006134Y-130798695D01*
X115949157Y-130573700D01*
X115855924Y-130361151D01*
X115787324Y-130256151D01*
X115728980Y-130166848D01*
X115714162Y-130150751D01*
X115634195Y-130063884D01*
X115605424Y-130011134D01*
X115604831Y-129951047D01*
X115632558Y-129897737D01*
X115682092Y-129863722D01*
X115762331Y-129833796D01*
X115877546Y-129747546D01*
X115963796Y-129632331D01*
X116014091Y-129497483D01*
X116020500Y-129437873D01*
X116020499Y-127542128D01*
X116014091Y-127482517D01*
X115963796Y-127347669D01*
X115877546Y-127232454D01*
X115762331Y-127146204D01*
X115627483Y-127095909D01*
X115567873Y-127089500D01*
X115567869Y-127089500D01*
X113672130Y-127089500D01*
X113612515Y-127095909D01*
X113477669Y-127146204D01*
X113362454Y-127232454D01*
X113276204Y-127347668D01*
X113225909Y-127482515D01*
X113225909Y-127482517D01*
X113220063Y-127536896D01*
X113219500Y-127542130D01*
X113219500Y-129437869D01*
X113225909Y-129497484D01*
X113244517Y-129547375D01*
X113276204Y-129632331D01*
X113362454Y-129747546D01*
X113477669Y-129833796D01*
X113557905Y-129863722D01*
X113607441Y-129897737D01*
X113635168Y-129951047D01*
X113634575Y-130011134D01*
X113605802Y-130063887D01*
X113511020Y-130166848D01*
X113384076Y-130361150D01*
X113290844Y-130573696D01*
X113290842Y-130573700D01*
X113290843Y-130573700D01*
X113234901Y-130794610D01*
X113233865Y-130798700D01*
X113214699Y-131030000D01*
X113233865Y-131261300D01*
X113233865Y-131261303D01*
X113233866Y-131261305D01*
X113243826Y-131300635D01*
X113274530Y-131421884D01*
X113277321Y-131468067D01*
X113262988Y-131512058D01*
X113260290Y-131516966D01*
X113249609Y-131533228D01*
X113237326Y-131549063D01*
X113219975Y-131589158D01*
X113214838Y-131599644D01*
X113193802Y-131637907D01*
X113188821Y-131657309D01*
X113182520Y-131675711D01*
X113174561Y-131694102D01*
X113167728Y-131737242D01*
X113165360Y-131748674D01*
X113154500Y-131790978D01*
X113154500Y-131811016D01*
X113152973Y-131830413D01*
X113151973Y-131836727D01*
X113143379Y-131856729D01*
X113152950Y-131883096D01*
X113153950Y-131893675D01*
X113154500Y-131905344D01*
X113154500Y-132892423D01*
X113140392Y-132949866D01*
X113101280Y-132994238D01*
X113046062Y-133015443D01*
X112987303Y-133008655D01*
X112938373Y-132975420D01*
X112937373Y-132974310D01*
X112913742Y-132935767D01*
X112905500Y-132891313D01*
X112905500Y-131894765D01*
X112915439Y-131856467D01*
X112905500Y-131817330D01*
X112905500Y-124030452D01*
X112914939Y-123982999D01*
X112941819Y-123942771D01*
X113034591Y-123849999D01*
X113404353Y-123480235D01*
X113459938Y-123448143D01*
X113524126Y-123448143D01*
X113624592Y-123475063D01*
X113860000Y-123495659D01*
X114095408Y-123475063D01*
X114323663Y-123413903D01*
X114537830Y-123314035D01*
X114731401Y-123178495D01*
X114898495Y-123011401D01*
X115028426Y-122825839D01*
X115072743Y-122786975D01*
X115130000Y-122772964D01*
X115187257Y-122786975D01*
X115231573Y-122825839D01*
X115361505Y-123011401D01*
X115528599Y-123178495D01*
X115722170Y-123314035D01*
X115936337Y-123413903D01*
X116164592Y-123475063D01*
X116400000Y-123495659D01*
X116635408Y-123475063D01*
X116863663Y-123413903D01*
X117077830Y-123314035D01*
X117271401Y-123178495D01*
X117438495Y-123011401D01*
X117568426Y-122825839D01*
X117612743Y-122786975D01*
X117670000Y-122772964D01*
X117727257Y-122786975D01*
X117771573Y-122825839D01*
X117901505Y-123011401D01*
X118068599Y-123178495D01*
X118262170Y-123314035D01*
X118476337Y-123413903D01*
X118704592Y-123475063D01*
X118940000Y-123495659D01*
X119175408Y-123475063D01*
X119403663Y-123413903D01*
X119617830Y-123314035D01*
X119811401Y-123178495D01*
X119978495Y-123011401D01*
X120108732Y-122825402D01*
X120153048Y-122786539D01*
X120210305Y-122772528D01*
X120267562Y-122786539D01*
X120311880Y-122825404D01*
X120441893Y-123011081D01*
X120608918Y-123178106D01*
X120802423Y-123313600D01*
X121016507Y-123413430D01*
X121229999Y-123470635D01*
X121230000Y-123470636D01*
X121230000Y-122390000D01*
X121730000Y-122390000D01*
X121730000Y-123470635D01*
X121943492Y-123413430D01*
X122157576Y-123313600D01*
X122351081Y-123178106D01*
X122518106Y-123011081D01*
X122653600Y-122817576D01*
X122753430Y-122603492D01*
X122810636Y-122390000D01*
X121730000Y-122390000D01*
X121230000Y-122390000D01*
X121230000Y-120809364D01*
X121730000Y-120809364D01*
X121730000Y-121890000D01*
X122810636Y-121890000D01*
X122810635Y-121889999D01*
X122753430Y-121676507D01*
X122653599Y-121462421D01*
X122518109Y-121268921D01*
X122351081Y-121101893D01*
X122157576Y-120966399D01*
X121943492Y-120866569D01*
X121730000Y-120809364D01*
X121230000Y-120809364D01*
X121229999Y-120809364D01*
X121016507Y-120866569D01*
X120802421Y-120966400D01*
X120608921Y-121101890D01*
X120441893Y-121268918D01*
X120311880Y-121454596D01*
X120267562Y-121493461D01*
X120210305Y-121507472D01*
X120153048Y-121493461D01*
X120108730Y-121454595D01*
X120069446Y-121398491D01*
X119978495Y-121268599D01*
X119811401Y-121101505D01*
X119617830Y-120965965D01*
X119403663Y-120866097D01*
X119342502Y-120849709D01*
X119175407Y-120804936D01*
X118940000Y-120784340D01*
X118704592Y-120804936D01*
X118476336Y-120866097D01*
X118262170Y-120965965D01*
X118068598Y-121101505D01*
X117901505Y-121268598D01*
X117771575Y-121454159D01*
X117727257Y-121493025D01*
X117670000Y-121507036D01*
X117612743Y-121493025D01*
X117568425Y-121454159D01*
X117438494Y-121268598D01*
X117271404Y-121101508D01*
X117271401Y-121101505D01*
X117078374Y-120966346D01*
X117039511Y-120922030D01*
X117025500Y-120864773D01*
X117025500Y-109868687D01*
X117033736Y-109824249D01*
X117057347Y-109785717D01*
X117132533Y-109702216D01*
X117176419Y-109626204D01*
X117227179Y-109538284D01*
X117247609Y-109475407D01*
X117285674Y-109358256D01*
X117305460Y-109170000D01*
X117285674Y-108981744D01*
X117227179Y-108801716D01*
X117227179Y-108801715D01*
X117132533Y-108637783D01*
X117005870Y-108497110D01*
X116852730Y-108385848D01*
X116679802Y-108308855D01*
X116494648Y-108269500D01*
X116494646Y-108269500D01*
X116305354Y-108269500D01*
X116305352Y-108269500D01*
X116120197Y-108308855D01*
X115947269Y-108385848D01*
X115794129Y-108497110D01*
X115667466Y-108637783D01*
X115572820Y-108801715D01*
X115514326Y-108981742D01*
X115494540Y-109170000D01*
X115514326Y-109358257D01*
X115572820Y-109538284D01*
X115667464Y-109702213D01*
X115667467Y-109702216D01*
X115742652Y-109785717D01*
X115766264Y-109824249D01*
X115774500Y-109868687D01*
X115774500Y-120864774D01*
X115760489Y-120922031D01*
X115721623Y-120966348D01*
X115721550Y-120966400D01*
X115528598Y-121101505D01*
X115361505Y-121268598D01*
X115231575Y-121454159D01*
X115187257Y-121493025D01*
X115130000Y-121507036D01*
X115072743Y-121493025D01*
X115028425Y-121454159D01*
X114898494Y-121268598D01*
X114731404Y-121101508D01*
X114731403Y-121101507D01*
X114731401Y-121101505D01*
X114537830Y-120965965D01*
X114323663Y-120866097D01*
X114262502Y-120849709D01*
X114095407Y-120804936D01*
X113860000Y-120784340D01*
X113624592Y-120804936D01*
X113396336Y-120866097D01*
X113182170Y-120965965D01*
X112988598Y-121101505D01*
X112821505Y-121268598D01*
X112691575Y-121454159D01*
X112647257Y-121493025D01*
X112590000Y-121507036D01*
X112532743Y-121493025D01*
X112488425Y-121454159D01*
X112358494Y-121268598D01*
X112191404Y-121101508D01*
X112191403Y-121101507D01*
X112191401Y-121101505D01*
X111997830Y-120965965D01*
X111783663Y-120866097D01*
X111722502Y-120849709D01*
X111555407Y-120804936D01*
X111320000Y-120784340D01*
X111084592Y-120804936D01*
X110856336Y-120866097D01*
X110642170Y-120965965D01*
X110448601Y-121101503D01*
X110326673Y-121223431D01*
X110273926Y-121254726D01*
X110212634Y-121256915D01*
X110157789Y-121229462D01*
X110122810Y-121179082D01*
X110107423Y-121137827D01*
X110073796Y-121047669D01*
X109987546Y-120932454D01*
X109872331Y-120846204D01*
X109737483Y-120795909D01*
X109677873Y-120789500D01*
X109677869Y-120789500D01*
X107882130Y-120789500D01*
X107822515Y-120795909D01*
X107687669Y-120846204D01*
X107572454Y-120932454D01*
X107486204Y-121047668D01*
X107435909Y-121182516D01*
X107429500Y-121242130D01*
X107429500Y-123037869D01*
X104312346Y-123037869D01*
X104315659Y-123000000D01*
X104295063Y-122764592D01*
X104233903Y-122536337D01*
X104134035Y-122322171D01*
X103998495Y-122128599D01*
X103831401Y-121961505D01*
X103645839Y-121831573D01*
X103606974Y-121787255D01*
X103592964Y-121729999D01*
X103606975Y-121672742D01*
X103645837Y-121628428D01*
X103831401Y-121498495D01*
X103998495Y-121331401D01*
X104134035Y-121137830D01*
X104233903Y-120923663D01*
X104295063Y-120695408D01*
X104315659Y-120460000D01*
X104295063Y-120224592D01*
X104233903Y-119996337D01*
X104134035Y-119782171D01*
X103998495Y-119588599D01*
X103876569Y-119466673D01*
X103845273Y-119413927D01*
X103843084Y-119352634D01*
X103870537Y-119297789D01*
X103920916Y-119262810D01*
X104052331Y-119213796D01*
X104167546Y-119127546D01*
X104253796Y-119012331D01*
X104304091Y-118877483D01*
X104310500Y-118817873D01*
X104310499Y-117022128D01*
X104304091Y-116962517D01*
X104253796Y-116827669D01*
X104167546Y-116712454D01*
X104052331Y-116626204D01*
X103917483Y-116575909D01*
X103857873Y-116569500D01*
X103857869Y-116569500D01*
X103857826Y-116569500D01*
X102534499Y-116569500D01*
X102472500Y-116552888D01*
X102427113Y-116507501D01*
X102410500Y-116445501D01*
X102410500Y-110652503D01*
X102423288Y-110597659D01*
X102459014Y-110554127D01*
X102510309Y-110530886D01*
X102566593Y-110532728D01*
X102691037Y-110566072D01*
X102724592Y-110575063D01*
X102960000Y-110595659D01*
X103195408Y-110575063D01*
X103423663Y-110513903D01*
X103637830Y-110414035D01*
X103831401Y-110278495D01*
X103998495Y-110111401D01*
X104134035Y-109917830D01*
X104233903Y-109703663D01*
X104295063Y-109475408D01*
X104315659Y-109240000D01*
X104295063Y-109004592D01*
X104233903Y-108776337D01*
X104134035Y-108562171D01*
X103998495Y-108368599D01*
X103831401Y-108201505D01*
X103674402Y-108091573D01*
X103635538Y-108047257D01*
X103621527Y-107990000D01*
X103635538Y-107932743D01*
X103674402Y-107888426D01*
X103831401Y-107778495D01*
X103998495Y-107611401D01*
X104134035Y-107417830D01*
X104233903Y-107203663D01*
X104295063Y-106975408D01*
X104315659Y-106740000D01*
X104295063Y-106504592D01*
X104233903Y-106276337D01*
X104134035Y-106062171D01*
X103998495Y-105868599D01*
X103831401Y-105701505D01*
X103674402Y-105591573D01*
X103635538Y-105547257D01*
X103621527Y-105490000D01*
X103635538Y-105432743D01*
X103674402Y-105388426D01*
X103831401Y-105278495D01*
X103998495Y-105111401D01*
X104134035Y-104917830D01*
X104233903Y-104703663D01*
X104295063Y-104475408D01*
X104315659Y-104240000D01*
X104295063Y-104004592D01*
X104233903Y-103776337D01*
X104134035Y-103562171D01*
X103998495Y-103368599D01*
X103831401Y-103201505D01*
X103637830Y-103065965D01*
X103423663Y-102966097D01*
X103362502Y-102949709D01*
X103195407Y-102904936D01*
X102960000Y-102884340D01*
X102724592Y-102904936D01*
X102496336Y-102966097D01*
X102282170Y-103065965D01*
X102088598Y-103201505D01*
X101921505Y-103368598D01*
X101785965Y-103562170D01*
X101686097Y-103776336D01*
X101624936Y-104004592D01*
X101604340Y-104239999D01*
X101624936Y-104475407D01*
X101629189Y-104491278D01*
X101686097Y-104703663D01*
X101785965Y-104917830D01*
X101921505Y-105111401D01*
X102088599Y-105278495D01*
X102245597Y-105388426D01*
X102284461Y-105432743D01*
X102298472Y-105490000D01*
X102284461Y-105547257D01*
X102245596Y-105591574D01*
X102095599Y-105696604D01*
X102088595Y-105701508D01*
X101921505Y-105868598D01*
X101785965Y-106062170D01*
X101686097Y-106276336D01*
X101624936Y-106504592D01*
X101604340Y-106739999D01*
X101624936Y-106975408D01*
X101651855Y-107075873D01*
X101651855Y-107140059D01*
X101619761Y-107195646D01*
X101401208Y-107414199D01*
X101385110Y-107427096D01*
X101337096Y-107478225D01*
X101334391Y-107481017D01*
X101314874Y-107500534D01*
X101312415Y-107503705D01*
X101304842Y-107512572D01*
X101274935Y-107544420D01*
X101265285Y-107561974D01*
X101254609Y-107578228D01*
X101242326Y-107594063D01*
X101224975Y-107634158D01*
X101219838Y-107644644D01*
X101198802Y-107682907D01*
X101193821Y-107702309D01*
X101187520Y-107720711D01*
X101179561Y-107739102D01*
X101172728Y-107782242D01*
X101170360Y-107793674D01*
X101159500Y-107835978D01*
X101159500Y-107856016D01*
X101157973Y-107875415D01*
X101154840Y-107895194D01*
X100000500Y-107895194D01*
X100000500Y-101820000D01*
X107512676Y-101820000D01*
X107531929Y-102040065D01*
X107531930Y-102040068D01*
X107589106Y-102253450D01*
X107682466Y-102453662D01*
X107809174Y-102634620D01*
X107965380Y-102790826D01*
X108146338Y-102917534D01*
X108346550Y-103010894D01*
X108559932Y-103068070D01*
X108780000Y-103087323D01*
X109000068Y-103068070D01*
X109213450Y-103010894D01*
X109413662Y-102917534D01*
X109594620Y-102790826D01*
X109750826Y-102634620D01*
X109877534Y-102453662D01*
X109970894Y-102253450D01*
X110028070Y-102040068D01*
X110047323Y-101820000D01*
X120212676Y-101820000D01*
X120231929Y-102040065D01*
X120231930Y-102040068D01*
X120289106Y-102253450D01*
X120382466Y-102453662D01*
X120509174Y-102634620D01*
X120665380Y-102790826D01*
X120846338Y-102917534D01*
X121046550Y-103010894D01*
X121259932Y-103068070D01*
X121480000Y-103087323D01*
X121700068Y-103068070D01*
X121913450Y-103010894D01*
X122113662Y-102917534D01*
X122294620Y-102790826D01*
X122450826Y-102634620D01*
X122577534Y-102453662D01*
X122670894Y-102253450D01*
X122728070Y-102040068D01*
X122747323Y-101820000D01*
X122728070Y-101599932D01*
X122670894Y-101386550D01*
X122577534Y-101186339D01*
X122450826Y-101005380D01*
X122294620Y-100849174D01*
X122113662Y-100722466D01*
X121913451Y-100629106D01*
X121700065Y-100571929D01*
X121480000Y-100552676D01*
X121259934Y-100571929D01*
X121046548Y-100629106D01*
X120846338Y-100722466D01*
X120665379Y-100849174D01*
X120509174Y-101005379D01*
X120382466Y-101186338D01*
X120289106Y-101386548D01*
X120231929Y-101599934D01*
X120212676Y-101820000D01*
X110047323Y-101820000D01*
X110028070Y-101599932D01*
X109970894Y-101386550D01*
X109877534Y-101186339D01*
X109750826Y-101005380D01*
X109594620Y-100849174D01*
X109413662Y-100722466D01*
X109213451Y-100629106D01*
X109000065Y-100571929D01*
X108780000Y-100552676D01*
X108559934Y-100571929D01*
X108346548Y-100629106D01*
X108146338Y-100722466D01*
X107965379Y-100849174D01*
X107809174Y-101005379D01*
X107682466Y-101186338D01*
X107589106Y-101386548D01*
X107531929Y-101599934D01*
X107512676Y-101820000D01*
X100000500Y-101820000D01*
X100000500Y-100124500D01*
X100017113Y-100062500D01*
X100062500Y-100017113D01*
X100124500Y-100000500D01*
X149875500Y-100000500D01*
X149937500Y-100017113D01*
G37*
%TD.AperFunction*%
%TD*%
M02*
