%TF.GenerationSoftware,KiCad,Pcbnew,7.0.1-0*%
%TF.CreationDate,2023-04-17T16:38:54-05:00*%
%TF.ProjectId,PIC32,50494333-322e-46b6-9963-61645f706362,rev?*%
%TF.SameCoordinates,Original*%
%TF.FileFunction,Legend,Top*%
%TF.FilePolarity,Positive*%
%FSLAX46Y46*%
G04 Gerber Fmt 4.6, Leading zero omitted, Abs format (unit mm)*
G04 Created by KiCad (PCBNEW 7.0.1-0) date 2023-04-17 16:38:54*
%MOMM*%
%LPD*%
G01*
G04 APERTURE LIST*
%ADD10C,0.150000*%
%ADD11C,0.120000*%
%ADD12C,0.400000*%
G04 APERTURE END LIST*
D10*
%TO.C,SW3*%
X130255714Y-108602619D02*
X130255714Y-109412142D01*
X130255714Y-109412142D02*
X130303333Y-109507380D01*
X130303333Y-109507380D02*
X130350952Y-109555000D01*
X130350952Y-109555000D02*
X130446190Y-109602619D01*
X130446190Y-109602619D02*
X130636666Y-109602619D01*
X130636666Y-109602619D02*
X130731904Y-109555000D01*
X130731904Y-109555000D02*
X130779523Y-109507380D01*
X130779523Y-109507380D02*
X130827142Y-109412142D01*
X130827142Y-109412142D02*
X130827142Y-108602619D01*
X131255714Y-109555000D02*
X131398571Y-109602619D01*
X131398571Y-109602619D02*
X131636666Y-109602619D01*
X131636666Y-109602619D02*
X131731904Y-109555000D01*
X131731904Y-109555000D02*
X131779523Y-109507380D01*
X131779523Y-109507380D02*
X131827142Y-109412142D01*
X131827142Y-109412142D02*
X131827142Y-109316904D01*
X131827142Y-109316904D02*
X131779523Y-109221666D01*
X131779523Y-109221666D02*
X131731904Y-109174047D01*
X131731904Y-109174047D02*
X131636666Y-109126428D01*
X131636666Y-109126428D02*
X131446190Y-109078809D01*
X131446190Y-109078809D02*
X131350952Y-109031190D01*
X131350952Y-109031190D02*
X131303333Y-108983571D01*
X131303333Y-108983571D02*
X131255714Y-108888333D01*
X131255714Y-108888333D02*
X131255714Y-108793095D01*
X131255714Y-108793095D02*
X131303333Y-108697857D01*
X131303333Y-108697857D02*
X131350952Y-108650238D01*
X131350952Y-108650238D02*
X131446190Y-108602619D01*
X131446190Y-108602619D02*
X131684285Y-108602619D01*
X131684285Y-108602619D02*
X131827142Y-108650238D01*
X132255714Y-109078809D02*
X132589047Y-109078809D01*
X132731904Y-109602619D02*
X132255714Y-109602619D01*
X132255714Y-109602619D02*
X132255714Y-108602619D01*
X132255714Y-108602619D02*
X132731904Y-108602619D01*
X133731904Y-109602619D02*
X133398571Y-109126428D01*
X133160476Y-109602619D02*
X133160476Y-108602619D01*
X133160476Y-108602619D02*
X133541428Y-108602619D01*
X133541428Y-108602619D02*
X133636666Y-108650238D01*
X133636666Y-108650238D02*
X133684285Y-108697857D01*
X133684285Y-108697857D02*
X133731904Y-108793095D01*
X133731904Y-108793095D02*
X133731904Y-108935952D01*
X133731904Y-108935952D02*
X133684285Y-109031190D01*
X133684285Y-109031190D02*
X133636666Y-109078809D01*
X133636666Y-109078809D02*
X133541428Y-109126428D01*
X133541428Y-109126428D02*
X133160476Y-109126428D01*
%TO.C,SW2*%
X141691905Y-109472619D02*
X141691905Y-108472619D01*
X141691905Y-108472619D02*
X142025238Y-109186904D01*
X142025238Y-109186904D02*
X142358571Y-108472619D01*
X142358571Y-108472619D02*
X142358571Y-109472619D01*
X143406190Y-109377380D02*
X143358571Y-109425000D01*
X143358571Y-109425000D02*
X143215714Y-109472619D01*
X143215714Y-109472619D02*
X143120476Y-109472619D01*
X143120476Y-109472619D02*
X142977619Y-109425000D01*
X142977619Y-109425000D02*
X142882381Y-109329761D01*
X142882381Y-109329761D02*
X142834762Y-109234523D01*
X142834762Y-109234523D02*
X142787143Y-109044047D01*
X142787143Y-109044047D02*
X142787143Y-108901190D01*
X142787143Y-108901190D02*
X142834762Y-108710714D01*
X142834762Y-108710714D02*
X142882381Y-108615476D01*
X142882381Y-108615476D02*
X142977619Y-108520238D01*
X142977619Y-108520238D02*
X143120476Y-108472619D01*
X143120476Y-108472619D02*
X143215714Y-108472619D01*
X143215714Y-108472619D02*
X143358571Y-108520238D01*
X143358571Y-108520238D02*
X143406190Y-108567857D01*
X144310952Y-109472619D02*
X143834762Y-109472619D01*
X143834762Y-109472619D02*
X143834762Y-108472619D01*
X145215714Y-109472619D02*
X144882381Y-108996428D01*
X144644286Y-109472619D02*
X144644286Y-108472619D01*
X144644286Y-108472619D02*
X145025238Y-108472619D01*
X145025238Y-108472619D02*
X145120476Y-108520238D01*
X145120476Y-108520238D02*
X145168095Y-108567857D01*
X145168095Y-108567857D02*
X145215714Y-108663095D01*
X145215714Y-108663095D02*
X145215714Y-108805952D01*
X145215714Y-108805952D02*
X145168095Y-108901190D01*
X145168095Y-108901190D02*
X145120476Y-108948809D01*
X145120476Y-108948809D02*
X145025238Y-108996428D01*
X145025238Y-108996428D02*
X144644286Y-108996428D01*
%TO.C,J2*%
X102626666Y-114612619D02*
X102626666Y-115326904D01*
X102626666Y-115326904D02*
X102579047Y-115469761D01*
X102579047Y-115469761D02*
X102483809Y-115565000D01*
X102483809Y-115565000D02*
X102340952Y-115612619D01*
X102340952Y-115612619D02*
X102245714Y-115612619D01*
X103055238Y-114707857D02*
X103102857Y-114660238D01*
X103102857Y-114660238D02*
X103198095Y-114612619D01*
X103198095Y-114612619D02*
X103436190Y-114612619D01*
X103436190Y-114612619D02*
X103531428Y-114660238D01*
X103531428Y-114660238D02*
X103579047Y-114707857D01*
X103579047Y-114707857D02*
X103626666Y-114803095D01*
X103626666Y-114803095D02*
X103626666Y-114898333D01*
X103626666Y-114898333D02*
X103579047Y-115041190D01*
X103579047Y-115041190D02*
X103007619Y-115612619D01*
X103007619Y-115612619D02*
X103626666Y-115612619D01*
%TO.C,R2*%
X108862619Y-140835713D02*
X108862619Y-140216666D01*
X108862619Y-140216666D02*
X109243571Y-140549999D01*
X109243571Y-140549999D02*
X109243571Y-140407142D01*
X109243571Y-140407142D02*
X109291190Y-140311904D01*
X109291190Y-140311904D02*
X109338809Y-140264285D01*
X109338809Y-140264285D02*
X109434047Y-140216666D01*
X109434047Y-140216666D02*
X109672142Y-140216666D01*
X109672142Y-140216666D02*
X109767380Y-140264285D01*
X109767380Y-140264285D02*
X109815000Y-140311904D01*
X109815000Y-140311904D02*
X109862619Y-140407142D01*
X109862619Y-140407142D02*
X109862619Y-140692856D01*
X109862619Y-140692856D02*
X109815000Y-140788094D01*
X109815000Y-140788094D02*
X109767380Y-140835713D01*
X108862619Y-139883332D02*
X108862619Y-139264285D01*
X108862619Y-139264285D02*
X109243571Y-139597618D01*
X109243571Y-139597618D02*
X109243571Y-139454761D01*
X109243571Y-139454761D02*
X109291190Y-139359523D01*
X109291190Y-139359523D02*
X109338809Y-139311904D01*
X109338809Y-139311904D02*
X109434047Y-139264285D01*
X109434047Y-139264285D02*
X109672142Y-139264285D01*
X109672142Y-139264285D02*
X109767380Y-139311904D01*
X109767380Y-139311904D02*
X109815000Y-139359523D01*
X109815000Y-139359523D02*
X109862619Y-139454761D01*
X109862619Y-139454761D02*
X109862619Y-139740475D01*
X109862619Y-139740475D02*
X109815000Y-139835713D01*
X109815000Y-139835713D02*
X109767380Y-139883332D01*
X108862619Y-138645237D02*
X108862619Y-138549999D01*
X108862619Y-138549999D02*
X108910238Y-138454761D01*
X108910238Y-138454761D02*
X108957857Y-138407142D01*
X108957857Y-138407142D02*
X109053095Y-138359523D01*
X109053095Y-138359523D02*
X109243571Y-138311904D01*
X109243571Y-138311904D02*
X109481666Y-138311904D01*
X109481666Y-138311904D02*
X109672142Y-138359523D01*
X109672142Y-138359523D02*
X109767380Y-138407142D01*
X109767380Y-138407142D02*
X109815000Y-138454761D01*
X109815000Y-138454761D02*
X109862619Y-138549999D01*
X109862619Y-138549999D02*
X109862619Y-138645237D01*
X109862619Y-138645237D02*
X109815000Y-138740475D01*
X109815000Y-138740475D02*
X109767380Y-138788094D01*
X109767380Y-138788094D02*
X109672142Y-138835713D01*
X109672142Y-138835713D02*
X109481666Y-138883332D01*
X109481666Y-138883332D02*
X109243571Y-138883332D01*
X109243571Y-138883332D02*
X109053095Y-138835713D01*
X109053095Y-138835713D02*
X108957857Y-138788094D01*
X108957857Y-138788094D02*
X108910238Y-138740475D01*
X108910238Y-138740475D02*
X108862619Y-138645237D01*
%TO.C,330*%
X117632619Y-141055713D02*
X117632619Y-140436666D01*
X117632619Y-140436666D02*
X118013571Y-140769999D01*
X118013571Y-140769999D02*
X118013571Y-140627142D01*
X118013571Y-140627142D02*
X118061190Y-140531904D01*
X118061190Y-140531904D02*
X118108809Y-140484285D01*
X118108809Y-140484285D02*
X118204047Y-140436666D01*
X118204047Y-140436666D02*
X118442142Y-140436666D01*
X118442142Y-140436666D02*
X118537380Y-140484285D01*
X118537380Y-140484285D02*
X118585000Y-140531904D01*
X118585000Y-140531904D02*
X118632619Y-140627142D01*
X118632619Y-140627142D02*
X118632619Y-140912856D01*
X118632619Y-140912856D02*
X118585000Y-141008094D01*
X118585000Y-141008094D02*
X118537380Y-141055713D01*
X117632619Y-140103332D02*
X117632619Y-139484285D01*
X117632619Y-139484285D02*
X118013571Y-139817618D01*
X118013571Y-139817618D02*
X118013571Y-139674761D01*
X118013571Y-139674761D02*
X118061190Y-139579523D01*
X118061190Y-139579523D02*
X118108809Y-139531904D01*
X118108809Y-139531904D02*
X118204047Y-139484285D01*
X118204047Y-139484285D02*
X118442142Y-139484285D01*
X118442142Y-139484285D02*
X118537380Y-139531904D01*
X118537380Y-139531904D02*
X118585000Y-139579523D01*
X118585000Y-139579523D02*
X118632619Y-139674761D01*
X118632619Y-139674761D02*
X118632619Y-139960475D01*
X118632619Y-139960475D02*
X118585000Y-140055713D01*
X118585000Y-140055713D02*
X118537380Y-140103332D01*
X117632619Y-138865237D02*
X117632619Y-138769999D01*
X117632619Y-138769999D02*
X117680238Y-138674761D01*
X117680238Y-138674761D02*
X117727857Y-138627142D01*
X117727857Y-138627142D02*
X117823095Y-138579523D01*
X117823095Y-138579523D02*
X118013571Y-138531904D01*
X118013571Y-138531904D02*
X118251666Y-138531904D01*
X118251666Y-138531904D02*
X118442142Y-138579523D01*
X118442142Y-138579523D02*
X118537380Y-138627142D01*
X118537380Y-138627142D02*
X118585000Y-138674761D01*
X118585000Y-138674761D02*
X118632619Y-138769999D01*
X118632619Y-138769999D02*
X118632619Y-138865237D01*
X118632619Y-138865237D02*
X118585000Y-138960475D01*
X118585000Y-138960475D02*
X118537380Y-139008094D01*
X118537380Y-139008094D02*
X118442142Y-139055713D01*
X118442142Y-139055713D02*
X118251666Y-139103332D01*
X118251666Y-139103332D02*
X118013571Y-139103332D01*
X118013571Y-139103332D02*
X117823095Y-139055713D01*
X117823095Y-139055713D02*
X117727857Y-139008094D01*
X117727857Y-139008094D02*
X117680238Y-138960475D01*
X117680238Y-138960475D02*
X117632619Y-138865237D01*
%TO.C,C4*%
X141792619Y-129522856D02*
X141792619Y-129427618D01*
X141792619Y-129427618D02*
X141840238Y-129332380D01*
X141840238Y-129332380D02*
X141887857Y-129284761D01*
X141887857Y-129284761D02*
X141983095Y-129237142D01*
X141983095Y-129237142D02*
X142173571Y-129189523D01*
X142173571Y-129189523D02*
X142411666Y-129189523D01*
X142411666Y-129189523D02*
X142602142Y-129237142D01*
X142602142Y-129237142D02*
X142697380Y-129284761D01*
X142697380Y-129284761D02*
X142745000Y-129332380D01*
X142745000Y-129332380D02*
X142792619Y-129427618D01*
X142792619Y-129427618D02*
X142792619Y-129522856D01*
X142792619Y-129522856D02*
X142745000Y-129618094D01*
X142745000Y-129618094D02*
X142697380Y-129665713D01*
X142697380Y-129665713D02*
X142602142Y-129713332D01*
X142602142Y-129713332D02*
X142411666Y-129760951D01*
X142411666Y-129760951D02*
X142173571Y-129760951D01*
X142173571Y-129760951D02*
X141983095Y-129713332D01*
X141983095Y-129713332D02*
X141887857Y-129665713D01*
X141887857Y-129665713D02*
X141840238Y-129618094D01*
X141840238Y-129618094D02*
X141792619Y-129522856D01*
X142697380Y-128760951D02*
X142745000Y-128713332D01*
X142745000Y-128713332D02*
X142792619Y-128760951D01*
X142792619Y-128760951D02*
X142745000Y-128808570D01*
X142745000Y-128808570D02*
X142697380Y-128760951D01*
X142697380Y-128760951D02*
X142792619Y-128760951D01*
X142792619Y-127760952D02*
X142792619Y-128332380D01*
X142792619Y-128046666D02*
X141792619Y-128046666D01*
X141792619Y-128046666D02*
X141935476Y-128141904D01*
X141935476Y-128141904D02*
X142030714Y-128237142D01*
X142030714Y-128237142D02*
X142078333Y-128332380D01*
X142125952Y-126903809D02*
X142792619Y-126903809D01*
X142125952Y-127332380D02*
X142649761Y-127332380D01*
X142649761Y-127332380D02*
X142745000Y-127284761D01*
X142745000Y-127284761D02*
X142792619Y-127189523D01*
X142792619Y-127189523D02*
X142792619Y-127046666D01*
X142792619Y-127046666D02*
X142745000Y-126951428D01*
X142745000Y-126951428D02*
X142697380Y-126903809D01*
X142268809Y-126094285D02*
X142268809Y-126427618D01*
X142792619Y-126427618D02*
X141792619Y-126427618D01*
X141792619Y-126427618D02*
X141792619Y-125951428D01*
%TO.C,PIC32MX170f256b*%
X130072619Y-137955237D02*
X129072619Y-137955237D01*
X129072619Y-137955237D02*
X129072619Y-137574285D01*
X129072619Y-137574285D02*
X129120238Y-137479047D01*
X129120238Y-137479047D02*
X129167857Y-137431428D01*
X129167857Y-137431428D02*
X129263095Y-137383809D01*
X129263095Y-137383809D02*
X129405952Y-137383809D01*
X129405952Y-137383809D02*
X129501190Y-137431428D01*
X129501190Y-137431428D02*
X129548809Y-137479047D01*
X129548809Y-137479047D02*
X129596428Y-137574285D01*
X129596428Y-137574285D02*
X129596428Y-137955237D01*
X130072619Y-136955237D02*
X129072619Y-136955237D01*
X129977380Y-135907619D02*
X130025000Y-135955238D01*
X130025000Y-135955238D02*
X130072619Y-136098095D01*
X130072619Y-136098095D02*
X130072619Y-136193333D01*
X130072619Y-136193333D02*
X130025000Y-136336190D01*
X130025000Y-136336190D02*
X129929761Y-136431428D01*
X129929761Y-136431428D02*
X129834523Y-136479047D01*
X129834523Y-136479047D02*
X129644047Y-136526666D01*
X129644047Y-136526666D02*
X129501190Y-136526666D01*
X129501190Y-136526666D02*
X129310714Y-136479047D01*
X129310714Y-136479047D02*
X129215476Y-136431428D01*
X129215476Y-136431428D02*
X129120238Y-136336190D01*
X129120238Y-136336190D02*
X129072619Y-136193333D01*
X129072619Y-136193333D02*
X129072619Y-136098095D01*
X129072619Y-136098095D02*
X129120238Y-135955238D01*
X129120238Y-135955238D02*
X129167857Y-135907619D01*
X129072619Y-135574285D02*
X129072619Y-134955238D01*
X129072619Y-134955238D02*
X129453571Y-135288571D01*
X129453571Y-135288571D02*
X129453571Y-135145714D01*
X129453571Y-135145714D02*
X129501190Y-135050476D01*
X129501190Y-135050476D02*
X129548809Y-135002857D01*
X129548809Y-135002857D02*
X129644047Y-134955238D01*
X129644047Y-134955238D02*
X129882142Y-134955238D01*
X129882142Y-134955238D02*
X129977380Y-135002857D01*
X129977380Y-135002857D02*
X130025000Y-135050476D01*
X130025000Y-135050476D02*
X130072619Y-135145714D01*
X130072619Y-135145714D02*
X130072619Y-135431428D01*
X130072619Y-135431428D02*
X130025000Y-135526666D01*
X130025000Y-135526666D02*
X129977380Y-135574285D01*
X129167857Y-134574285D02*
X129120238Y-134526666D01*
X129120238Y-134526666D02*
X129072619Y-134431428D01*
X129072619Y-134431428D02*
X129072619Y-134193333D01*
X129072619Y-134193333D02*
X129120238Y-134098095D01*
X129120238Y-134098095D02*
X129167857Y-134050476D01*
X129167857Y-134050476D02*
X129263095Y-134002857D01*
X129263095Y-134002857D02*
X129358333Y-134002857D01*
X129358333Y-134002857D02*
X129501190Y-134050476D01*
X129501190Y-134050476D02*
X130072619Y-134621904D01*
X130072619Y-134621904D02*
X130072619Y-134002857D01*
X130072619Y-133574285D02*
X129072619Y-133574285D01*
X129072619Y-133574285D02*
X129786904Y-133240952D01*
X129786904Y-133240952D02*
X129072619Y-132907619D01*
X129072619Y-132907619D02*
X130072619Y-132907619D01*
X129072619Y-132526666D02*
X130072619Y-131860000D01*
X129072619Y-131860000D02*
X130072619Y-132526666D01*
X130072619Y-130955238D02*
X130072619Y-131526666D01*
X130072619Y-131240952D02*
X129072619Y-131240952D01*
X129072619Y-131240952D02*
X129215476Y-131336190D01*
X129215476Y-131336190D02*
X129310714Y-131431428D01*
X129310714Y-131431428D02*
X129358333Y-131526666D01*
X129072619Y-130621904D02*
X129072619Y-129955238D01*
X129072619Y-129955238D02*
X130072619Y-130383809D01*
X129072619Y-129383809D02*
X129072619Y-129288571D01*
X129072619Y-129288571D02*
X129120238Y-129193333D01*
X129120238Y-129193333D02*
X129167857Y-129145714D01*
X129167857Y-129145714D02*
X129263095Y-129098095D01*
X129263095Y-129098095D02*
X129453571Y-129050476D01*
X129453571Y-129050476D02*
X129691666Y-129050476D01*
X129691666Y-129050476D02*
X129882142Y-129098095D01*
X129882142Y-129098095D02*
X129977380Y-129145714D01*
X129977380Y-129145714D02*
X130025000Y-129193333D01*
X130025000Y-129193333D02*
X130072619Y-129288571D01*
X130072619Y-129288571D02*
X130072619Y-129383809D01*
X130072619Y-129383809D02*
X130025000Y-129479047D01*
X130025000Y-129479047D02*
X129977380Y-129526666D01*
X129977380Y-129526666D02*
X129882142Y-129574285D01*
X129882142Y-129574285D02*
X129691666Y-129621904D01*
X129691666Y-129621904D02*
X129453571Y-129621904D01*
X129453571Y-129621904D02*
X129263095Y-129574285D01*
X129263095Y-129574285D02*
X129167857Y-129526666D01*
X129167857Y-129526666D02*
X129120238Y-129479047D01*
X129120238Y-129479047D02*
X129072619Y-129383809D01*
X129405952Y-128764761D02*
X129405952Y-128383809D01*
X130072619Y-128621904D02*
X129215476Y-128621904D01*
X129215476Y-128621904D02*
X129120238Y-128574285D01*
X129120238Y-128574285D02*
X129072619Y-128479047D01*
X129072619Y-128479047D02*
X129072619Y-128383809D01*
X129167857Y-128098094D02*
X129120238Y-128050475D01*
X129120238Y-128050475D02*
X129072619Y-127955237D01*
X129072619Y-127955237D02*
X129072619Y-127717142D01*
X129072619Y-127717142D02*
X129120238Y-127621904D01*
X129120238Y-127621904D02*
X129167857Y-127574285D01*
X129167857Y-127574285D02*
X129263095Y-127526666D01*
X129263095Y-127526666D02*
X129358333Y-127526666D01*
X129358333Y-127526666D02*
X129501190Y-127574285D01*
X129501190Y-127574285D02*
X130072619Y-128145713D01*
X130072619Y-128145713D02*
X130072619Y-127526666D01*
X129072619Y-126621904D02*
X129072619Y-127098094D01*
X129072619Y-127098094D02*
X129548809Y-127145713D01*
X129548809Y-127145713D02*
X129501190Y-127098094D01*
X129501190Y-127098094D02*
X129453571Y-127002856D01*
X129453571Y-127002856D02*
X129453571Y-126764761D01*
X129453571Y-126764761D02*
X129501190Y-126669523D01*
X129501190Y-126669523D02*
X129548809Y-126621904D01*
X129548809Y-126621904D02*
X129644047Y-126574285D01*
X129644047Y-126574285D02*
X129882142Y-126574285D01*
X129882142Y-126574285D02*
X129977380Y-126621904D01*
X129977380Y-126621904D02*
X130025000Y-126669523D01*
X130025000Y-126669523D02*
X130072619Y-126764761D01*
X130072619Y-126764761D02*
X130072619Y-127002856D01*
X130072619Y-127002856D02*
X130025000Y-127098094D01*
X130025000Y-127098094D02*
X129977380Y-127145713D01*
X129072619Y-125717142D02*
X129072619Y-125907618D01*
X129072619Y-125907618D02*
X129120238Y-126002856D01*
X129120238Y-126002856D02*
X129167857Y-126050475D01*
X129167857Y-126050475D02*
X129310714Y-126145713D01*
X129310714Y-126145713D02*
X129501190Y-126193332D01*
X129501190Y-126193332D02*
X129882142Y-126193332D01*
X129882142Y-126193332D02*
X129977380Y-126145713D01*
X129977380Y-126145713D02*
X130025000Y-126098094D01*
X130025000Y-126098094D02*
X130072619Y-126002856D01*
X130072619Y-126002856D02*
X130072619Y-125812380D01*
X130072619Y-125812380D02*
X130025000Y-125717142D01*
X130025000Y-125717142D02*
X129977380Y-125669523D01*
X129977380Y-125669523D02*
X129882142Y-125621904D01*
X129882142Y-125621904D02*
X129644047Y-125621904D01*
X129644047Y-125621904D02*
X129548809Y-125669523D01*
X129548809Y-125669523D02*
X129501190Y-125717142D01*
X129501190Y-125717142D02*
X129453571Y-125812380D01*
X129453571Y-125812380D02*
X129453571Y-126002856D01*
X129453571Y-126002856D02*
X129501190Y-126098094D01*
X129501190Y-126098094D02*
X129548809Y-126145713D01*
X129548809Y-126145713D02*
X129644047Y-126193332D01*
X130072619Y-125193332D02*
X129072619Y-125193332D01*
X129453571Y-125193332D02*
X129405952Y-125098094D01*
X129405952Y-125098094D02*
X129405952Y-124907618D01*
X129405952Y-124907618D02*
X129453571Y-124812380D01*
X129453571Y-124812380D02*
X129501190Y-124764761D01*
X129501190Y-124764761D02*
X129596428Y-124717142D01*
X129596428Y-124717142D02*
X129882142Y-124717142D01*
X129882142Y-124717142D02*
X129977380Y-124764761D01*
X129977380Y-124764761D02*
X130025000Y-124812380D01*
X130025000Y-124812380D02*
X130072619Y-124907618D01*
X130072619Y-124907618D02*
X130072619Y-125098094D01*
X130072619Y-125098094D02*
X130025000Y-125193332D01*
D11*
%TO.C,J4*%
X107450000Y-123470000D02*
X107450000Y-122140000D01*
X108780000Y-123470000D02*
X107450000Y-123470000D01*
X110050000Y-123470000D02*
X122810000Y-123470000D01*
X110050000Y-123470000D02*
X110050000Y-120810000D01*
X122810000Y-123470000D02*
X122810000Y-120810000D01*
X110050000Y-120810000D02*
X122810000Y-120810000D01*
%TO.C,C6*%
X122830000Y-147460000D02*
X122830000Y-147215000D01*
X122830000Y-147460000D02*
X119190000Y-147460000D01*
X122830000Y-145365000D02*
X122830000Y-145120000D01*
X122830000Y-145120000D02*
X119190000Y-145120000D01*
X119190000Y-147460000D02*
X119190000Y-147215000D01*
X119190000Y-145365000D02*
X119190000Y-145120000D01*
%TO.C,C2*%
X136820000Y-118675000D02*
X136820000Y-118050000D01*
X136820000Y-120890000D02*
X136820000Y-120265000D01*
X140860000Y-118050000D02*
X136820000Y-118050000D01*
X140860000Y-118675000D02*
X140860000Y-118050000D01*
X140860000Y-120890000D02*
X136820000Y-120890000D01*
X140860000Y-120890000D02*
X140860000Y-120265000D01*
D12*
%TO.C,SW1*%
X100960000Y-112740000D02*
X104960000Y-112740000D01*
X104960000Y-112740000D02*
X104960000Y-100740000D01*
X100960000Y-100740000D02*
X100960000Y-112740000D01*
X100960000Y-100740000D02*
X104960000Y-100740000D01*
D11*
%TO.C,SW3*%
X127970000Y-103940000D02*
X127970000Y-105440000D01*
X129220000Y-107940000D02*
X133720000Y-107940000D01*
X133720000Y-101440000D02*
X129220000Y-101440000D01*
X134970000Y-105440000D02*
X134970000Y-103940000D01*
%TO.C,SW2*%
X139430000Y-103810000D02*
X139430000Y-105310000D01*
X140680000Y-107810000D02*
X145180000Y-107810000D01*
X145180000Y-101310000D02*
X140680000Y-101310000D01*
X146430000Y-105310000D02*
X146430000Y-103810000D01*
%TO.C,J2*%
X101630000Y-119190000D02*
X101630000Y-147190000D01*
X101630000Y-119190000D02*
X104290000Y-119190000D01*
X101630000Y-147190000D02*
X104290000Y-147190000D01*
X102960000Y-116590000D02*
X104290000Y-116590000D01*
X104290000Y-116590000D02*
X104290000Y-117920000D01*
X104290000Y-119190000D02*
X104290000Y-147190000D01*
%TO.C,R2*%
X108000000Y-142960000D02*
X108330000Y-142960000D01*
X110740000Y-142960000D02*
X110410000Y-142960000D01*
X108000000Y-136420000D02*
X108000000Y-142960000D01*
X108330000Y-136420000D02*
X108000000Y-136420000D01*
X110410000Y-136420000D02*
X110740000Y-136420000D01*
X110740000Y-136420000D02*
X110740000Y-142960000D01*
%TO.C,J3*%
X143950000Y-119090000D02*
X143950000Y-147090000D01*
X143950000Y-119090000D02*
X146610000Y-119090000D01*
X143950000Y-147090000D02*
X146610000Y-147090000D01*
X145280000Y-116490000D02*
X146610000Y-116490000D01*
X146610000Y-116490000D02*
X146610000Y-117820000D01*
X146610000Y-119090000D02*
X146610000Y-147090000D01*
%TO.C,R3*%
X115150000Y-136420000D02*
X115150000Y-142960000D01*
X114820000Y-136420000D02*
X115150000Y-136420000D01*
X112740000Y-136420000D02*
X112410000Y-136420000D01*
X112410000Y-136420000D02*
X112410000Y-142960000D01*
X115150000Y-142960000D02*
X114820000Y-142960000D01*
X112410000Y-142960000D02*
X112740000Y-142960000D01*
%TO.C,R5*%
X138710000Y-140690000D02*
X138710000Y-147230000D01*
X138380000Y-140690000D02*
X138710000Y-140690000D01*
X136300000Y-140690000D02*
X135970000Y-140690000D01*
X135970000Y-140690000D02*
X135970000Y-147230000D01*
X138710000Y-147230000D02*
X138380000Y-147230000D01*
X135970000Y-147230000D02*
X136300000Y-147230000D01*
%TO.C,330*%
X119630000Y-136440000D02*
X119630000Y-142980000D01*
X119300000Y-136440000D02*
X119630000Y-136440000D01*
X117220000Y-136440000D02*
X116890000Y-136440000D01*
X116890000Y-136440000D02*
X116890000Y-142980000D01*
X119630000Y-142980000D02*
X119300000Y-142980000D01*
X116890000Y-142980000D02*
X117220000Y-142980000D01*
%TO.C,C3*%
X140830000Y-125270000D02*
X140830000Y-124645000D01*
X140830000Y-125270000D02*
X136790000Y-125270000D01*
X140830000Y-123055000D02*
X140830000Y-122430000D01*
X140830000Y-122430000D02*
X136790000Y-122430000D01*
X136790000Y-125270000D02*
X136790000Y-124645000D01*
X136790000Y-123055000D02*
X136790000Y-122430000D01*
%TO.C,J1*%
X146410000Y-112190000D02*
X146410000Y-114790000D01*
X146410000Y-112190000D02*
X149070000Y-112190000D01*
X146410000Y-114790000D02*
X149070000Y-114790000D01*
X147740000Y-109590000D02*
X149070000Y-109590000D01*
X149070000Y-109590000D02*
X149070000Y-110920000D01*
X149070000Y-112190000D02*
X149070000Y-114790000D01*
%TO.C,D1*%
X120886000Y-128095000D02*
X120730000Y-128095000D01*
X118570000Y-128095000D02*
X118414000Y-128095000D01*
X120728608Y-131327334D02*
G75*
G03*
X120885515Y-128095001I-1078608J1672334D01*
G01*
X120729836Y-130696129D02*
G75*
G03*
X120729999Y-128614040I-1079836J1041129D01*
G01*
X118570001Y-128614040D02*
G75*
G03*
X118570164Y-130696129I1079999J-1040960D01*
G01*
X118414485Y-128095001D02*
G75*
G03*
X118571392Y-131327334I1235515J-1559999D01*
G01*
%TO.C,D3*%
X115856000Y-128200000D02*
X115700000Y-128200000D01*
X113540000Y-128200000D02*
X113384000Y-128200000D01*
X115698608Y-131432334D02*
G75*
G03*
X115855515Y-128200001I-1078608J1672334D01*
G01*
X115699836Y-130801129D02*
G75*
G03*
X115699999Y-128719040I-1079836J1041129D01*
G01*
X113540001Y-128719040D02*
G75*
G03*
X113540164Y-130801129I1079999J-1040960D01*
G01*
X113384485Y-128200001D02*
G75*
G03*
X113541392Y-131432334I1235515J-1559999D01*
G01*
%TO.C,C4*%
X140740000Y-129210000D02*
X140740000Y-128965000D01*
X140740000Y-129210000D02*
X137100000Y-129210000D01*
X140740000Y-127115000D02*
X140740000Y-126870000D01*
X140740000Y-126870000D02*
X137100000Y-126870000D01*
X137100000Y-129210000D02*
X137100000Y-128965000D01*
X137100000Y-127115000D02*
X137100000Y-126870000D01*
%TO.C,U2*%
X137291389Y-109919878D02*
G75*
G03*
X141180000Y-109910000I1948611J-1690122D01*
G01*
X141180000Y-109910000D02*
X137330000Y-109910000D01*
%TO.C,R4*%
X142640000Y-140650000D02*
X142640000Y-147190000D01*
X142310000Y-140650000D02*
X142640000Y-140650000D01*
X140230000Y-140650000D02*
X139900000Y-140650000D01*
X139900000Y-140650000D02*
X139900000Y-147190000D01*
X142640000Y-147190000D02*
X142310000Y-147190000D01*
X139900000Y-147190000D02*
X140230000Y-147190000D01*
%TO.C,C1*%
X134670000Y-112850000D02*
X134670000Y-112225000D01*
X134670000Y-112850000D02*
X130630000Y-112850000D01*
X134670000Y-110635000D02*
X134670000Y-110010000D01*
X134670000Y-110010000D02*
X130630000Y-110010000D01*
X130630000Y-112850000D02*
X130630000Y-112225000D01*
X130630000Y-110635000D02*
X130630000Y-110010000D01*
%TO.C,D2*%
X110926000Y-128250000D02*
X110770000Y-128250000D01*
X108610000Y-128250000D02*
X108454000Y-128250000D01*
X110768608Y-131482334D02*
G75*
G03*
X110925515Y-128250001I-1078608J1672334D01*
G01*
X110769836Y-130851129D02*
G75*
G03*
X110769999Y-128769040I-1079836J1041129D01*
G01*
X108610001Y-128769040D02*
G75*
G03*
X108610164Y-130851129I1079999J-1040960D01*
G01*
X108454485Y-128250001D02*
G75*
G03*
X108611392Y-131482334I1235515J-1559999D01*
G01*
%TO.C,C5*%
X136690000Y-133770000D02*
X136690000Y-134395000D01*
X136690000Y-133770000D02*
X140730000Y-133770000D01*
X136690000Y-135985000D02*
X136690000Y-136610000D01*
X136690000Y-136610000D02*
X140730000Y-136610000D01*
X140730000Y-133770000D02*
X140730000Y-134395000D01*
X140730000Y-135985000D02*
X140730000Y-136610000D01*
%TO.C,PIC32MX170f256b*%
X128590000Y-113445000D02*
G75*
G03*
X130590000Y-113445000I1000000J0D01*
G01*
X134730000Y-149185000D02*
X134730000Y-113385000D01*
X134730000Y-113385000D02*
X124450000Y-113385000D01*
X132240000Y-149125000D02*
X132240000Y-113445000D01*
X132240000Y-113445000D02*
X130590000Y-113445000D01*
X128590000Y-113445000D02*
X126940000Y-113445000D01*
X126940000Y-149125000D02*
X132240000Y-149125000D01*
X126940000Y-113445000D02*
X126940000Y-149125000D01*
X124450000Y-149185000D02*
X134730000Y-149185000D01*
X124450000Y-113385000D02*
X124450000Y-149185000D01*
%TD*%
M02*
