M48
; DRILL file {KiCad 7.0.1-0} date 2023 April 17, Monday 16:38:31
; FORMAT={-:-/ absolute / inch / decimal}
; #@! TF.CreationDate,2023-04-17T16:38:31-05:00
; #@! TF.GenerationSoftware,Kicad,Pcbnew,7.0.1-0
; #@! TF.FileFunction,Plated,1,2,PTH
FMAT,2
INCH
; #@! TA.AperFunction,Plated,PTH,ViaDrill
T1C0.0157
; #@! TA.AperFunction,Plated,PTH,ComponentDrill
T2C0.0295
; #@! TA.AperFunction,Plated,PTH,ComponentDrill
T3C0.0300
; #@! TA.AperFunction,Plated,PTH,ComponentDrill
T4C0.0315
; #@! TA.AperFunction,Plated,PTH,ComponentDrill
T5C0.0354
; #@! TA.AperFunction,Plated,PTH,ComponentDrill
T6C0.0394
; #@! TA.AperFunction,Plated,PTH,ComponentDrill
T7C0.0433
%
G90
G05
T1
X4.1693Y-5.0189
X4.3835Y-4.9815
X4.4205Y-5.2594
X4.5827Y-4.298
X4.8154Y-5.5187
X4.8382Y-5.6098
X4.9441Y-4.0791
X5.0417Y-5.8043
X5.0984Y-4.5217
X5.1Y-5.8768
X5.4126Y-4.2012
X5.5287Y-4.5087
X5.8299Y-4.5559
T2
X5.4287Y-4.3941
X5.4787Y-4.3941
X5.5287Y-4.3941
T3
X4.2827Y-4.0087
X4.7827Y-4.0087
T4
X4.3059Y-5.3496
X4.3059Y-5.6496
X4.4795Y-5.3496
X4.4795Y-5.6496
X4.6559Y-5.3504
X4.6559Y-5.6504
X4.715Y-5.7594
X4.8134Y-5.7594
X4.952Y-4.5187
X4.952Y-4.6187
X4.952Y-4.7187
X4.952Y-4.8187
X4.952Y-4.9187
X4.952Y-5.0187
X4.952Y-5.1187
X4.952Y-5.2187
X4.952Y-5.3187
X4.952Y-5.4187
X4.952Y-5.5187
X4.952Y-5.6187
X4.952Y-5.7187
X4.952Y-5.8187
X5.1732Y-4.387
X5.252Y-4.5187
X5.252Y-4.6187
X5.252Y-4.7187
X5.252Y-4.8187
X5.252Y-4.9187
X5.252Y-5.0187
X5.252Y-5.1187
X5.252Y-5.2187
X5.252Y-5.3187
X5.252Y-5.4187
X5.252Y-5.5187
X5.252Y-5.6187
X5.252Y-5.7187
X5.252Y-5.8187
X5.2717Y-4.387
X5.4071Y-5.5177
X5.4071Y-5.8177
X5.4118Y-5.3224
X5.4157Y-4.876
X5.4169Y-4.7035
X5.4201Y-5.0409
X5.5102Y-5.3224
X5.5142Y-4.876
X5.5154Y-4.7035
X5.5185Y-5.0409
X5.5618Y-5.5161
X5.5618Y-5.8161
T5
X4.3185Y-5.0606
X4.3185Y-5.1606
X4.5126Y-5.0587
X4.5126Y-5.1587
X4.7106Y-5.0545
X4.7106Y-5.1545
T6
X4.0535Y-4.1039
X4.0535Y-4.2024
X4.0535Y-4.3008
X4.0535Y-4.6425
X4.0535Y-4.7425
X4.0535Y-4.8425
X4.0535Y-4.9425
X4.0535Y-5.0425
X4.0535Y-5.1425
X4.0535Y-5.2425
X4.0535Y-5.3425
X4.0535Y-5.4425
X4.0535Y-5.5425
X4.0535Y-5.6425
X4.0535Y-5.7425
X4.2827Y-4.8087
X4.3827Y-4.8087
X4.4827Y-4.8087
X4.5827Y-4.8087
X4.6827Y-4.8087
X4.7827Y-4.8087
X5.7197Y-4.6386
X5.7197Y-4.7386
X5.7197Y-4.8386
X5.7197Y-4.9386
X5.7197Y-5.0386
X5.7197Y-5.1386
X5.7197Y-5.2386
X5.7197Y-5.3386
X5.7197Y-5.4386
X5.7197Y-5.5386
X5.7197Y-5.6386
X5.7197Y-5.7386
X5.8165Y-4.3669
X5.8165Y-4.4669
T7
X5.048Y-4.1331
X5.2547Y-4.1331
X5.4992Y-4.128
X5.7059Y-4.128
T0
M30
